<svg xmlns="http://www.w3.org/2000/svg" width="24.583" height="21.071" viewBox="0 0 24.583 21.071">
  <path id="hand-o-left" d="M5.707,17.559H5.268V8.78h.439a2.653,2.653,0,0,0,.926-.165,2.926,2.926,0,0,0,.858-.507,8.12,8.12,0,0,0,.686-.631q.274-.288.672-.741.11-.124.165-.192a15.339,15.339,0,0,0,1.536-1.989q.192-.3.521-.933.014-.041.144-.309t.254-.494q.124-.226.275-.487a2.425,2.425,0,0,1,.3-.419.391.391,0,0,1,.254-.158,2.746,2.746,0,0,1,1.584.419,1.506,1.506,0,0,1,.61,1.338,3.392,3.392,0,0,1-.206,1.16,4.2,4.2,0,0,1-.453.933,7.73,7.73,0,0,0-.453.755,1.5,1.5,0,0,0-.206.665h7.9a1.693,1.693,0,0,1,1.221.528,1.745,1.745,0,0,1-1.22,2.983H16.531a1.856,1.856,0,0,1,.343.651,2.463,2.463,0,0,1,.137.762,2.17,2.17,0,0,1-.727,1.633,1.9,1.9,0,0,1,.247.946,2.313,2.313,0,0,1-.24,1.009,1.526,1.526,0,0,1-.651.72,4.747,4.747,0,0,1,.055.768,2.137,2.137,0,0,1-.665,1.728,2.8,2.8,0,0,1-1.859.563,8.2,8.2,0,0,1-2.51-.439Q9.3,18.438,8,18a7.315,7.315,0,0,0-2.291-.439Zm-3.951-.878a.844.844,0,0,1,.261-.617.861.861,0,0,1,1.235,0,.861.861,0,0,1,0,1.235.861.861,0,0,1-1.235,0A.844.844,0,0,1,1.756,16.681ZM0,8.78v8.78A1.692,1.692,0,0,0,.514,18.8a1.694,1.694,0,0,0,1.241.515H5.707a11.384,11.384,0,0,1,3.059.809,13.275,13.275,0,0,0,4.349.946,4.6,4.6,0,0,0,3.156-1.063,3.728,3.728,0,0,0,1.194-2.983l-.014-.068a3.786,3.786,0,0,0,.837-2.442,4.187,4.187,0,0,0-.041-.59,3.7,3.7,0,0,0,.507-1.633h2.318a3.368,3.368,0,0,0,2.476-1.043,3.4,3.4,0,0,0,1.036-2.483A3.36,3.36,0,0,0,23.541,6.31a3.375,3.375,0,0,0-2.469-1.043h-5.13a5.058,5.058,0,0,0,.3-1.756A3.168,3.168,0,0,0,15.125.919,4.314,4.314,0,0,0,12.292,0a1.928,1.928,0,0,0-.953.24,2.359,2.359,0,0,0-.755.679,7.767,7.767,0,0,0-.556.865q-.234.426-.507.987t-.453.851A15,15,0,0,1,7.7,5.392q-.027.041-.192.234t-.261.3l-.281.3a3.64,3.64,0,0,1-.329.309l-.309.247A1.239,1.239,0,0,1,6,6.963a.835.835,0,0,1-.295.061H1.756a1.692,1.692,0,0,0-1.241.514A1.691,1.691,0,0,0,0,8.78Z" fill="#111"/>
</svg>
