<svg id="telephone-Icon" xmlns="http://www.w3.org/2000/svg" width="11.463" height="11.461" viewBox="0 0 11.463 11.461">
  <path id="Path_1" data-name="Path 1" d="M3.741,2.078a.486.486,0,0,0-.727-.045l-.741.741a1.225,1.225,0,0,0-.322,1.267A12.585,12.585,0,0,0,4.937,8.776a12.586,12.586,0,0,0,4.734,2.985,1.226,1.226,0,0,0,1.267-.322l.741-.741a.486.486,0,0,0-.046-.727L9.982,8.686A.486.486,0,0,0,9.567,8.6L8,8.99a1.25,1.25,0,0,1-1.188-.329L5.052,6.9a1.25,1.25,0,0,1-.329-1.188l.392-1.568a.486.486,0,0,0-.088-.416ZM2.475,1.493a1.25,1.25,0,0,1,1.871.117L5.63,3.262a1.247,1.247,0,0,1,.226,1.07L5.464,5.9a.486.486,0,0,0,.128.462L7.352,8.121a.486.486,0,0,0,.462.128l1.568-.392a1.25,1.25,0,0,1,1.07.226L12.1,9.368a1.25,1.25,0,0,1,.117,1.871l-.741.741a1.991,1.991,0,0,1-2.061.5A13.349,13.349,0,0,1,4.4,9.316,13.349,13.349,0,0,1,1.231,4.295a1.992,1.992,0,0,1,.5-2.062l.741-.74Z" transform="translate(-1.124 -1.128)" fill="#fff" fill-rule="evenodd"/>
</svg>
