<svg xmlns="http://www.w3.org/2000/svg" width="13.494" height="12.728" viewBox="0 0 13.494 12.728">
  <g id="event-logo" transform="translate(0.002 -4.9)">
    <path id="Path_270" data-name="Path 270" d="M4.274,4.906q6.416,0,12.833-.006c.2,0,.253.037.239.239-.022.31-.006.622-.006.933-.051.057-.094.153-.155.166-.3.064-.293.279-.292.513q.006,2.434,0,4.868c0,.458-.13.587-.592.59-.69,0-1.38,0-2.07,0-.194,0-.325.043-.317.271,0,.107-.034.209-.159.2-.367-.037-.387.188-.369.458,0,.07.029.156-.051.207-.073,0-.107-.056-.139-.1a1.516,1.516,0,0,0-2.618.247.432.432,0,0,1-.423.236A6.885,6.885,0,0,0,8.306,13.7c-.168.055-.266-.068-.26-.254.005-.155-.008-.311,0-.466.01-.205-.064-.314-.283-.3-.121.006-.25-.006-.241-.174.016-.286-.162-.3-.378-.3-.661.005-1.321,0-1.982,0-.489,0-.617-.133-.617-.628q0-2.375,0-4.751c0-.25.05-.52-.3-.6-.031-.007-.059-.05-.079-.082A1.708,1.708,0,0,1,4.274,4.906Zm6.464,1.419q-2.667,0-5.334,0c-.209,0-.355.022-.353.292.008,1.6.005,3.206,0,4.809,0,.192.065.288.269.285q.729-.01,1.457,0c.2,0,.279-.085.272-.281-.008-.223,0-.447,0-.67,0-.344.047-.39.388-.391.835,0,1.671,0,2.506,0q2.026,0,4.052,0c.346,0,.388.045.393.385,0,.213.012.428,0,.641-.016.246.09.324.327.317.437-.013.875-.017,1.311,0,.285.013.369-.093.367-.371-.01-1.535,0-3.07-.005-4.605,0-.409,0-.412-.4-.412Z" transform="translate(-3.856 0)" fill="#111"/>
    <path id="Path_271" data-name="Path 271" d="M.01,154.627a.969.969,0,0,1,.876-.843,1.373,1.373,0,0,0,.386-.127.4.4,0,0,0,.214-.561c-.054-.135-.117-.267-.184-.4a.921.921,0,0,1-.065-.812,1.218,1.218,0,0,0,.034-.4.868.868,0,0,1,.951-.847.86.86,0,0,1,.958.836,1.8,1.8,0,0,0,.088.571.941.941,0,0,1-.164.746c-.272.546-.234.667.324.921.22.1.453.174.677.269a.334.334,0,0,0,.4-.092.266.266,0,0,0,.036-.371,1.558,1.558,0,0,1-.087-1.21c.04-.31.356-.476.748-.45a.594.594,0,0,1,.6.526,1.608,1.608,0,0,1-.127,1.178c-.137.2.006.347.213.45a1.592,1.592,0,0,0,1.482-.129.455.455,0,0,0,.249-.234c.078-.2,0-.325-.211-.337-.184-.01-.369,0-.554-.006-.15,0-.233-.066-.145-.217a3.555,3.555,0,0,0,.348-1.165,1.514,1.514,0,0,1,.421-.817.861.861,0,0,1,1.273,0,1.649,1.649,0,0,1,.449.9,3.316,3.316,0,0,0,.318,1.024c.1.174.051.278-.162.278-.156,0-.311,0-.467,0-.106,0-.228-.012-.272.115a.281.281,0,0,0,.089.344c.3.183.607.391,1,.218.158-.07.337-.092.5-.147.331-.11.461-.342.274-.626a2.04,2.04,0,0,1-.128-1.52c.056-.416.457-.637.965-.59a.736.736,0,0,1,.729.726,2.33,2.33,0,0,0,.078.544c.082.29-.1.522-.216.764-.178.369-.094.574.288.68.765.214.793.246.883,1.039q-6.417,0-12.834.006C.042,154.866-.033,154.826.01,154.627Z" transform="translate(0 -137.239)" fill="#111"/>
  </g>
</svg>
