<svg xmlns="http://www.w3.org/2000/svg" width="255.072" height="92.887" viewBox="0 0 255.072 92.887">
  <g id="logo" transform="translate(0)">
    <rect id="Rectangle_287" data-name="Rectangle 287" width="252.893" height="90.674" transform="translate(1.08 1.115)" fill="#273472"/>
    <path id="Path_352" data-name="Path 352" d="M253.973,91.789V90.674H2.179V2.23H252.893V91.789h1.081v0h1.1V0H0V92.887H255.072v-1.1h-1.1" transform="translate(0)" fill="#fff"/>
    <rect id="Rectangle_288" data-name="Rectangle 288" width="252.893" height="90.674" transform="translate(1.08 1.115)" fill="#273472"/>
    <path id="Path_353" data-name="Path 353" d="M22.852,28.377c0-4.272,7.7-.618,7.7-8.527v-.24a5.43,5.43,0,0,0-5.216-5.25h-.755c-2.213,0-4.958,2.625-4.958,4.255V21.1c0,2.093,2.11,3.243,2.488,4.272h-3.74c-4.5,0-8-3.243-9.453-3.243H8.44a12.793,12.793,0,0,0-1.733.24c-.154.686-.5,1.029-.5,1.493,0,2.831,3.311,2.23,5.559,2.917,2.213.669,3.449,2.23,5.113,3.363,3.62,0,4.975.429,4.975,4.255v.275a1.542,1.542,0,0,1-1.75,1.733H18.374v3.517c0,1.819,5.645,2.488,7.944,2.488,2.282,0,6.451-1.373,6.451-3.243v-1a5.828,5.828,0,0,0-.5-2.488l12.181.48a1.914,1.914,0,0,0,1.75-2.007V32.666a3.552,3.552,0,0,0-.257-1.27l-6.708.583-2.488-.069c-2.282,0-3.26-.841-5.13-.172a34.666,34.666,0,0,1-4.289,1.424h-.257a4.509,4.509,0,0,1-4.221-4.787" transform="translate(4.444 10.277)" fill="#162b75" fill-rule="evenodd"/>
    <path id="Path_354" data-name="Path 354" d="M23.2,28.735h-.841A2.976,2.976,0,0,1,22.826,27a3.032,3.032,0,0,1,1.029-.961,8.794,8.794,0,0,1,2.127-.772A6.644,6.644,0,0,0,28.8,24a3.447,3.447,0,0,0,.892-1.338,6.986,6.986,0,0,0,.36-2.453v-.24a4.616,4.616,0,0,0-4.375-4.409h-.755a3.406,3.406,0,0,0-1.338.36,6.48,6.48,0,0,0-1.99,1.544,5.419,5.419,0,0,0-.6.892,1.234,1.234,0,0,0-.172.618v2.488a2.248,2.248,0,0,0,.257,1.047,6.327,6.327,0,0,0,1.064,1.407c.206.223.429.446.618.686a3.112,3.112,0,0,1,.5.841l.412,1.132H18.725a13.851,13.851,0,0,1-6.245-1.716c-.824-.429-1.561-.824-2.127-1.115a5.181,5.181,0,0,0-.721-.343,1.467,1.467,0,0,0-.36-.086h-.48a1.9,1.9,0,0,0-.7.086,4.259,4.259,0,0,1-.961.154l-.086-.841.824.206a4.6,4.6,0,0,1-.36.978.752.752,0,0,0-.1.326,1.976,1.976,0,0,0,.086.618,1.026,1.026,0,0,0,.48.532,5.866,5.866,0,0,0,1.853.5,12.754,12.754,0,0,1,2.539.446,9.06,9.06,0,0,1,3.02,1.647c.841.652,1.544,1.3,2.316,1.819l-.48.7V29.61a20.355,20.355,0,0,1,2.436.137,5.116,5.116,0,0,1,1.475.463,3.076,3.076,0,0,1,1.493,1.716,7.946,7.946,0,0,1,.412,2.8V35a3.481,3.481,0,0,1-.154,1.029,2.248,2.248,0,0,1-.944,1.2,2.805,2.805,0,0,1-1.493.377h-.892v2.642l.069.086a2.9,2.9,0,0,0,1.029.618,16.617,16.617,0,0,0,3.105.721,23.023,23.023,0,0,0,2.917.223,10.933,10.933,0,0,0,3.74-.841,6.141,6.141,0,0,0,1.458-.892l.326-.395.086-.275v-1a5.025,5.025,0,0,0-.412-2.127l-.618-1.287,13.588.549h.017a.608.608,0,0,0,.515-.309,1.285,1.285,0,0,0,.309-.824V33.007a1.691,1.691,0,0,0-.034-.446c-.017-.086-.1-.292-.189-.618l.824-.206.069.875-6.743.549-2.522-.069.017-.841v.841a10.835,10.835,0,0,1-2.2-.223,9.491,9.491,0,0,0-1.51-.206,3.33,3.33,0,0,0-1.15.206c-.429.154-1.355.515-2.248.841-.446.137-.892.292-1.27.395l-.549.154-.5.069h-.257A4.784,4.784,0,0,1,23.718,32.6a6.025,6.025,0,0,1-1.355-3.877h1.7a4.317,4.317,0,0,0,.961,2.762,3.02,3.02,0,0,0,2.4,1.132h.257v.154l-.017-.154h.017v.154l-.017-.154a3.217,3.217,0,0,0,.669-.172c.515-.154,1.2-.377,1.819-.618.635-.223,1.2-.446,1.561-.583a5.354,5.354,0,0,1,1.7-.292,11.235,11.235,0,0,1,1.8.223,10.109,10.109,0,0,0,1.9.206h.017l2.453.086,7.395-.652.154.721a4.813,4.813,0,0,0,.154.532,3.282,3.282,0,0,1,.12.926v1.493a3.1,3.1,0,0,1-.686,1.939,2.394,2.394,0,0,1-1.836.909h-.12l.051-.841-.034.841-12.181-.48.034-.841.772-.377A6.775,6.775,0,0,1,34,38.5v1a2.379,2.379,0,0,1-.292,1.1,4.324,4.324,0,0,1-1.321,1.355,10.66,10.66,0,0,1-2.814,1.218,11.459,11.459,0,0,1-2.865.446,23.688,23.688,0,0,1-5.027-.6,9.318,9.318,0,0,1-2.419-.841,3.436,3.436,0,0,1-.909-.738,1.9,1.9,0,0,1-.446-1.184V35.889h2.591a1.534,1.534,0,0,0,.5-.086l.275-.172a1.114,1.114,0,0,0,.137-.618V34.74a7.088,7.088,0,0,0-.223-2.007,1.487,1.487,0,0,0-.395-.7,1.887,1.887,0,0,0-1.132-.532,14.276,14.276,0,0,0-2.368-.154h-.257l-.223-.137c-.892-.618-1.647-1.3-2.4-1.887a7.522,7.522,0,0,0-2.5-1.355,12.582,12.582,0,0,0-1.681-.343,9.785,9.785,0,0,1-2.865-.652,2.83,2.83,0,0,1-1.184-1.029,3.041,3.041,0,0,1-.446-1.733,2.423,2.423,0,0,1,.257-1.029,3.574,3.574,0,0,0,.257-.669l.137-.6.618-.051a6.02,6.02,0,0,0,.721-.137,4.151,4.151,0,0,1,1.081-.137h.5a2.361,2.361,0,0,1,.926.206,9.618,9.618,0,0,1,1.647.806c1.8.961,4.2,2.248,6.88,2.248h3.723v.875l-.789.292a2.191,2.191,0,0,0-.377-.532A13.319,13.319,0,0,1,20,23.948a4.37,4.37,0,0,1-.858-2.488V18.973a3.581,3.581,0,0,1,.6-1.8,7.871,7.871,0,0,1,2.213-2.248,5.736,5.736,0,0,1,3-1.064h.755a5.991,5.991,0,0,1,4.238,1.87,6.133,6.133,0,0,1,1.836,4.255v.24a8.4,8.4,0,0,1-.377,2.711,5.11,5.11,0,0,1-2.127,2.848,15.347,15.347,0,0,1-3.843,1.424,2.851,2.851,0,0,0-1.064.583l-.223.36a1.713,1.713,0,0,0-.086.6H23.2" transform="translate(4.093 9.919)" fill="#fff"/>
    <path id="Path_355" data-name="Path 355" d="M41.878,24.412c0-1.578,2.23-3.243,2.23-4V19.66c0-2.162-2.8-5.01-4.975-5.01h-1a5.484,5.484,0,0,0-5.216,5.267V20.9c0,3.02,2.23,3.672,2.23,4.512l-.5.755c-3.4,0-6.279.755-9.2.738-2.145,0-8.7-.772-8.7,1.27,0,1.3.892,3.277,1.99,3.277H20c1.047,0,2.745-1.2,3.877-1.6,1.1-.377,3.5.086,5.061.086,2.556,0,4.77-.275,6.949-.24,3,0,4.221-.086,4.221,3v2.007c0,.824-1.9,2.762-2.728,2.762H35.89l-3.723-.309c.532,6.571,13.657,3.243,13.657-.686V34.466l-.583-5.25c5.439-.017,9.539-2.608,9.539-8.029-1.081.292-2.23,2.4-2.488,3.517A11.168,11.168,0,0,0,48.329,26.2c-.6.755-1.613,2.488-3,2.488h-1c-.909,0-2.488-1.716-2.488-3v-1.27" transform="translate(11.994 10.485)" fill="#162b75" fill-rule="evenodd"/>
    <path id="Path_356" data-name="Path 356" d="M42.207,24.77h-.858a3.458,3.458,0,0,1,.446-1.6,10.746,10.746,0,0,1,1.27-1.75c.189-.24.36-.463.446-.6l.086-.137.309.069H43.6l.017-.086.292.086H43.6V20a3.053,3.053,0,0,0-.377-1.287,6.071,6.071,0,0,0-1.733-2.025,3.739,3.739,0,0,0-2.025-.841h-1a4.367,4.367,0,0,0-3.02,1.373,4.448,4.448,0,0,0-1.338,3.054v.978a3.984,3.984,0,0,0,.275,1.527,4.232,4.232,0,0,0,1,1.373c.189.206.377.377.566.6l.257.429a1.46,1.46,0,0,1,.137.583,1,1,0,0,1-.086.377l-.172.309-.24.343-.154.223-.257.36H35c-3.243,0-6.056.755-9.11.755H25.8c-1,0-2.745-.154-4.392-.154a12.3,12.3,0,0,0-2.762.24,1.87,1.87,0,0,0-.652.275l-.034.051h-.017a3.774,3.774,0,0,0,.48,1.716,1.96,1.96,0,0,0,.429.549l.223.137h1.252a2.14,2.14,0,0,0,.6-.154,11.438,11.438,0,0,0,1.458-.669,12.828,12.828,0,0,1,1.561-.738,4.753,4.753,0,0,1,1.493-.172,19.689,19.689,0,0,1,2.007.12c.686.069,1.321.1,1.819.1,2.453,0,4.6-.24,6.811-.24h.137c.738,0,1.39,0,1.973.051a3.778,3.778,0,0,1,1.252.24,2.269,2.269,0,0,1,.841.463,2.613,2.613,0,0,1,.789,1.321,6.911,6.911,0,0,1,.189,1.8v2.007a2.016,2.016,0,0,1-.137.669,3.787,3.787,0,0,1-.583.978A7.408,7.408,0,0,1,39.273,38a4.662,4.662,0,0,1-.721.463,2.1,2.1,0,0,1-.858.223H36.168l-3.757-.292.069-.875.841-.069a3,3,0,0,0,.412,1.338,3.05,3.05,0,0,0,1.527,1.2,6.823,6.823,0,0,0,2.488.395,12.145,12.145,0,0,0,5.267-1.252,6.389,6.389,0,0,0,1.75-1.252,1.735,1.735,0,0,0,.549-1.064V34.858L44.626,28.7h.961a10.079,10.079,0,0,0,6.279-1.8,6.007,6.007,0,0,0,1.75-2.179,7.473,7.473,0,0,0,.652-3.174h.858l.223.824-.429.309a5.035,5.035,0,0,0-.909,1.27,5.39,5.39,0,0,0-.532,1.287l-.137.6-.618.069a2.881,2.881,0,0,0-.772.172,12.441,12.441,0,0,0-1.75.6c-.257.1-.5.223-.669.309l-.189.12-.017.017-.189-.223.223.172-.034.051-.189-.223.223.172v0a14.308,14.308,0,0,1-1.27,1.6,4.921,4.921,0,0,1-1.012.824,2.8,2.8,0,0,1-1.39.395h-1a2.422,2.422,0,0,1-1.235-.429,5.63,5.63,0,0,1-1.407-1.441,3.875,3.875,0,0,1-.7-2.007V24.753h1.7v1.252a1.667,1.667,0,0,0,.172.652,3.821,3.821,0,0,0,.841,1.115l.446.326.137.069h.034v0h0v0h1A1.116,1.116,0,0,0,46.222,28a3.472,3.472,0,0,0,.944-.892c.309-.377.583-.772.841-1.115v0l.446-.377a7.744,7.744,0,0,1,.926-.463c.532-.223,1.132-.446,1.681-.618a9.7,9.7,0,0,1,1.493-.36l.069.875-.806-.24a8.065,8.065,0,0,1,1.064-2.316,8.619,8.619,0,0,1,.858-1.1,2.608,2.608,0,0,1,1.167-.7l1.081-.292V21.51a9.283,9.283,0,0,1-.806,3.895,7.9,7.9,0,0,1-3.809,3.775,12.985,12.985,0,0,1-5.765,1.2V29.54l.841-.1.6,5.3v2.076a3.355,3.355,0,0,1-1,2.248,9.466,9.466,0,0,1-3.6,2.179,13.839,13.839,0,0,1-4.65.841,7.441,7.441,0,0,1-4-.978,4.395,4.395,0,0,1-1.441-1.424,4.936,4.936,0,0,1-.669-2.093l-.086-1,4.684.36h1.458v.223l-.034-.223h.034v.223l-.034-.223v0a1.293,1.293,0,0,0,.48-.275,5.383,5.383,0,0,0,1.047-1.029l.326-.463.069-.154V35l.172.051h-.189V35l.189.051h-.189V33.04a5.057,5.057,0,0,0-.172-1.475.756.756,0,0,0-.257-.377,1.708,1.708,0,0,0-.909-.24,17.106,17.106,0,0,0-2.042-.069h-.12c-2.076,0-4.272.24-6.811.24-.618,0-1.287-.051-1.956-.1-.669-.069-1.338-.137-1.887-.137a4.349,4.349,0,0,0-.944.1,17.637,17.637,0,0,0-1.87.909,9.1,9.1,0,0,1-1.115.48,3.821,3.821,0,0,1-1.167.24H19.114a2,2,0,0,1-1.3-.532,4.322,4.322,0,0,1-1.115-1.647,5.432,5.432,0,0,1-.395-1.939,1.914,1.914,0,0,1,.189-.806,2.3,2.3,0,0,1,.944-.875,5.257,5.257,0,0,1,1.853-.463,17.726,17.726,0,0,1,2.162-.1c1.733,0,3.534.137,4.392.137h.086c2.728.017,5.593-.738,9.11-.755V26.5l-.7-.5.309-.429.1-.137.275.154-.292-.1.017-.051.275.154-.292-.1.652.24h-.721l.051-.24.652.24h-.377l-.326.137v-.1h.326l-.326.1.189-.069-.172.1-.017-.034.189-.069-.172.1h0a2.331,2.331,0,0,0-.377-.429,6.6,6.6,0,0,1-1.2-1.493,5.368,5.368,0,0,1-.686-2.728v-.978A6.085,6.085,0,0,1,34.263,16a6,6,0,0,1,4.221-1.853h1a4.322,4.322,0,0,1,2.093.583,7.462,7.462,0,0,1,2.556,2.248A5.219,5.219,0,0,1,45.3,20v.755a1.5,1.5,0,0,1-.189.7,9.032,9.032,0,0,1-.6.892c-.343.429-.738.892-1.012,1.3a2.249,2.249,0,0,0-.429,1.1h-.858" transform="translate(11.665 10.127)" fill="#fff"/>
    <path id="Path_357" data-name="Path 357" d="M25.483,14.07h-.738c-2.213,0-2.762-1.2-4.083-2.145L17.11,15.357l.189.206a7.12,7.12,0,0,1,6.966,6.76v1.252a6.577,6.577,0,0,1-.5,2.2l2.985.309c1.235.137,4.221-.377,4.221-1.51l-.051-.24.051-6.245C32.225,16.2,34.4,13.538,37.218,13.3l-.789-2.2-5.713-.532c-1.2,1.733-2.282,3.5-5.233,3.5" transform="translate(12.245 7.565)" fill="#162b75" fill-rule="evenodd"/>
    <path id="Path_358" data-name="Path 358" d="M25.991,14.464V15.3h-.738a4.7,4.7,0,0,1-2.865-.875c-.686-.48-1.132-1.029-1.7-1.424l.48-.686.583.618L18.2,16.368l-.583-.618.618-.583.189.206-.618.583v-.841a7.907,7.907,0,0,1,5.439,2.265,7.578,7.578,0,0,1,2.368,5.336v1.252a4.433,4.433,0,0,1-.206,1.441c-.12.377-.223.618-.309.978l-.824-.223.086-.841,2.985.309h.377a6.761,6.761,0,0,0,2.127-.326,2.826,2.826,0,0,0,.721-.343l.069-.069v-.017l.017.017-.017-.017.017.017-.017-.017.189.086h-.206l.017-.086.189.086h.652l-.841.172-.051-.24-.017-.086.051-6.605.137-.223a15.638,15.638,0,0,1,2.694-3.157,7.375,7.375,0,0,1,4.2-1.99l.069.841-.806.292-.618-1.7L31.138,11.8l.086-.875.7.48a10.867,10.867,0,0,1-2.11,2.574,5.779,5.779,0,0,1-3.809,1.287V13.554a3.959,3.959,0,0,0,2.728-.892,9.53,9.53,0,0,0,1.784-2.248l.275-.395,6.76.618L38.893,14.4l-1.1.086a6.037,6.037,0,0,0-3.243,1.561,15.451,15.451,0,0,0-2.385,2.848l-.7-.463H32.3l-.051,6.159.034.172.017.069v.086a1.53,1.53,0,0,1-.223.806,2.483,2.483,0,0,1-.926.824,6.25,6.25,0,0,1-1.733.583,8.053,8.053,0,0,1-1.733.206l-.566-.051.1-.841-.086.841-3.946-.395.223-.926a11.071,11.071,0,0,1,.343-1.1,3.1,3.1,0,0,0,.12-.926V22.682a5.772,5.772,0,0,0-1.853-4.1,6.169,6.169,0,0,0-4.255-1.819h-.343l-.446-.446L16.4,15.7l4.667-4.512.566.429c.755.532,1.235,1.064,1.716,1.407a2.909,2.909,0,0,0,1.887.549h.738v.892" transform="translate(11.737 7.171)" fill="#fff"/>
    <path id="Path_359" data-name="Path 359" d="M25.822,41.692h2.23c.618-.446,1.99-.841,1.99-1.75v-1.75c0-1.132-1.887-6.245-2.248-7.772-2.179.515-2.419,1.75-6.468,1.75h-.5L14.4,31.415c-.48-.069-1.235,5.456-1.235,6.245V38.69c0,1.047,2.282,1.493,3.483,1.493h.738c1.235,0,2.23-1.252,2.728-2.007l.36-4.032.875.017c1.235,0,1.836,2.831,1.973,4.032.48,4.392.6,1.819,2.5,3.5" transform="translate(9.418 21.771)" fill="#162b75" fill-rule="evenodd"/>
    <path id="Path_360" data-name="Path 360" d="M26.187,42.121v-.875h2.23v.875l-.48-.721a4.393,4.393,0,0,1,.669-.377,5.373,5.373,0,0,0,.789-.5l.137-.154V38.6a2.035,2.035,0,0,0-.051-.429c-.172-.772-.635-2.265-1.081-3.654-.223-.721-.446-1.407-.635-2.007s-.343-1.115-.429-1.493l.824-.206.206.824a4.74,4.74,0,0,0-1.184.446,15.989,15.989,0,0,1-1.956.875,10.723,10.723,0,0,1-3.517.463H21.16l-6.52-.755h0l.1-.772V32.7l-.1-.017.1-.772v.034l.412.652-.412.137v-.772l.412.652-.292-.446.463.275-.172.172-.292-.446.463.275v.017l-.137.395a26.82,26.82,0,0,0-.566,2.985c-.086.549-.154,1.064-.189,1.493-.051.395-.069.738-.069.806V39.17h-.1l.086-.069.017.069h-.1l.086-.069.069.069a2.97,2.97,0,0,0,1.115.446,6.192,6.192,0,0,0,1.475.206h.738l.515-.137a3.185,3.185,0,0,0,.841-.652,7,7,0,0,0,.669-.875l.7.48-.841-.086.429-4.8,1.664.051-.017.841v-.909a1.866,1.866,0,0,1,.858.24,2.828,2.828,0,0,1,.926,1,7.8,7.8,0,0,1,.721,1.87,12.115,12.115,0,0,1,.309,1.7,16.185,16.185,0,0,0,.309,2.025l.051.172-.12.069.1-.086.017.017-.12.069.1-.086-.326.24.206-.36.12.1-.326.24.206-.36-.189.326.086-.377.1.051-.189.326.086-.377-.017.1.017-.1h0l-.017.1.017-.1.206.017a3.193,3.193,0,0,1,.824.172,3.819,3.819,0,0,1,1.064.686l-.549.721v0l-.549.618a1.547,1.547,0,0,0-.755-.429,3.466,3.466,0,0,0-.463-.069l-.343-.086a1.222,1.222,0,0,1-.618-.48,3.08,3.08,0,0,1-.377-1.1c-.086-.463-.154-1.047-.257-1.87a9.389,9.389,0,0,0-.515-2.248,3.121,3.121,0,0,0-.446-.875l-.154-.154h0v0h0v0h-.1l-.326,3.449-.12.172a6.989,6.989,0,0,1-1.252,1.475,4.965,4.965,0,0,1-.961.652,3.181,3.181,0,0,1-1.235.275h-.738a8.388,8.388,0,0,1-2.471-.395,3.434,3.434,0,0,1-1.167-.6,2.981,2.981,0,0,1-.48-.549,1.531,1.531,0,0,1-.206-.772V38.107a3.967,3.967,0,0,1,.034-.583c.086-.824.275-2.265.5-3.534a16.326,16.326,0,0,1,.377-1.7,5.789,5.789,0,0,1,.223-.652l.223-.343.257-.206.463-.1h.12l-.086.858.1-.841,6.417.738h.446a12.44,12.44,0,0,0,2.248-.172,6.6,6.6,0,0,0,1.9-.721,9.016,9.016,0,0,1,2.11-.824l.841-.206.189.824c.069.343.257.926.48,1.63.343,1.064.772,2.385,1.115,3.534.189.583.343,1.132.446,1.6a5.953,5.953,0,0,1,.137.618l.051.583v1.75a1.787,1.787,0,0,1-.412,1.132,3.036,3.036,0,0,1-1.115.841c-.36.206-.686.377-.806.463l-.223.172H25.878l-.24-.223.549-.618" transform="translate(9.053 21.342)" fill="#fff"/>
    <path id="Path_361" data-name="Path 361" d="M32.326,39.914c0-2.453-.086-6.022,1.252-7.017l1.527,3.74a11.346,11.346,0,0,0,1.7.275h1.99c.755,0,1.99-.48,1.99-1.27,0-1.561-1.252-3.088-1.252-5.01V29.38c-1.39.377-3.895,2.248-6.211,2.248H29.855c-1.578,0-2.608-1.407-3.74-1.493v1.75c0,2.385-1.235,5.422-1.235,7.772a7.03,7.03,0,0,0,3.98,1.252H29.6a4.03,4.03,0,0,0,2.728-1" transform="translate(17.806 21.027)" fill="#162b75" fill-rule="evenodd"/>
    <path id="Path_362" data-name="Path 362" d="M32.684,40.372h-.841v-.961a27.2,27.2,0,0,1,.189-3.723,7.951,7.951,0,0,1,.429-1.7,2.9,2.9,0,0,1,.978-1.338L34.314,32l1.939,4.735-.789.326.086-.841c.446.051.738.137.926.172a2.19,2.19,0,0,0,.686.069h1.99a2.2,2.2,0,0,0,.875-.223l.257-.206.017-.017.086.051h-.1l.017-.051.086.051h-.1a5.922,5.922,0,0,0-.566-2.076,8.119,8.119,0,0,1-.669-2.934V29.8h.841l.223.824a7.4,7.4,0,0,0-1.081.463c-.686.309-1.527.772-2.419,1.167a7.9,7.9,0,0,1-2.934.669H30.213a4.645,4.645,0,0,1-2.471-.841c-.309-.172-.583-.36-.806-.5a1.471,1.471,0,0,0-.515-.172l.069-.841h.841v1.75a20.145,20.145,0,0,1-.635,4.1,17.438,17.438,0,0,0-.6,3.672h-.841l.395-.755c.652.343,1.132.618,1.63.824a5.108,5.108,0,0,0,1.956.326h.738a3.134,3.134,0,0,0,1.235-.24,7.361,7.361,0,0,0,1.029-.618l.446.738h0l.463.7a9.422,9.422,0,0,1-1.287.772,4.77,4.77,0,0,1-1.9.36h-.738a6.884,6.884,0,0,1-2.574-.429,14.664,14.664,0,0,1-1.8-.892l-.463-.24v-.515a19.9,19.9,0,0,1,.652-4.049,18.5,18.5,0,0,0,.6-3.723V29.666l.909.086a2.592,2.592,0,0,1,1.167.36c.5.275.909.583,1.321.772a2.483,2.483,0,0,0,1.184.36h3.466a7.572,7.572,0,0,0,3.088-.909c.532-.24,1.047-.515,1.51-.755a7.075,7.075,0,0,1,1.39-.549l1.064-.292v2.368a6.809,6.809,0,0,0,.566,2.333,7.675,7.675,0,0,1,.669,2.676,1.69,1.69,0,0,1-.395,1.081,2.728,2.728,0,0,1-1.184.772,3.7,3.7,0,0,1-1.27.24h-1.99a6.991,6.991,0,0,1-1.1-.1,3.881,3.881,0,0,0-.7-.154l-.5-.051-1.716-4.221.789-.309.48.686a1.341,1.341,0,0,0-.395.6,7.772,7.772,0,0,0-.412,2.11c-.069.841-.086,1.784-.086,2.642v1.424l-.377.24-.429-.7" transform="translate(17.448 20.569)" fill="#fff"/>
    <path id="Path_363" data-name="Path 363" d="M5.92,16.249v2.745l2.488,3.5c1.63,0,2.4.755,3.225.755,2.556,0,4.975-2.676,4.975-5.267V16.49c0-2.316-2.5-4.77-5.216-4.77h-.515c-3.466,0-3.826,2.848-4.958,4.529" transform="translate(4.236 8.388)" fill="#162b75" fill-rule="evenodd"/>
    <path id="Path_364" data-name="Path 364" d="M6.278,16.593h.858v2.471l2.316,3.294-.686.48V22a5.647,5.647,0,0,1,2.2.429c.275.086.48.172.669.24l.36.086a4.055,4.055,0,0,0,2.831-1.407,4.607,4.607,0,0,0,1.3-3.02V16.833A3.74,3.74,0,0,0,14.8,14.225a4.318,4.318,0,0,0-3.054-1.287h-.515a3.4,3.4,0,0,0-1.681.36,3.558,3.558,0,0,0-1.39,1.527c-.395.686-.7,1.493-1.2,2.248l-.686-.48h0l-.686-.48c.48-.686.858-1.819,1.63-2.9a4.671,4.671,0,0,1,1.561-1.424,5.18,5.18,0,0,1,2.488-.549h.463a6.264,6.264,0,0,1,4.2,1.733A5.425,5.425,0,0,1,17.79,16.85v1.493a6.288,6.288,0,0,1-1.75,4.2,5.682,5.682,0,0,1-4.049,1.922,2.765,2.765,0,0,1-.892-.154,6.065,6.065,0,0,0-2.333-.583H8.32l-2.9-4.1V16.318l.154-.223.7.5" transform="translate(3.879 8.044)" fill="#fff"/>
    <path id="Path_365" data-name="Path 365" d="M33.14,15.394v1a5.071,5.071,0,0,0,4.718,5.01h.48c1.493,0,2.985-2.248,3.74-2.762,0-1.578.5-1.544.5-2.248,0-2.951-1.784-6.279-4.478-6.279-2.985.017-4.958,2.23-4.958,5.284" transform="translate(23.717 7.236)" fill="#162b75" fill-rule="evenodd"/>
    <path id="Path_366" data-name="Path 366" d="M33.5,15.738h.841v1A4.353,4.353,0,0,0,35.53,19.6a3.807,3.807,0,0,0,2.694,1.27h.48a1.559,1.559,0,0,0,.686-.223,8.958,8.958,0,0,0,1.338-1.184c.223-.223.429-.446.618-.652a3.171,3.171,0,0,1,.635-.549l.48.721H41.6a5.082,5.082,0,0,1,.1-1.1,4.132,4.132,0,0,1,.326-.926l.069-.223A7.184,7.184,0,0,0,41,12.958a4.115,4.115,0,0,0-1.167-1.2,2.362,2.362,0,0,0-1.373-.429,3.985,3.985,0,0,0-3,1.2,4.691,4.691,0,0,0-1.132,3.208h-1.7a6.346,6.346,0,0,1,1.6-4.375A5.7,5.7,0,0,1,38.446,9.63a4.36,4.36,0,0,1,2.3.686A6.634,6.634,0,0,1,42.993,13.1a8.916,8.916,0,0,1,.789,3.654,1.95,1.95,0,0,1-.137.738c-.12.309-.189.395-.257.549a3.234,3.234,0,0,0-.1.961v.446l-.377.275a2.669,2.669,0,0,0-.549.532,20.027,20.027,0,0,1-1.475,1.441,5.576,5.576,0,0,1-.978.618,2.756,2.756,0,0,1-1.2.292h-.48a5.326,5.326,0,0,1-3.929-1.819,6.088,6.088,0,0,1-1.647-4.032v-1H33.5" transform="translate(23.352 6.892)" fill="#fff"/>
    <path id="Path_367" data-name="Path 367" d="M16.674,30.815c-1.252-1.733-5.9-3.551-6.211-7.275,1.99.172,4.615,6.279,8.7,6.279h1v-1c0-1.819-.566-2.762-2.471-2.762-2.368,0-2.333-.515-3.689-1.544C11.15,22.356,10.309,22.7,6.5,21.79v1.029l.549,7.257c2.162.6,2.968,1.51,6.176,1.51h.5a5.939,5.939,0,0,0,2.951-.772" transform="translate(4.651 15.595)" fill="#162b75" fill-rule="evenodd"/>
    <path id="Path_368" data-name="Path 368" d="M17.032,31.258l-.686.515a7.04,7.04,0,0,0-1.287-1.184,24.948,24.948,0,0,1-3.071-2.522,6.675,6.675,0,0,1-2.007-4l-.086-1,1,.069a2.494,2.494,0,0,1,1.184.463,9.678,9.678,0,0,1,1.681,1.6,30.469,30.469,0,0,0,2.728,2.848,5.586,5.586,0,0,0,1.493.978,3.591,3.591,0,0,0,1.544.377h.154v-.154a5.1,5.1,0,0,0-.086-1,1.116,1.116,0,0,0-.395-.669,1.908,1.908,0,0,0-1.15-.24h-.017l.017-.841v.841h-.017a7.9,7.9,0,0,1-1.527-.1,3.2,3.2,0,0,1-1.527-.652c-.395-.309-.669-.6-1.15-.961a8.871,8.871,0,0,0-3.105-1.7c-.944-.275-2.127-.395-4.066-.875l.189-.841h.841v.978l.549,7.223-.841.069.223-.824c1.167.309,1.939.721,2.745,1a9.2,9.2,0,0,0,3.208.463h.5a4.864,4.864,0,0,0,2.591-.652l.377.789-.686.515.686-.515.395.755a6.863,6.863,0,0,1-3.38.841h-.5a10.554,10.554,0,0,1-3.757-.583c-.944-.309-1.647-.686-2.625-.961l-.583-.137L6,23.28V21.17l1.029.24c1.87.446,3.02.583,4.152.892a10.964,10.964,0,0,1,3.672,1.973c.377.292.635.515.858.7a2.965,2.965,0,0,0,.755.5,4.859,4.859,0,0,0,1.561.154h.017v0a4.441,4.441,0,0,1,1.475.223,3.078,3.078,0,0,1,.892.532,2.947,2.947,0,0,1,.772,1.287,5.941,5.941,0,0,1,.189,1.578V31.1H19.537a5.748,5.748,0,0,1-3.26-1.081,20.784,20.784,0,0,1-3.517-3.4c-.48-.532-.909-1-1.27-1.338l-.463-.326-.24-.086L10.855,24l.841-.069a4.191,4.191,0,0,0,.772,2.042,12.541,12.541,0,0,0,2.659,2.539c.5.377,1,.738,1.441,1.115a6.668,6.668,0,0,1,1.167,1.132l.583.806-.875.463-.412-.772" transform="translate(4.294 15.151)" fill="#fff"/>
    <path id="Path_369" data-name="Path 369" d="M16.056,31.19l-.069-3c-1.39.017-1.373.48-2.728.48H11.767a35.921,35.921,0,0,1-3.74-.738c-.326,4.015-2.11,10.02,2.985,10.02H13c1.047,0,1.63-.755,2.694-1.029l.36-5.73" transform="translate(5.338 19.989)" fill="#162b75" fill-rule="evenodd"/>
    <path id="Path_370" data-name="Path 370" d="M16.4,31.634l-.841.017-.069-3.02h.841l.017.841a2.81,2.81,0,0,0-1.115.223,4.311,4.311,0,0,1-1.63.292H12.11a4.741,4.741,0,0,1-.909-.12c-1.012-.172-2.436-.532-3-.669l.189-.824.841.069c-.137,1.819-.566,3.963-.549,5.679a4.728,4.728,0,0,0,.549,2.539,1.746,1.746,0,0,0,.738.618,3.438,3.438,0,0,0,1.424.24h1.99a1.86,1.86,0,0,0,.944-.292,6.015,6.015,0,0,1,1.544-.686l.206.824-.841-.051.36-5.748.806.069-.841.017.841-.017.841.051-.395,6.382-.618.154a4.428,4.428,0,0,0-1.132.532,3.78,3.78,0,0,1-1.75.48H11.372a4.782,4.782,0,0,1-2.11-.395,3.59,3.59,0,0,1-1.853-2.007,7.43,7.43,0,0,1-.429-2.711c0-1.973.429-4.135.583-5.833l.086-.978.944.223c.395.086,1.15.292,1.887.446.377.069.738.154,1.029.206.309.051.549.086.618.086H13.62a2.636,2.636,0,0,0,1.064-.206,5.574,5.574,0,0,1,1.647-.309l.841-.017.086,3.912v.017l-.858-.034" transform="translate(4.995 19.545)" fill="#fff"/>
    <path id="Path_371" data-name="Path 371" d="M24.96,5.89H22.713c-1.63,1.132-3.483,1.7-3.483,4.77v1.252a4.637,4.637,0,0,0,4.478,4.255c2.076,0,4.478-2.076,4.478-4V9.888c0-2.213-2.162-3.071-3.225-4" transform="translate(13.762 4.215)" fill="#162b75" fill-rule="evenodd"/>
    <path id="Path_372" data-name="Path 372" d="M25.318,6.248v.841H23.071V6.248l.48.686A18.234,18.234,0,0,0,21.3,8.513a2.509,2.509,0,0,0-.618.909A4.25,4.25,0,0,0,20.429,11v1.252a3.161,3.161,0,0,0,1.15,2.333,3.761,3.761,0,0,0,2.471,1.064,4.391,4.391,0,0,0,3.328-2.11,2.247,2.247,0,0,0,.309-1.047V10.245a2.075,2.075,0,0,0-.257-1.029,3.613,3.613,0,0,0-1.15-1.2c-.5-.377-1.047-.721-1.544-1.132l.583-.635v0l.549-.652c.412.377,1.252.824,2.025,1.51a5.148,5.148,0,0,1,1.029,1.287,3.754,3.754,0,0,1,.463,1.853v2.248a3.784,3.784,0,0,1-.515,1.87,6.257,6.257,0,0,1-2.025,2.11,5.234,5.234,0,0,1-2.779.892,5.47,5.47,0,0,1-3.637-1.51,5.062,5.062,0,0,1-1.7-3.6V11a5.927,5.927,0,0,1,.377-2.2,4.6,4.6,0,0,1,1.63-2.042c.635-.48,1.287-.824,1.836-1.218L22.8,5.39H25.61l.24.223-.532.635" transform="translate(13.404 3.858)" fill="#fff"/>
    <path id="Path_373" data-name="Path 373" d="M29.08,11.38v1.75c0,1.819,2.4,4.255,4.238,4.255h.738c1.132,0,1.064-4.512,4.221-5.25,0-2.779-1.887-5.525-4.221-5.525a4.939,4.939,0,0,0-4.976,4.77" transform="translate(20.812 4.731)" fill="#162b75" fill-rule="evenodd"/>
    <path id="Path_374" data-name="Path 374" d="M29.438,11.73H30.3v1.75A2.1,2.1,0,0,0,30.6,14.51a4.915,4.915,0,0,0,1.441,1.664,3.046,3.046,0,0,0,1.63.721h.738v.429l-.189-.377.189-.051v.429l-.189-.377.137.24-.189-.223.051-.017.137.24-.189-.223.051.069-.069-.069h0l.051.069-.069-.069a4.2,4.2,0,0,0,.377-.772A13.436,13.436,0,0,1,35.666,13.7a5.387,5.387,0,0,1,1.1-1.252,4.19,4.19,0,0,1,1.664-.806l.189.841h-.841a5.622,5.622,0,0,0-1.064-3.277,3.7,3.7,0,0,0-1.1-1.047A2.447,2.447,0,0,0,34.4,7.8a4.3,4.3,0,0,0-2.9,1.15,3.849,3.849,0,0,0-1.218,2.762h-1.7a5.523,5.523,0,0,1,1.767-4A5.935,5.935,0,0,1,34.4,6.12a4.108,4.108,0,0,1,2.076.583,5.957,5.957,0,0,1,2.179,2.419,7.368,7.368,0,0,1,.806,3.363v.669l-.652.154a2.515,2.515,0,0,0-1.373.875,8.147,8.147,0,0,0-1.235,2.4,7.487,7.487,0,0,1-.532,1.184,2.447,2.447,0,0,1-.446.532,1.413,1.413,0,0,1-.824.309h-.738A4.2,4.2,0,0,1,31.84,18.1a7.062,7.062,0,0,1-2.213-1.939A4.8,4.8,0,0,1,28.6,13.48V11.73h.841" transform="translate(20.454 4.38)" fill="#fff"/>
    <path id="Path_375" data-name="Path 375" d="M9.54,13.1c2.642.206,5.507,2.676,5.713,5.25,1.784-.051,3.723-2.248,3.723-4.015V12.847A4.774,4.774,0,0,0,14.258,8.06c-2.8.017-4.512,2.453-4.718,5.044" transform="translate(6.827 5.768)" fill="#162b75" fill-rule="evenodd"/>
    <path id="Path_376" data-name="Path 376" d="M9.912,13.455l.069-.841a7.441,7.441,0,0,1,4.255,1.956,6.371,6.371,0,0,1,2.23,4.066l-.841.069-.017-.875a2.056,2.056,0,0,0,.944-.275,4.236,4.236,0,0,0,1.39-1.321,2.954,2.954,0,0,0,.566-1.561V13.18a3.95,3.95,0,0,0-1.132-2.762A3.742,3.742,0,0,0,14.63,9.251,3.4,3.4,0,0,0,11.937,10.5a5.215,5.215,0,0,0-1.184,2.985l-.841-.034.069-.841-.069.841-.841-.069a6.8,6.8,0,0,1,1.6-3.963A5.231,5.231,0,0,1,14.63,7.57,5.631,5.631,0,0,1,20.206,13.2V14.69a5.053,5.053,0,0,1-1.424,3.225,5.916,5.916,0,0,1-1.407,1.132,3.773,3.773,0,0,1-1.716.515h-.789l-.069-.806a4.632,4.632,0,0,0-1.664-2.934,5.859,5.859,0,0,0-3.277-1.544L9.02,14.21l.069-.841.824.086" transform="translate(6.455 5.418)" fill="#fff"/>
    <path id="Path_377" data-name="Path 377" d="M40.878,25.44c-1.39.309-2.471,1.27-4.015,1.27H35.13l-.6,5.49.086,1.51.275,2.248h1.956A4.528,4.528,0,0,0,40.26,34.7l.618-9.265" transform="translate(24.712 18.207)" fill="#162b75" fill-rule="evenodd"/>
    <path id="Path_378" data-name="Path 378" d="M41.229,25.891l.189.841a10,10,0,0,0-1.8.686,5.893,5.893,0,0,1-2.4.583h-.978l-.5,4.65.1,1.424.172,1.458h1.218a4.244,4.244,0,0,0,1.681-.24,8.278,8.278,0,0,0,1.252-.841l.48.7-.841-.069.6-9.265.824.069.189.841-.189-.841.858.069-.618,9.659-.326.24a10.631,10.631,0,0,1-1.527,1,6.05,6.05,0,0,1-2.385.395H34.52l-.377-3.02-.1-1.6.686-6.348h2.5a4.3,4.3,0,0,0,1.733-.429,10.46,10.46,0,0,1,2.093-.806l1.115-.24L42.1,25.942l-.875-.051" transform="translate(24.362 17.756)" fill="#fff"/>
    <path id="Path_379" data-name="Path 379" d="M37.866,18.257v.755c-1.7.137-5.456,2.453-5.456,4.512v1.252c0,.755.738.978,1.493.978h.24c1,0,1.9-1.51,1.99-2.488,5.044-.1,4.392-4.2,6.468-4.77V16.25c-1.51,1.029-2.042,2.007-4.735,2.007" transform="translate(23.195 11.63)" fill="#162b75" fill-rule="evenodd"/>
    <path id="Path_380" data-name="Path 380" d="M38.217,18.923h.858V20.45l-.772.069a4.5,4.5,0,0,0-1.3.395,10.276,10.276,0,0,0-2.385,1.578,5,5,0,0,0-.772.926,1.575,1.575,0,0,0-.24.755v1.252l.017.017-.051.017.034-.017h.017l-.051.017.034-.017h.034a1.24,1.24,0,0,0,.618.1h.24l.24-.086a2.48,2.48,0,0,0,.6-.738,2.784,2.784,0,0,0,.292-.892l.069-.772h.755a4.66,4.66,0,0,0,2.436-.6,4.644,4.644,0,0,0,1.681-2.025,14.023,14.023,0,0,1,.772-1.2,2.734,2.734,0,0,1,1.373-.909l.223.824h-.841V16.9h.841l.463.721c-.686.446-1.2.978-1.973,1.424a6.151,6.151,0,0,1-3.225.721v-.841h.017v-.841a4.619,4.619,0,0,0,2.385-.515c.532-.292,1.047-.806,1.87-1.355l1.321-.892v4.512L43.158,20l-.326.154a3.62,3.62,0,0,0-.652.961,8.261,8.261,0,0,1-1.716,2.316A5.976,5.976,0,0,1,36.5,24.791l-.017-.875.858.069a4.246,4.246,0,0,1-.824,2.076,3.413,3.413,0,0,1-.824.824,2.136,2.136,0,0,1-1.2.395h-.24a3.125,3.125,0,0,1-1.441-.309,1.917,1.917,0,0,1-.635-.6,1.8,1.8,0,0,1-.257-.926V24.19a3.607,3.607,0,0,1,.789-2.093,9.331,9.331,0,0,1,2.608-2.23,10.586,10.586,0,0,1,1.475-.721,6.26,6.26,0,0,1,1.373-.36l.051.875h-.841v-1.6h.841v.858" transform="translate(22.844 10.964)" fill="#fff"/>
    <path id="Path_381" data-name="Path 381" d="M18.748,11.737c-.24,3-2.385,6.52-5.216,6.76v.978a11.713,11.713,0,0,1-1.252,3.775c0,1.064,1.475,3.654,2.488,3.74a6,6,0,0,1-1-3V22.735c0-5.078,9.436-10.02,9.436-11.77v-.24c0-.429-.154-.755-.5-.755-.532,0-2.848,1.493-3.963,1.767" transform="translate(8.788 7.135)" fill="#162b75" fill-rule="evenodd"/>
    <path id="Path_382" data-name="Path 382" d="M19.1,12.1l.841.069a10.059,10.059,0,0,1-1.8,4.855,7.049,7.049,0,0,1-1.819,1.819,5.088,5.088,0,0,1-2.385.875l-.069-.841h.841v.978a5.478,5.478,0,0,1-.223,1.407,18.074,18.074,0,0,1-1.115,2.762l-.755-.377h.858a2.117,2.117,0,0,0,.189.721,6.208,6.208,0,0,0,.892,1.561,2.876,2.876,0,0,0,.48.515l.154.1H15.2l-.034.12.017-.12H15.2l-.034.12.017-.12-.069.841-.755.429a7.03,7.03,0,0,1-1.1-3.431V23.127a7.172,7.172,0,0,1,1.647-4.221,30.044,30.044,0,0,1,5.113-5.027c.841-.721,1.561-1.338,2.059-1.819a4.587,4.587,0,0,0,.532-.6l.086-.154h.017l.206.069H22.7l.017-.069.206.069H22.7v-.36l.137-.051-.12.086L22.7,11l.137-.051-.12.086.343-.206-.206.309-.137-.1.343-.206-.206.309.206-.36V11.2l-.206-.069.206-.36v0l.069.429h-.069v-.429l.069.429-.017-.086.017.086h0l-.017-.086.017.086a4.046,4.046,0,0,0-.583.24c-.446.223-1.029.532-1.613.824a11.628,11.628,0,0,1-1.664.669L19.1,12.1l.841.069L19.1,12.1l-.189-.841a2.842,2.842,0,0,0,.841-.343c.549-.24,1.184-.583,1.733-.841a8.056,8.056,0,0,1,.789-.377l.36-.137.446-.086a1.224,1.224,0,0,1,.669.206,1.318,1.318,0,0,1,.566.686,2.287,2.287,0,0,1,.12.738v.24a1.449,1.449,0,0,1-.206.755,5.354,5.354,0,0,1-.841,1.1c-.618.618-1.458,1.3-2.368,2.093a35.98,35.98,0,0,0-4.1,3.826,10.825,10.825,0,0,0-1.407,2.076A4.316,4.316,0,0,0,15,23.127v1.252a5.4,5.4,0,0,0,.892,2.608l.721,1.407-1.544-.137a2.3,2.3,0,0,1-.755-.275,4.194,4.194,0,0,1-.961-.875,8.423,8.423,0,0,1-1.064-1.716,7.275,7.275,0,0,1-.343-.892,3.13,3.13,0,0,1-.154-.875v-.172l.069-.154.017-.051V23.23c.017-.051.309-.618.6-1.355a9.62,9.62,0,0,0,.395-1.115,3.822,3.822,0,0,0,.154-.909V18.066L13.8,18a3.292,3.292,0,0,0,1.578-.583A6.4,6.4,0,0,0,17.332,15.1a8.068,8.068,0,0,0,.909-3.071l.051-.618.6-.154.206.841" transform="translate(8.437 6.778)" fill="#fff"/>
    <path id="Path_383" data-name="Path 383" d="M36.58,27.7c1.613,0,5.473-1.973,5.473-3.243v-1.27A3.535,3.535,0,0,0,41.8,21.94c-3.895,2.642-1.561,1.939-7.206,3.243V27.7h1.99" transform="translate(24.755 15.702)" fill="#162b75" fill-rule="evenodd"/>
    <path id="Path_384" data-name="Path 384" d="M36.924,28.292v-.858a4.473,4.473,0,0,0,1.252-.275,11.976,11.976,0,0,0,2.436-1.218,4.043,4.043,0,0,0,.772-.686l.154-.206L41.556,25l.12.051h-.12V25l.12.051h-.12v-1.27a1,1,0,0,0-.051-.429c-.017-.086-.1-.292-.172-.618l.824-.206.463.721c-.961.652-1.51,1.064-1.922,1.407-.309.223-.549.429-.824.6a3.024,3.024,0,0,1-.669.326,34.234,34.234,0,0,1-4.066,1.047l-.189-.841h.858v1.647h1.15v1.716H34.11V25.118l.669-.154c1.407-.343,2.316-.532,2.934-.721a3.537,3.537,0,0,0,.944-.275l.377-.206c.377-.24,1-.824,2.659-1.956l1.029-.686.275,1.2c.051.223.086.309.154.532a3.242,3.242,0,0,1,.12.909v1.27a1.7,1.7,0,0,1-.292.926,4.832,4.832,0,0,1-1.167,1.2,12,12,0,0,1-2.436,1.355,8.344,8.344,0,0,1-1.252.429,4.552,4.552,0,0,1-1.15.172v-.824" transform="translate(24.412 15.115)" fill="#fff"/>
    <path id="Path_385" data-name="Path 385" d="M26.19,17c1.716-1.15,2.711-2.488,5.713-2.488h.24c2.762,0,3.723,1.733,5.284,2.711L36.6,14.243H34.871c-1.029,0-2.436-1.064-3.225-1.493-1.681,1.132-5.267,1.8-5.456,4.255" transform="translate(18.743 9.125)" fill="#162b75" fill-rule="evenodd"/>
    <path id="Path_386" data-name="Path 386" d="M26.6,17.42l-.48-.721c.806-.532,1.493-1.184,2.419-1.716a7.215,7.215,0,0,1,3.757-.926h.24a5.89,5.89,0,0,1,3.569,1.15c.875.618,1.493,1.287,2.162,1.716l-.446.721-.824.24-.652-2.35H35.262a3.108,3.108,0,0,1-1.132-.24,6.708,6.708,0,0,1-1.441-.738c-.429-.24-.806-.515-1.064-.618l.395-.755.48.721a11.721,11.721,0,0,1-1.664.875,13.26,13.26,0,0,0-2.419,1.252,3.24,3.24,0,0,0-.738.7,1.636,1.636,0,0,0-.292.806l-.789-.12-.48-.721.48.721-.841-.069a3.471,3.471,0,0,1,.926-2.042,8,8,0,0,1,2.608-1.716,17.961,17.961,0,0,0,2.3-1.132l.429-.292.446.24c.463.24,1,.618,1.544.909a6.167,6.167,0,0,0,.755.377,2.233,2.233,0,0,0,.549.1H37.7l1.561,5.748-1.836-1.184c-.909-.583-1.544-1.27-2.248-1.75a4.085,4.085,0,0,0-2.608-.841h-.24a5.23,5.23,0,0,0-2.917.721c-.738.395-1.39,1.029-2.333,1.647l-1.458.978.154-1.75.824.051" transform="translate(18.335 8.71)" fill="#fff"/>
    <path id="Path_387" data-name="Path 387" d="M28.916,21.41V19.9l.017.275-7.961.652-1.012.909,8.956-.326" transform="translate(14.285 14.242)" fill="#162b75" fill-rule="evenodd"/>
    <path id="Path_388" data-name="Path 388" d="M29.889,21.646h-.875v-1.51l1.716-.069.017.275.069.858-8.527.686-.789.7-.566-.618-.034-.858,8.939-.343.051.875h0l.017.841L18.6,22.916l3-2.676,8.235-.669.069.841-.858.069-.017-.292.858-.051h.841v2.3l-.824.051-.017-.841" transform="translate(13.311 14.006)" fill="#fff"/>
    <path id="Path_389" data-name="Path 389" d="M40.734,18.462v-1.99l-1.27-1.922-.223.154-.051,2.522.292,2.248.686-.034.566-.978" transform="translate(28.047 10.413)" fill="#162b75" fill-rule="evenodd"/>
    <path id="Path_390" data-name="Path 390" d="M41.092,18.956h-.858V17.223l-1.115-1.716.7-.463.48.721-.223.154L39.6,15.2l.841.034-.051,2.436.292,2.179-.841.12-.034-.841.223-.034.326-.549.738.412h0l.721.429-.789,1.373-1.922.1-.412-3.071.069-3.054,1.321-.875,1.853,2.831v2.488l-.12.206-.721-.429" transform="translate(27.69 9.919)" fill="#fff"/>
    <path id="Path_391" data-name="Path 391" d="M10.454,19.567l-.034.377,3.157,1.132.206-.172L12.6,18.4l-2.145,1.167" transform="translate(7.457 13.169)" fill="#162b75" fill-rule="evenodd"/>
    <path id="Path_392" data-name="Path 392" d="M10.841,20.053l.841.086-.034.377-.841-.086.275-.824,3.174,1.15-.292.806-.566-.6.172-.206.6.635-.772.377-.789-1.7-1.373.738-.395-.755.841.086-.841-.086-.395-.755,2.917-1.578L15.2,21.58l-1.012.961L9.88,20.98,10,19.968l.034-.446.412-.223.395.755" transform="translate(7.071 12.682)" fill="#fff"/>
    <path id="Path_393" data-name="Path 393" d="M22.852,28.377c0-4.272,7.7-.618,7.7-8.527v-.24a5.43,5.43,0,0,0-5.216-5.25h-.755c-2.213,0-4.958,2.625-4.958,4.255V21.1c0,2.093,2.11,3.243,2.488,4.272h-3.74c-4.5,0-8-3.243-9.453-3.243H8.44a12.793,12.793,0,0,0-1.733.24c-.154.686-.5,1.029-.5,1.493,0,2.831,3.311,2.23,5.559,2.917,2.213.669,3.449,2.23,5.113,3.363,3.62,0,4.975.429,4.975,4.255v.275a1.542,1.542,0,0,1-1.75,1.733H18.374v3.517c0,1.819,5.645,2.488,7.944,2.488,2.282,0,6.451-1.373,6.451-3.243v-1a5.828,5.828,0,0,0-.5-2.488l12.181.48a1.914,1.914,0,0,0,1.75-2.007V32.666a3.552,3.552,0,0,0-.257-1.27l-6.708.583-2.488-.069c-2.282,0-3.26-.841-5.13-.172a34.666,34.666,0,0,1-4.289,1.424h-.257a4.509,4.509,0,0,1-4.221-4.787" transform="translate(4.444 10.277)" fill="#162b75" fill-rule="evenodd"/>
    <path id="Path_394" data-name="Path 394" d="M41.878,24.412c0-1.578,2.23-3.243,2.23-4V19.66c0-2.162-2.8-5.01-4.975-5.01h-1a5.484,5.484,0,0,0-5.216,5.267V20.9c0,3.02,2.23,3.672,2.23,4.512l-.5.755c-3.4,0-6.279.755-9.2.738-2.145,0-8.7-.772-8.7,1.27,0,1.3.892,3.277,1.99,3.277H20c1.047,0,2.745-1.2,3.877-1.6,1.1-.377,3.5.086,5.061.086,2.556,0,4.77-.275,6.949-.24,3,0,4.221-.086,4.221,3v2.007c0,.824-1.9,2.762-2.728,2.762H35.89l-3.723-.309c.532,6.571,13.657,3.243,13.657-.686V34.466l-.583-5.25c5.439-.017,9.539-2.608,9.539-8.029-1.081.292-2.23,2.4-2.488,3.517A11.168,11.168,0,0,0,48.329,26.2c-.6.755-1.613,2.488-3,2.488h-1c-.909,0-2.488-1.716-2.488-3v-1.27" transform="translate(11.994 10.485)" fill="#162b75" fill-rule="evenodd"/>
    <path id="Path_395" data-name="Path 395" d="M25.483,14.07h-.738c-2.213,0-2.762-1.2-4.083-2.145L17.11,15.357l.189.206a7.12,7.12,0,0,1,6.966,6.76v1.252a6.577,6.577,0,0,1-.5,2.2l2.985.309c1.235.137,4.221-.377,4.221-1.51l-.051-.24.051-6.245C32.225,16.2,34.4,13.538,37.218,13.3l-.789-2.2-5.713-.532c-1.2,1.733-2.282,3.5-5.233,3.5" transform="translate(12.245 7.565)" fill="#162b75" fill-rule="evenodd"/>
    <path id="Path_396" data-name="Path 396" d="M25.822,41.692h2.23c.618-.446,1.99-.841,1.99-1.75v-1.75c0-1.132-1.887-6.245-2.248-7.772-2.179.515-2.419,1.75-6.468,1.75h-.5L14.4,31.415c-.48-.069-1.235,5.456-1.235,6.245V38.69c0,1.047,2.282,1.493,3.483,1.493h.738c1.235,0,2.23-1.252,2.728-2.007l.36-4.032.875.017c1.235,0,1.836,2.831,1.973,4.032.48,4.392.6,1.819,2.5,3.5" transform="translate(9.418 21.771)" fill="#162b75" fill-rule="evenodd"/>
    <path id="Path_397" data-name="Path 397" d="M32.326,39.914c0-2.453-.086-6.022,1.252-7.017l1.527,3.74a11.346,11.346,0,0,0,1.7.275h1.99c.755,0,1.99-.48,1.99-1.27,0-1.561-1.252-3.088-1.252-5.01V29.38c-1.39.377-3.895,2.248-6.211,2.248H29.855c-1.578,0-2.608-1.407-3.74-1.493v1.75c0,2.385-1.235,5.422-1.235,7.772a7.03,7.03,0,0,0,3.98,1.252H29.6a4.03,4.03,0,0,0,2.728-1" transform="translate(17.806 21.027)" fill="#162b75" fill-rule="evenodd"/>
    <path id="Path_398" data-name="Path 398" d="M5.92,16.249v2.745l2.488,3.5c1.63,0,2.4.755,3.225.755,2.556,0,4.975-2.676,4.975-5.267V16.49c0-2.316-2.5-4.77-5.216-4.77h-.515c-3.466,0-3.826,2.848-4.958,4.529" transform="translate(4.236 8.388)" fill="#162b75" fill-rule="evenodd"/>
    <path id="Path_399" data-name="Path 399" d="M33.14,15.394v1a5.071,5.071,0,0,0,4.718,5.01h.48c1.493,0,2.985-2.248,3.74-2.762,0-1.578.5-1.544.5-2.248,0-2.951-1.784-6.279-4.478-6.279-2.985.017-4.958,2.23-4.958,5.284" transform="translate(23.717 7.236)" fill="#162b75" fill-rule="evenodd"/>
    <path id="Path_400" data-name="Path 400" d="M16.674,30.815c-1.252-1.733-5.9-3.551-6.211-7.275,1.99.172,4.615,6.279,8.7,6.279h1v-1c0-1.819-.566-2.762-2.471-2.762-2.368,0-2.333-.515-3.689-1.544C11.15,22.356,10.309,22.7,6.5,21.79v1.029l.549,7.257c2.162.6,2.968,1.51,6.176,1.51h.5a5.939,5.939,0,0,0,2.951-.772" transform="translate(4.651 15.595)" fill="#162b75" fill-rule="evenodd"/>
    <path id="Path_401" data-name="Path 401" d="M16.056,31.19l-.069-3c-1.39.017-1.373.48-2.728.48H11.767a35.921,35.921,0,0,1-3.74-.738c-.326,4.015-2.11,10.02,2.985,10.02H13c1.047,0,1.63-.755,2.694-1.029l.36-5.73" transform="translate(5.338 19.989)" fill="#162b75" fill-rule="evenodd"/>
    <path id="Path_402" data-name="Path 402" d="M24.96,5.89H22.713c-1.63,1.132-3.483,1.7-3.483,4.77v1.252a4.637,4.637,0,0,0,4.478,4.255c2.076,0,4.478-2.076,4.478-4V9.888c0-2.213-2.162-3.071-3.225-4" transform="translate(13.762 4.215)" fill="#162b75" fill-rule="evenodd"/>
    <path id="Path_403" data-name="Path 403" d="M29.08,11.38v1.75c0,1.819,2.4,4.255,4.238,4.255h.738c1.132,0,1.064-4.512,4.221-5.25,0-2.779-1.887-5.525-4.221-5.525a4.939,4.939,0,0,0-4.976,4.77" transform="translate(20.812 4.731)" fill="#162b75" fill-rule="evenodd"/>
    <path id="Path_404" data-name="Path 404" d="M9.54,13.1c2.642.206,5.507,2.676,5.713,5.25,1.784-.051,3.723-2.248,3.723-4.015V12.847A4.774,4.774,0,0,0,14.258,8.06c-2.8.017-4.512,2.453-4.718,5.044" transform="translate(6.827 5.768)" fill="#162b75" fill-rule="evenodd"/>
    <path id="Path_405" data-name="Path 405" d="M40.878,25.44c-1.39.309-2.471,1.27-4.015,1.27H35.13l-.6,5.49.086,1.51.275,2.248h1.956A4.528,4.528,0,0,0,40.26,34.7l.618-9.265" transform="translate(24.712 18.207)" fill="#162b75" fill-rule="evenodd"/>
    <path id="Path_406" data-name="Path 406" d="M37.866,18.257v.755c-1.7.137-5.456,2.453-5.456,4.512v1.252c0,.755.738.978,1.493.978h.24c1,0,1.9-1.51,1.99-2.488,5.044-.1,4.392-4.2,6.468-4.77V16.25c-1.51,1.029-2.042,2.007-4.735,2.007" transform="translate(23.195 11.63)" fill="#162b75" fill-rule="evenodd"/>
    <path id="Path_407" data-name="Path 407" d="M18.748,11.737c-.24,3-2.385,6.52-5.216,6.76v.978a11.713,11.713,0,0,1-1.252,3.775c0,1.064,1.475,3.654,2.488,3.74a6,6,0,0,1-1-3V22.735c0-5.078,9.436-10.02,9.436-11.77v-.24c0-.429-.154-.755-.5-.755-.532,0-2.848,1.493-3.963,1.767" transform="translate(8.788 7.135)" fill="#162b75" fill-rule="evenodd"/>
    <path id="Path_408" data-name="Path 408" d="M36.58,27.7c1.613,0,5.473-1.973,5.473-3.243v-1.27A3.535,3.535,0,0,0,41.8,21.94c-3.895,2.642-1.561,1.939-7.206,3.243V27.7h1.99" transform="translate(24.755 15.702)" fill="#162b75" fill-rule="evenodd"/>
    <path id="Path_409" data-name="Path 409" d="M26.19,17c1.716-1.15,2.711-2.488,5.713-2.488h.24c2.762,0,3.723,1.733,5.284,2.711L36.6,14.243H34.871c-1.029,0-2.436-1.064-3.225-1.493-1.681,1.132-5.267,1.8-5.456,4.255" transform="translate(18.743 9.125)" fill="#162b75" fill-rule="evenodd"/>
    <path id="Path_410" data-name="Path 410" d="M28.916,21.41V19.9l.017.275-7.961.652-1.012.909,8.956-.326" transform="translate(14.285 14.242)" fill="#162b75" fill-rule="evenodd"/>
    <path id="Path_411" data-name="Path 411" d="M40.734,18.462v-1.99l-1.27-1.922-.223.154-.051,2.522.292,2.248.686-.034.566-.978" transform="translate(28.047 10.413)" fill="#162b75" fill-rule="evenodd"/>
    <path id="Path_412" data-name="Path 412" d="M10.454,19.567l-.034.377,3.157,1.132.206-.172L12.6,18.4l-2.145,1.167" transform="translate(7.457 13.169)" fill="#162b75" fill-rule="evenodd"/>
    <rect id="Rectangle_289" data-name="Rectangle 289" width="16.265" height="54.885" transform="translate(77.171 9.522)" fill="#fff"/>
    <path id="Path_413" data-name="Path 413" d="M90.012,22.743a11.639,11.639,0,0,0-2.11-2.762,6.18,6.18,0,0,0-2.556-1.493,8.565,8.565,0,0,0-1.973-.309l-.532-.069c-2.659.051-4.77,1.63-6.262,4.718a24.594,24.594,0,0,0-2.419,10.26v.926A23.465,23.465,0,0,0,76.526,44.19c1.544,3.088,3.809,4.65,6.828,4.65a7.085,7.085,0,0,0,1.338-.137,13.35,13.35,0,0,0,1.407-.377,8.124,8.124,0,0,0,3.449-2.642,12.2,12.2,0,0,0,2.2-5.971l15.681-.069A23.438,23.438,0,0,1,100.34,55.6a22.317,22.317,0,0,1-16.453,6.76H82.84q-11.787-.437-18.152-7.652-6.331-7.232-6.348-20.365,0-15.724,7.051-22.767A23.21,23.21,0,0,1,82.325,4.54c6.674,0,11.718,1.373,15.1,4.135a23.641,23.641,0,0,1,7.172,9.145,28.021,28.021,0,0,1,1.527,5.078,40.722,40.722,0,0,1,.635,4.375l-15-.086a19.015,19.015,0,0,0-1.75-4.444" transform="translate(41.753 3.249)" fill="#fff"/>
    <path id="Path_414" data-name="Path 414" d="M114.7,19.156a8.989,8.989,0,0,0-3.6-1.51,8.233,8.233,0,0,0-.824-.137c-.24-.017-.5-.051-.738-.051a6.314,6.314,0,0,0-2.453.463,2.251,2.251,0,0,0-1.407,1.493v.172l-.086.24V20l-.137.429c0,1.424.926,2.556,2.779,3.449a31.236,31.236,0,0,0,6.194,2.093l.292.1.309.051c5.49,1.2,9.848,3.088,13.074,5.713,3.208,2.608,4.941,6.5,5.2,11.65v.755q0,9.007-6.657,13.88a24.438,24.438,0,0,1-14.721,4.855,28.449,28.449,0,0,1-15.51-4.341c-4.6-2.9-6.9-7.772-6.9-14.566L104.66,44a6.856,6.856,0,0,0,2.453,4.341,9.107,9.107,0,0,0,3.775,1.6,6.243,6.243,0,0,1,.772.051,4.07,4.07,0,0,0,.772.051,5.018,5.018,0,0,0,3.517-1.218,4.164,4.164,0,0,0,1.527-2.694v-.24l-.034-.515-.1-.429a3.926,3.926,0,0,0-.926-1.63,4.649,4.649,0,0,0-1.887-1.2c-.395-.12-.789-.223-1.184-.343-.395-.1-.789-.223-1.184-.326-.343-.1-.7-.223-1.047-.292-.343-.086-.721-.206-1.115-.309A62.567,62.567,0,0,1,96.441,35.2c-4.135-2.368-6.194-6.52-6.194-12.49,0-.275.017-.583.034-.892s.069-.6.1-.892c0-.292.017-.549.034-.824.017-.24.069-.48.1-.721a16.75,16.75,0,0,1,5.3-10.346Q100.482,4.556,109,4.556l1.853-.086a4.14,4.14,0,0,0,.926.086,4.14,4.14,0,0,1,.926.086,24.539,24.539,0,0,1,12.25,4c3.757,2.453,6,7,6.76,13.708l-15.15-.086a4.354,4.354,0,0,0-1.87-3.105" transform="translate(64.061 3.199)" fill="#fff"/>
    <path id="Path_415" data-name="Path 415" d="M133.5,47.344h8.836a4.089,4.089,0,0,0,3.414-1.132,4.3,4.3,0,0,0,1.184-2.694v-.24l-.034-.515a4.9,4.9,0,0,0-.1-.6,5.247,5.247,0,0,0-1.441-2.642,4.072,4.072,0,0,0-3-1.184h-8.836v9.007M133.5,27.665h6.228a5.389,5.389,0,0,0,3.757-1.047,4.323,4.323,0,0,0,1.6-2.608l.069-.292v-.583l-.069-.309a4.324,4.324,0,0,0-1.441-2.453,4.785,4.785,0,0,0-3.38-1.115l-6.76-.086ZM141.288,5.55c5.782.051,10.157,1.51,13.108,4.426a15.945,15.945,0,0,1,5.078,9.453,9.632,9.632,0,0,1,.1.961c.017.309.034.652.034.978v.446a12.859,12.859,0,0,1-1.6,5.868,9.855,9.855,0,0,1-4.186,4.186,11.432,11.432,0,0,1,6.348,5.25,15.861,15.861,0,0,1,2.2,8.047v.686a15.912,15.912,0,0,1-4.529,10.14c-2.831,3.071-7.154,4.632-12.988,4.632l-27.537-.1V5.55Z" transform="translate(83.964 3.972)" fill="#fff"/>
    <path id="Path_416" data-name="Path 416" d="M22.7,48.131a2.2,2.2,0,0,0,.429,1.475,1.411,1.411,0,0,0,1.064.515,1.376,1.376,0,0,0,.892-.309,3.654,3.654,0,0,0,.944-1.475,5.861,5.861,0,0,0,.395-2.076,2.31,2.31,0,0,0-.429-1.493,1.285,1.285,0,0,0-1.029-.532,1.674,1.674,0,0,0-1,.395,3.426,3.426,0,0,0-.892,1.407,5.8,5.8,0,0,0-.377,2.093m-2.316,5.8,1.99-10.569h1.1l-.206,1.064a4.061,4.061,0,0,1,1.1-.978,2.048,2.048,0,0,1,1-.257,2,2,0,0,1,1.6.772,3.564,3.564,0,0,1,.652,2.3,6.165,6.165,0,0,1-.532,2.608,4.564,4.564,0,0,1-1.407,1.8,2.3,2.3,0,0,1-1.407.515,2.075,2.075,0,0,1-1.9-1.407l-.789,4.169H20.38Z" transform="translate(14.585 30.911)" fill="#fff"/>
    <path id="Path_417" data-name="Path 417" d="M25.01,51l1.424-7.635h1.029l-.292,1.561c.686-1.15,1.373-1.733,2.059-1.733a1.8,1.8,0,0,1,.875.292l-.48,1.2a1.047,1.047,0,0,0-.635-.24,1.7,1.7,0,0,0-1.287.772,6.373,6.373,0,0,0-1.012,2.711L26.108,51h-1.1" transform="translate(17.899 30.911)" fill="#fff"/>
    <path id="Path_418" data-name="Path 418" d="M28.857,47.967a2.421,2.421,0,0,0,.48,1.647,1.5,1.5,0,0,0,1.184.549,1.757,1.757,0,0,0,1.115-.429,3.535,3.535,0,0,0,.978-1.373,4.821,4.821,0,0,0,.412-1.956,2.514,2.514,0,0,0-.463-1.647,1.46,1.46,0,0,0-1.167-.549,1.889,1.889,0,0,0-1.184.395,3.031,3.031,0,0,0-.961,1.355,5.3,5.3,0,0,0-.395,2.007M27.69,48.1A5.976,5.976,0,0,1,28.7,44.6,3.22,3.22,0,0,1,31.43,43.18a2.536,2.536,0,0,1,1.99.841,3.38,3.38,0,0,1,.772,2.385,5.854,5.854,0,0,1-.532,2.539,4.06,4.06,0,0,1-1.373,1.664,3.242,3.242,0,0,1-1.767.549,2.689,2.689,0,0,1-2.025-.824,2.969,2.969,0,0,1-.806-2.23" transform="translate(19.817 30.903)" fill="#fff"/>
    <path id="Path_419" data-name="Path 419" d="M31.84,51l1.441-7.635h1.167l-.24,1.252a5.345,5.345,0,0,1,1.2-1.132,2.067,2.067,0,0,1,1.1-.292,1.656,1.656,0,0,1,1.081.377,1.794,1.794,0,0,1,.583,1.047,4.25,4.25,0,0,1,1.1-1.064,2.242,2.242,0,0,1,1.218-.36,1.76,1.76,0,0,1,1.27.446,1.664,1.664,0,0,1,.446,1.27,7.5,7.5,0,0,1-.154,1.2L41.1,51H39.921l.978-5.044a4.554,4.554,0,0,0,.12-.892.765.765,0,0,0-.223-.6.851.851,0,0,0-.6-.206,1.853,1.853,0,0,0-1.012.326,2.38,2.38,0,0,0-.858.892,5.987,5.987,0,0,0-.566,1.819l-.721,3.689H35.872l1.012-5.164a4.192,4.192,0,0,0,.1-.755.88.88,0,0,0-.206-.6.725.725,0,0,0-.549-.223,2.048,2.048,0,0,0-1.493.738,4.551,4.551,0,0,0-1.029,2.4l-.686,3.6H31.84" transform="translate(22.787 30.911)" fill="#fff"/>
    <path id="Path_420" data-name="Path 420" d="M39.574,47.967a2.421,2.421,0,0,0,.48,1.647,1.5,1.5,0,0,0,1.184.549,1.757,1.757,0,0,0,1.115-.429,3.368,3.368,0,0,0,.978-1.373,4.821,4.821,0,0,0,.412-1.956,2.514,2.514,0,0,0-.463-1.647,1.437,1.437,0,0,0-1.167-.549,1.857,1.857,0,0,0-1.184.395,3.031,3.031,0,0,0-.961,1.355,4.989,4.989,0,0,0-.395,2.007M38.39,48.1A5.855,5.855,0,0,1,39.4,44.6,3.22,3.22,0,0,1,42.13,43.18a2.477,2.477,0,0,1,1.973.841,3.38,3.38,0,0,1,.772,2.385,6.112,6.112,0,0,1-.532,2.539,3.964,3.964,0,0,1-1.39,1.664,3.242,3.242,0,0,1-1.767.549,2.652,2.652,0,0,1-2.007-.824,3.1,3.1,0,0,1-.789-2.23" transform="translate(27.475 30.903)" fill="#fff"/>
    <path id="Path_421" data-name="Path 421" d="M45.075,51l-.206,1.064a2.546,2.546,0,0,1-.789.137,1.467,1.467,0,0,1-1.012-.326,1.03,1.03,0,0,1-.377-.841,10.047,10.047,0,0,1,.189-1.167L43.7,45.44h-.926l.189-1h.926l.343-1.853L45.59,41.7l-.515,2.745h1.15l-.206,1H44.886l-.789,4.2c-.1.549-.154.875-.154.961l.12.377.36.1A2.5,2.5,0,0,0,45.075,51" transform="translate(30.552 29.844)" fill="#fff"/>
    <path id="Path_422" data-name="Path 422" d="M46.386,43.065l.275-1.475h1.167l-.275,1.475H46.386M44.67,52.141l1.441-7.635h1.167l-1.424,7.635Z" transform="translate(31.969 29.766)" fill="#fff"/>
    <path id="Path_423" data-name="Path 423" d="M46.41,51l1.441-7.635h1.064l-.24,1.321a5.186,5.186,0,0,1,1.355-1.167,2.422,2.422,0,0,1,1.184-.326,1.775,1.775,0,0,1,1.3.48,1.926,1.926,0,0,1,.5,1.407,6.14,6.14,0,0,1-.189,1.287L51.917,51H50.734l.961-4.855a5.089,5.089,0,0,0,.137-1.047.766.766,0,0,0-.257-.618,1.061,1.061,0,0,0-.686-.223,2.222,2.222,0,0,0-1.613.721,4.619,4.619,0,0,0-1.047,2.471l-.669,3.569H46.41" transform="translate(33.215 30.911)" fill="#fff"/>
    <path id="Path_424" data-name="Path 424" d="M52.125,47.616a3.825,3.825,0,0,0,.189,1.338,1.742,1.742,0,0,0,.549.738,1.252,1.252,0,0,0,.721.24,1.859,1.859,0,0,0,1.064-.395,3.319,3.319,0,0,0,.909-1.338,4.834,4.834,0,0,0,.395-1.887,2.238,2.238,0,0,0-.463-1.51,1.4,1.4,0,0,0-1.132-.549,1.691,1.691,0,0,0-1.064.446,3.224,3.224,0,0,0-.841,1.355,4.461,4.461,0,0,0-.326,1.561m-1.458,4.066,1.184.137v.154a.889.889,0,0,0,.309.755,1.578,1.578,0,0,0,.961.24,1.859,1.859,0,0,0,1.493-.549,5.036,5.036,0,0,0,.6-1.853l.1-.6A2.559,2.559,0,0,1,53.4,51a2.176,2.176,0,0,1-1.716-.824,3.7,3.7,0,0,1-.721-2.453,5.241,5.241,0,0,1,.549-2.333,4.223,4.223,0,0,1,1.287-1.664,2.618,2.618,0,0,1,1.527-.532,2.224,2.224,0,0,1,2.025,1.424l.223-1.252h1.064l-1.252,7.36a5.024,5.024,0,0,1-.944,2.4,2.741,2.741,0,0,1-2.179.926,3.023,3.023,0,0,1-1.956-.532,1.794,1.794,0,0,1-.652-1.441l.017-.395" transform="translate(36.249 30.911)" fill="#fff"/>
    <path id="Path_425" data-name="Path 425" d="M58.548,47.616a3.825,3.825,0,0,0,.189,1.338,1.864,1.864,0,0,0,.532.738,1.346,1.346,0,0,0,.738.24,1.771,1.771,0,0,0,1.047-.395A3.334,3.334,0,0,0,61.98,48.2a4.834,4.834,0,0,0,.395-1.887,2.332,2.332,0,0,0-.463-1.51,1.4,1.4,0,0,0-1.132-.549,1.691,1.691,0,0,0-1.064.446,3.064,3.064,0,0,0-.841,1.355,4.461,4.461,0,0,0-.326,1.561M57.09,51.683l1.184.137v.154a.89.89,0,0,0,.309.755,1.614,1.614,0,0,0,.961.24,1.8,1.8,0,0,0,1.475-.549,5.036,5.036,0,0,0,.6-1.853l.1-.6A2.586,2.586,0,0,1,59.8,51a2.152,2.152,0,0,1-1.716-.824,3.7,3.7,0,0,1-.7-2.453,5.224,5.224,0,0,1,.532-2.333,4.25,4.25,0,0,1,1.3-1.664,2.618,2.618,0,0,1,1.527-.532,2.246,2.246,0,0,1,2.042,1.424l.223-1.252h1.064l-1.252,7.36a5.4,5.4,0,0,1-.944,2.4,2.741,2.741,0,0,1-2.179.926,2.991,2.991,0,0,1-1.956-.532,1.794,1.794,0,0,1-.652-1.441v-.395" transform="translate(40.858 30.911)" fill="#fff"/>
    <path id="Path_426" data-name="Path 426" d="M62.707,47.967a2.514,2.514,0,0,0,.463,1.647,1.522,1.522,0,0,0,1.184.549,1.757,1.757,0,0,0,1.115-.429,3.535,3.535,0,0,0,.978-1.373,4.821,4.821,0,0,0,.412-1.956,2.514,2.514,0,0,0-.463-1.647,1.46,1.46,0,0,0-1.167-.549,1.889,1.889,0,0,0-1.184.395,3.031,3.031,0,0,0-.961,1.355,5.285,5.285,0,0,0-.377,2.007M61.54,48.1a5.976,5.976,0,0,1,1.012-3.5A3.22,3.22,0,0,1,65.28,43.18a2.477,2.477,0,0,1,1.973.841,3.385,3.385,0,0,1,.789,2.385,5.854,5.854,0,0,1-.532,2.539,4.2,4.2,0,0,1-1.373,1.664,3.254,3.254,0,0,1-1.784.549,2.652,2.652,0,0,1-2.007-.824,2.969,2.969,0,0,1-.806-2.23" transform="translate(44.043 30.903)" fill="#fff"/>
    <path id="Path_427" data-name="Path 427" d="M67.182,50.925,66.05,43.29h1.132l.583,4.2c.069.463.137,1.218.24,2.248.223-.532.515-1.15.875-1.87l2.282-4.581H72.4l-3.929,7.635H67.182" transform="translate(47.271 30.982)" fill="#fff"/>
    <path id="Path_428" data-name="Path 428" d="M71.08,46.494h3.86V46.22a2.225,2.225,0,0,0-.446-1.527,1.442,1.442,0,0,0-1.132-.48,2.005,2.005,0,0,0-1.373.549,3.85,3.85,0,0,0-.909,1.733m3.414,1.887,1.132.137a3.43,3.43,0,0,1-1.321,1.939,2.88,2.88,0,0,1-1.922.721,2.641,2.641,0,0,1-1.355-.377,2.419,2.419,0,0,1-.978-1.115,3.932,3.932,0,0,1-.36-1.75,5.742,5.742,0,0,1,.549-2.488,4.279,4.279,0,0,1,1.355-1.716,3.032,3.032,0,0,1,1.733-.532,2.447,2.447,0,0,1,1.939.824,3.376,3.376,0,0,1,.755,2.333,6.605,6.605,0,0,1-.086,1.15H70.874l-.017.395a2.619,2.619,0,0,0,.446,1.647,1.373,1.373,0,0,0,1.081.549,2,2,0,0,0,1.184-.446,2.672,2.672,0,0,0,.926-1.27" transform="translate(49.876 30.918)" fill="#fff"/>
    <path id="Path_429" data-name="Path 429" d="M73.84,51l1.441-7.635h1.047l-.292,1.561c.686-1.15,1.373-1.733,2.076-1.733a1.743,1.743,0,0,1,.858.292l-.48,1.2a1.056,1.056,0,0,0-.652-.24,1.7,1.7,0,0,0-1.287.772,6.175,6.175,0,0,0-1,2.711L74.972,51H73.84" transform="translate(52.846 30.911)" fill="#fff"/>
    <path id="Path_430" data-name="Path 430" d="M76.4,51l1.441-7.635H78.9l-.24,1.321a5.186,5.186,0,0,1,1.355-1.167A2.422,2.422,0,0,1,81.2,43.19a1.734,1.734,0,0,1,1.287.48,1.858,1.858,0,0,1,.5,1.407,7.593,7.593,0,0,1-.189,1.287L81.89,51H80.706l.961-4.855a7.263,7.263,0,0,0,.154-1.047.766.766,0,0,0-.257-.618,1.012,1.012,0,0,0-.669-.223,2.222,2.222,0,0,0-1.613.721,4.492,4.492,0,0,0-1.047,2.471l-.669,3.569H76.4" transform="translate(54.678 30.911)" fill="#fff"/>
    <path id="Path_431" data-name="Path 431" d="M82.359,43.065l.274-1.475H83.8l-.275,1.475H82.359m-1.7,9.076,1.424-7.635h1.167L81.81,52.141Z" transform="translate(57.727 29.766)" fill="#fff"/>
    <path id="Path_432" data-name="Path 432" d="M82.4,51l1.424-7.635h1.064l-.257,1.321a5.474,5.474,0,0,1,1.355-1.167,2.472,2.472,0,0,1,1.184-.326,1.8,1.8,0,0,1,1.3.48,1.858,1.858,0,0,1,.5,1.407,7.6,7.6,0,0,1-.189,1.287L87.873,51H86.689l.978-4.855a6.7,6.7,0,0,0,.137-1.047.766.766,0,0,0-.257-.618,1.028,1.028,0,0,0-.686-.223,2.186,2.186,0,0,0-1.6.721,4.62,4.62,0,0,0-1.047,2.471l-.669,3.569H82.4" transform="translate(58.972 30.911)" fill="#fff"/>
    <path id="Path_433" data-name="Path 433" d="M88.108,47.616a3.824,3.824,0,0,0,.189,1.338,1.863,1.863,0,0,0,.532.738,1.3,1.3,0,0,0,.738.24,1.771,1.771,0,0,0,1.047-.395,3.012,3.012,0,0,0,.909-1.338,4.834,4.834,0,0,0,.395-1.887,2.238,2.238,0,0,0-.463-1.51,1.4,1.4,0,0,0-1.132-.549,1.691,1.691,0,0,0-1.064.446,3.064,3.064,0,0,0-.841,1.355,4.816,4.816,0,0,0-.309,1.561m-1.441,4.066,1.184.137v.154a.889.889,0,0,0,.309.755,1.578,1.578,0,0,0,.961.24,1.836,1.836,0,0,0,1.493-.549,5.036,5.036,0,0,0,.6-1.853l.1-.6A2.586,2.586,0,0,1,89.4,51a2.176,2.176,0,0,1-1.716-.824,3.7,3.7,0,0,1-.721-2.453,5.465,5.465,0,0,1,.532-2.333,4.384,4.384,0,0,1,1.287-1.664A2.579,2.579,0,0,1,90.3,43.19a2.207,2.207,0,0,1,2.025,1.424l.223-1.252h1.064l-1.235,7.36a5.024,5.024,0,0,1-.944,2.4,2.741,2.741,0,0,1-2.179.926,3.023,3.023,0,0,1-1.956-.532,1.794,1.794,0,0,1-.652-1.441l.017-.395" transform="translate(62.014 30.911)" fill="#fff"/>
    <path id="Path_434" data-name="Path 434" d="M94.64,46.494h3.843V46.22a2.316,2.316,0,0,0-.446-1.527,1.442,1.442,0,0,0-1.132-.48,1.907,1.907,0,0,0-1.355.549,3.85,3.85,0,0,0-.909,1.733m3.414,1.887,1.15.137a3.43,3.43,0,0,1-1.321,1.939,2.88,2.88,0,0,1-1.922.721,2.7,2.7,0,0,1-1.373-.377,2.419,2.419,0,0,1-.978-1.115,3.932,3.932,0,0,1-.36-1.75,5.742,5.742,0,0,1,.549-2.488,4.279,4.279,0,0,1,1.355-1.716A3.047,3.047,0,0,1,96.9,43.2a2.447,2.447,0,0,1,1.939.824,3.3,3.3,0,0,1,.755,2.333,6.605,6.605,0,0,1-.086,1.15H94.451l-.034.395a2.619,2.619,0,0,0,.446,1.647,1.373,1.373,0,0,0,1.081.549,2,2,0,0,0,1.184-.446,2.672,2.672,0,0,0,.926-1.27" transform="translate(66.738 30.918)" fill="#fff"/>
    <path id="Path_435" data-name="Path 435" d="M97.13,50.925l2.985-3.877L98.4,43.29h1.287l.583,1.355c.223.515.412,1,.583,1.441l1.973-2.8h1.441l-2.882,3.877,1.716,3.757h-1.287l-.669-1.561c-.154-.343-.326-.755-.515-1.218l-2.025,2.779H97.13" transform="translate(69.514 30.982)" fill="#fff"/>
    <path id="Path_436" data-name="Path 436" d="M105.881,48.2l1.15.137a4.5,4.5,0,0,1-1.27,2.145,2.735,2.735,0,0,1-1.819.686,2.423,2.423,0,0,1-1.8-.772,3.28,3.28,0,0,1-.721-2.282,6.323,6.323,0,0,1,.532-2.642,3.938,3.938,0,0,1,1.321-1.733,3.062,3.062,0,0,1,1.767-.532,2.381,2.381,0,0,1,1.733.669,2.52,2.52,0,0,1,.652,1.87l-1.149.086a1.553,1.553,0,0,0-.395-1.167,1.229,1.229,0,0,0-.944-.395,1.86,1.86,0,0,0-1.115.377,3.045,3.045,0,0,0-.858,1.407,6.637,6.637,0,0,0-.377,2.248,2.216,2.216,0,0,0,.395,1.407,1.253,1.253,0,0,0,.961.48,1.665,1.665,0,0,0,1.1-.48,3.52,3.52,0,0,0,.841-1.51" transform="translate(72.585 30.925)" fill="#fff"/>
    <path id="Path_437" data-name="Path 437" d="M106.64,46.494h3.86V46.22a2.316,2.316,0,0,0-.446-1.527,1.442,1.442,0,0,0-1.132-.48,1.936,1.936,0,0,0-1.355.549,3.558,3.558,0,0,0-.926,1.733m3.4,1.887,1.149.137a3.516,3.516,0,0,1-1.321,1.939,2.9,2.9,0,0,1-1.9.721,2.657,2.657,0,0,1-1.373-.377,2.419,2.419,0,0,1-.978-1.115,3.932,3.932,0,0,1-.36-1.75,5.742,5.742,0,0,1,.549-2.488,4.138,4.138,0,0,1,1.355-1.716,3.032,3.032,0,0,1,1.733-.532,2.447,2.447,0,0,1,1.939.824,3.376,3.376,0,0,1,.755,2.333,8.855,8.855,0,0,1-.086,1.15h-5.061l-.034.395a2.619,2.619,0,0,0,.446,1.647,1.405,1.405,0,0,0,1.1.549,2,2,0,0,0,1.184-.446,2.646,2.646,0,0,0,.909-1.27" transform="translate(75.326 30.918)" fill="#fff"/>
    <path id="Path_438" data-name="Path 438" d="M109.34,52.141l1.973-10.551H112.5l-1.973,10.551H109.34" transform="translate(78.253 29.766)" fill="#fff"/>
    <path id="Path_439" data-name="Path 439" d="M111.05,52.141l1.99-10.551h1.167l-1.973,10.551H111.05" transform="translate(79.477 29.766)" fill="#fff"/>
    <path id="Path_440" data-name="Path 440" d="M114.35,46.494h3.86V46.22a2.316,2.316,0,0,0-.446-1.527,1.492,1.492,0,0,0-1.132-.48,1.936,1.936,0,0,0-1.355.549,3.558,3.558,0,0,0-.926,1.733m3.4,1.887,1.132.137a3.484,3.484,0,0,1-1.3,1.939,2.945,2.945,0,0,1-1.922.721A2.6,2.6,0,0,1,114.3,50.8a2.419,2.419,0,0,1-.978-1.115,3.932,3.932,0,0,1-.36-1.75,5.742,5.742,0,0,1,.549-2.488,4.279,4.279,0,0,1,1.355-1.716A3.032,3.032,0,0,1,116.6,43.2a2.447,2.447,0,0,1,1.939.824,3.376,3.376,0,0,1,.755,2.333,8.855,8.855,0,0,1-.086,1.15h-5.061l-.034.395a2.619,2.619,0,0,0,.446,1.647,1.4,1.4,0,0,0,1.081.549,2,2,0,0,0,1.184-.446,2.672,2.672,0,0,0,.926-1.27" transform="translate(80.844 30.918)" fill="#fff"/>
    <path id="Path_441" data-name="Path 441" d="M117.1,51l1.441-7.635H119.6l-.257,1.321a5.474,5.474,0,0,1,1.355-1.167,2.472,2.472,0,0,1,1.184-.326,1.775,1.775,0,0,1,1.3.48,1.926,1.926,0,0,1,.5,1.407,7.6,7.6,0,0,1-.189,1.287L122.59,51h-1.184l.961-4.855a6.693,6.693,0,0,0,.137-1.047.766.766,0,0,0-.257-.618,1.061,1.061,0,0,0-.686-.223,2.222,2.222,0,0,0-1.613.721,4.619,4.619,0,0,0-1.047,2.471l-.669,3.569H117.1" transform="translate(83.807 30.911)" fill="#fff"/>
    <path id="Path_442" data-name="Path 442" d="M126,48.2l1.167.137a4.482,4.482,0,0,1-1.252,2.145,2.735,2.735,0,0,1-1.819.686,2.423,2.423,0,0,1-1.8-.772,3.28,3.28,0,0,1-.721-2.282,6.6,6.6,0,0,1,.515-2.642,3.818,3.818,0,0,1,1.321-1.733,3.077,3.077,0,0,1,1.784-.532,2.314,2.314,0,0,1,1.716.669,2.52,2.52,0,0,1,.652,1.87l-1.15.086a1.625,1.625,0,0,0-.395-1.167,1.282,1.282,0,0,0-.944-.395,1.86,1.86,0,0,0-1.115.377,3.051,3.051,0,0,0-.875,1.407,6.642,6.642,0,0,0-.36,2.248,2.216,2.216,0,0,0,.395,1.407,1.227,1.227,0,0,0,.961.48,1.7,1.7,0,0,0,1.1-.48A3.337,3.337,0,0,0,126,48.2" transform="translate(87.006 30.925)" fill="#fff"/>
    <path id="Path_443" data-name="Path 443" d="M126.777,46.494h3.86V46.22a2.316,2.316,0,0,0-.446-1.527,1.442,1.442,0,0,0-1.132-.48,1.936,1.936,0,0,0-1.355.549,3.7,3.7,0,0,0-.926,1.733m3.414,1.887,1.132.137A3.43,3.43,0,0,1,130,50.457a2.88,2.88,0,0,1-1.922.721,2.7,2.7,0,0,1-1.373-.377,2.419,2.419,0,0,1-.978-1.115,3.932,3.932,0,0,1-.36-1.75,5.742,5.742,0,0,1,.549-2.488,4.279,4.279,0,0,1,1.355-1.716,3.032,3.032,0,0,1,1.733-.532,2.447,2.447,0,0,1,1.939.824,3.376,3.376,0,0,1,.755,2.333,6.605,6.605,0,0,1-.086,1.15h-5.061l-.017.395a2.619,2.619,0,0,0,.446,1.647,1.4,1.4,0,0,0,1.081.549,2,2,0,0,0,1.184-.446,2.494,2.494,0,0,0,.944-1.27" transform="translate(89.725 30.918)" fill="#fff"/>
  </g>
</svg>
