<svg xmlns="http://www.w3.org/2000/svg" width="17.388" height="16.224" viewBox="0 0 17.388 16.224">
  <g id="calendar" transform="translate(0 0)">
    <path id="Path_187" data-name="Path 187" d="M11.794,102.4h8.388c.292,0,.292,0,.292.3,0,3.116-.019,6.237.01,9.354a1.845,1.845,0,0,1-1.491,1.835,1.964,1.964,0,0,1-.411.038H4.6a1.454,1.454,0,0,1-1.5-1.443c0-.091,0-.177,0-.268v-9.535c0-.282,0-.282.282-.282Q7.6,102.407,11.794,102.4Zm4.106,4.2c.215,0,.43,0,.645,0a.382.382,0,0,0,.435-.411c.01-.44.01-.884,0-1.324a.407.407,0,0,0-.411-.43q-.681-.014-1.362,0a.379.379,0,0,0-.392.4q-.007.681,0,1.362a.378.378,0,0,0,.406.4C15.446,106.611,15.67,106.606,15.9,106.606Zm-1.09,3.757h0c0,.225,0,.454,0,.679a.4.4,0,0,0,.425.43c.44.01.884,0,1.324,0a.377.377,0,0,0,.416-.4q.022-.681,0-1.362a.384.384,0,0,0-.425-.406c-.449,0-.894,0-1.343,0a.373.373,0,0,0-.4.392C14.805,109.918,14.81,110.143,14.81,110.363Zm-3.245-3.757c.225,0,.454,0,.679,0a.355.355,0,0,0,.4-.4c0-.449,0-.894,0-1.343a.394.394,0,0,0-.425-.425q-.652-.007-1.3,0a.409.409,0,0,0-.43.43c-.01.44-.01.884,0,1.324a.389.389,0,0,0,.421.411C11.125,106.611,11.345,106.606,11.565,106.606Zm1.08,3.8c0-.234,0-.464,0-.7a.37.37,0,0,0-.392-.4q-.681-.007-1.362,0a.386.386,0,0,0-.411.4c-.01.449-.01.894,0,1.343a.4.4,0,0,0,.406.416q.688.014,1.377,0a.363.363,0,0,0,.382-.406C12.649,110.841,12.645,110.621,12.645,110.4Zm-5.329-1.095H6.67a.409.409,0,0,0-.459.449c0,.416,0,.836,0,1.252a.426.426,0,0,0,.459.464q.617.007,1.233,0A.443.443,0,0,0,8.377,111q.007-.645,0-1.29a.379.379,0,0,0-.421-.406C7.746,109.3,7.531,109.307,7.316,109.307Zm-.033-2.7h.626a.437.437,0,0,0,.473-.464c0-.425,0-.846,0-1.271a.4.4,0,0,0-.421-.43q-.652-.007-1.3,0a.409.409,0,0,0-.435.425c-.01.44-.01.884,0,1.324a.4.4,0,0,0,.421.416C6.852,106.611,7.067,106.606,7.282,106.606Z" transform="translate(-3.095 -97.704)" fill="#122f98"/>
    <path id="Path_188" data-name="Path 188" d="M11.658,7.766H3.327c-.067,0-.129,0-.2,0s-.119-.029-.119-.105A19.744,19.744,0,0,1,3.05,5.4,1.4,1.4,0,0,1,4.536,4.163H4.66a12.03,12.03,0,0,1,1.377.029,10.934,10.934,0,0,1,.038,1.372c0,.081,0,.167,0,.249a.488.488,0,0,0,.349.468.519.519,0,0,0,.554-.148A.526.526,0,0,0,7.1,5.769c0-.464,0-.932,0-1.4,0-.163.053-.215.215-.215q4.13.007,8.259,0c.167,0,.22.057.215.215,0,.459,0,.918,0,1.381a.515.515,0,1,0,1.028,0q.007-.681,0-1.362c0-.172.043-.244.229-.239.5.01,1,0,1.506,0A1.878,1.878,0,0,1,20.285,5.53a1.4,1.4,0,0,1,.024.282v1.7c0,.249,0,.249-.249.249Q15.859,7.769,11.658,7.766Z" transform="translate(-2.997 -4.156)" fill="#122f98"/>
  </g>
</svg>
