<svg xmlns="http://www.w3.org/2000/svg" width="16.169" height="19.625" viewBox="0 0 16.169 19.625">
  <g id="user" transform="translate(0 0)">
    <path id="Path_185" data-name="Path 185" d="M3.958,226a9.683,9.683,0,0,1,.564-4.187,8.067,8.067,0,0,1,4-4.287,7.665,7.665,0,0,1,3.217-.8,7.908,7.908,0,0,1,6.314,2.71,7.832,7.832,0,0,1,1.964,4.173A13.7,13.7,0,0,1,20.094,226Q12.028,226.007,3.958,226Z" transform="translate(-3.941 -206.38)" fill="#122f98"/>
    <path id="Path_186" data-name="Path 186" d="M81.5,4.867A4.573,4.573,0,0,1,84.009.7a3.909,3.909,0,0,1,4.445.449,4.53,4.53,0,0,1,1.721,4.5,4.392,4.392,0,0,1-2.528,3.465,3.918,3.918,0,0,1-3.91-.2A4.555,4.555,0,0,1,81.543,5.46C81.519,5.264,81.51,5.068,81.5,4.867Z" transform="translate(-77.793 -0.212)" fill="#122f98"/>
  </g>
</svg>
