<?xml version="1.0" encoding="utf-8"?>
<!-- Generator: Adobe Illustrator 23.0.2, SVG Export Plug-In . SVG Version: 6.00 Build 0)  -->
<svg version="1.1" id="Layer_1" xmlns="http://www.w3.org/2000/svg" xmlns:xlink="http://www.w3.org/1999/xlink" x="0px" y="0px"
	 viewBox="0 0 128 128" style="enable-background:new 0 0 128 128;" xml:space="preserve">
<style type="text/css">
	.st0{fill:url(#O_1_);}
	.st1{fill:#8F6B32;}
	.st2{fill:url(#Q_1_);}
	.st3{fill:url(#S_1_);}
	.st4{fill:none;stroke:url(#T_1_);stroke-width:2.366;}
	.st5{fill:url(#U_1_);}
	.st6{fill:url(#V_1_);}
	.st7{fill:#6A0A0A;}
	.st8{fill:none;stroke:url(#X_1_);stroke-width:2.731;}
	.st9{fill:url(#Z_1_);}
	.st10{opacity:0.145;fill:url(#c_1_);enable-background:new    ;}
	.st11{opacity:0.145;fill:url(#d_1_);enable-background:new    ;}
</style>
<path id="N" d="M16,14.4l96.1,0.1c5.2,0,9.3,4.2,9.3,9.4l-0.1,91c0,5.2-4.2,9.3-9.4,9.3l-96.1-0.1c-5.2,0-9.3-4.2-9.3-9.4l0.1-91
	C6.7,18.6,10.8,14.4,16,14.4z"/>
<linearGradient id="O_1_" gradientUnits="userSpaceOnUse" x1="-175.7056" y1="443.3229" x2="-175.7056" y2="444.4167" gradientTransform="matrix(2.391 0 0 -10.66 484.0094 4749.1479)">
	<stop  offset="0" style="stop-color:#000000"/>
	<stop  offset="1" style="stop-color:#000000;stop-opacity:0"/>
</linearGradient>
<path id="O" class="st0" d="M14,11.7c-2.6,0-4.9,4.3-6.6,11.7h113c-1.7-7-4-11.7-6.5-11.7H14z"/>
<path id="P" class="st1" d="M16,14.4l96.1,0.1c5.2,0,9.3,4.2,9.3,9.4l-0.1,91c0,5.2-4.2,9.3-9.4,9.3l-96.1-0.1
	c-5.2,0-9.3-4.2-9.3-9.4l0.1-91C6.6,18.6,10.8,14.4,16,14.4z"/>
<linearGradient id="Q_1_" gradientUnits="userSpaceOnUse" x1="29.6943" y1="147.5622" x2="29.7643" y2="47.521" gradientTransform="matrix(1.0975 7.910550e-04 7.910550e-04 -1.0975 31.2942 173.8396)">
	<stop  offset="0" style="stop-color:#B3925D"/>
	<stop  offset="1" style="stop-color:#DEBC85"/>
</linearGradient>
<path id="Q" class="st2" d="M16,11.9l96.1,0.1c5.2,0,9.3,4.2,9.3,9.4l-0.1,91c0,5.2-4.2,9.3-9.4,9.3l-96.1-0.1
	c-5.2,0-9.3-4.2-9.3-9.4l0.1-91C6.6,16.1,10.8,11.9,16,11.9z"/>
<path id="R" d="M21.5,16.2l84.5,0.1c4.5,0,8.2,3.7,8.2,8.2l-0.1,82.5c0,4.5-3.7,8.2-8.2,8.2l-84.5-0.1c-4.5,0-8.2-3.7-8.2-8.2
	l0.1-82.5C13.3,19.9,17,16.2,21.5,16.2z"/>
<linearGradient id="S_1_" gradientUnits="userSpaceOnUse" x1="-169.5786" y1="281.7482" x2="-169.5756" y2="276.9742" gradientTransform="matrix(2.2974 1.700265e-03 1.615051e-03 -2.3005 452.9475 752.7037)">
	<stop  offset="0" style="stop-color:#EEEEEE"/>
	<stop  offset="1" style="stop-color:#ACACAC"/>
</linearGradient>
<path id="S" class="st3" d="M21.6,16.2l84.4,0.1c4.5,0,8.2,3.7,8.2,8.2l-0.1,82.5c0,4.5-3.7,8.2-8.2,8.2l-84.4-0.1
	c-4.5,0-8.2-3.7-8.2-8.2l0.1-82.5C13.4,19.9,17.1,16.2,21.6,16.2z"/>
<radialGradient id="T_1_" cx="-110.8339" cy="148.0005" r="52.3921" gradientTransform="matrix(1.9306 7.910550e-04 4.298413e-04 -1.049 277.9419 153.3748)" gradientUnits="userSpaceOnUse">
	<stop  offset="0" style="stop-color:#EEEEEE"/>
	<stop  offset="1" style="stop-color:#EEEEEE;stop-opacity:0"/>
</radialGradient>
<path id="T" class="st4" d="M16,14.4c-3.9,0-6.9,3-6.9,6.9l-0.1,91c0,3.9,3,6.9,6.9,6.9l96.1,0.1c3.9,0,6.9-3,6.9-6.9l0.1-91
	c0-3.9-3-6.9-6.9-6.9L16,14.4z"/>
<linearGradient id="U_1_" gradientUnits="userSpaceOnUse" x1="29.5753" y1="144.0232" x2="29.6053" y2="100.6542" gradientTransform="matrix(1.0975 7.910550e-04 7.910550e-04 -1.0975 31.2942 173.8396)">
	<stop  offset="0" style="stop-color:#AE1010"/>
	<stop  offset="1" style="stop-color:#E85752"/>
</linearGradient>
<path id="U" class="st5" d="M21.7,15.8l84.4,0.1c4.5,0,8.2,3.7,8.2,8.2l-0.1,78.7c0,4.5-3.7,8.2-8.2,8.2l-84.4-0.1
	c-4.5,0-8.2-3.7-8.2-8.2L13.5,24C13.5,19.5,17.1,15.8,21.7,15.8z"/>
<radialGradient id="V_1_" cx="-146.4419" cy="560.7819" r="21.932" gradientTransform="matrix(1.3157 2.1383 1.189 -0.7316 -449.3437 762.1261)" gradientUnits="userSpaceOnUse">
	<stop  offset="0" style="stop-color:#EEEEEE"/>
	<stop  offset="1" style="stop-color:#E4E4E4"/>
</radialGradient>
<path id="V" class="st6" d="M13.4,49.8l0,53c0,4.6,3.7,8.2,8.2,8.2L106,111c4.6,0,8.2-3.7,8.2-8.2l0-53L13.4,49.8L13.4,49.8z"/>
<path id="W" class="st7" d="M36.1,22.1c0,3.1-2.5,5.7-5.7,5.7c-3.1,0-5.7-2.5-5.7-5.7c0-3.1,2.5-5.7,5.7-5.7
	C33.5,16.4,36.1,19,36.1,22.1z"/>
<radialGradient id="X_1_" cx="-51.0369" cy="139.9919" r="46.15" gradientTransform="matrix(1.4642 6.706927e-03 4.742609e-03 -1.0354 137.936 149.1684)" gradientUnits="userSpaceOnUse">
	<stop  offset="0" style="stop-color:#EEEEEE"/>
	<stop  offset="1" style="stop-color:#EEEEEE;stop-opacity:0"/>
</radialGradient>
<path id="X" class="st8" d="M21.7,17.3c-3.7,0-6.7,3-6.7,6.7L15,102.7c0,3.7,3,6.7,6.7,6.7l84.4,0.1c3.7,0,6.7-3,6.7-6.7l0.1-78.7
	c0-3.7-3-6.7-6.7-6.7L21.7,17.3z"/>
<path id="Y" class="st7" d="M103,22.2c0,3.1-2.5,5.7-5.7,5.7c-3.1,0-5.7-2.5-5.7-5.7c0-3.1,2.5-5.7,5.7-5.7
	C100.4,16.5,103,19,103,22.2z"/>
<linearGradient id="Z_1_" gradientUnits="userSpaceOnUse" x1="-169.9132" y1="325.2884" x2="-169.9132" y2="315.6231" gradientTransform="matrix(2.3005 0 0 -2.3005 454.6849 752.0966)">
	<stop  offset="0" style="stop-color:#A3A3A3"/>
	<stop  offset="1" style="stop-color:#BBBBBB"/>
</linearGradient>
<path id="Z" class="st9" d="M30.4,3.8c-2.1,0-3.8,1.8-3.8,4v14.4c0,1.4,0.7,2.6,1.9,3.3c1.2,0.7,2.7,0.8,3.9,0.1
	c1.2-0.7,1.9-2,1.9-3.4V7.7c0-1-0.3-2.1-1.1-2.8C32.4,4.2,31.4,3.7,30.4,3.8z M97.1,3.8c-2.1,0-3.8,1.8-3.8,3.9v14.4
	c0,1.4,0.7,2.7,1.9,3.4c1.2,0.7,2.7,0.7,3.9,0s2-2,1.9-3.4V7.7c0-1-0.4-2-1.2-2.7C99.1,4.2,98.2,3.8,97.1,3.8z"/>
<linearGradient id="c_1_" gradientUnits="userSpaceOnUse" x1="-186.1009" y1="320.4633" x2="-182.7567" y2="320.4633" gradientTransform="matrix(2.3005 0 0 -2.3005 454.6849 752.0966)">
	<stop  offset="0" style="stop-color:#000000"/>
	<stop  offset="0.5" style="stop-color:#FFFFFF"/>
	<stop  offset="1" style="stop-color:#000000"/>
</linearGradient>
<path id="c" class="st10" d="M30.4,3.8c-2.1,0-3.8,1.8-3.8,4v14.4c0,1.4,0.7,2.6,1.9,3.3c1.2,0.7,2.7,0.8,3.9,0.1
	c1.2-0.7,1.9-2,1.9-3.4V7.7c0-1-0.3-2.1-1.1-2.8C32.4,4.2,31.4,3.7,30.4,3.8z"/>
<linearGradient id="d_1_" gradientUnits="userSpaceOnUse" x1="-157.0697" y1="320.4401" x2="-153.7297" y2="320.4401" gradientTransform="matrix(2.3005 0 0 -2.3005 454.6849 752.0966)">
	<stop  offset="0" style="stop-color:#000000"/>
	<stop  offset="0.5" style="stop-color:#FFFFFF"/>
	<stop  offset="1" style="stop-color:#000000"/>
</linearGradient>
<path id="d" class="st11" d="M97.1,3.8c-2.1,0-3.8,1.8-3.8,3.9v14.4c0,1.4,0.7,2.7,1.9,3.4c1.2,0.7,2.7,0.7,3.9,0
	c1.2-0.7,2-2,1.9-3.4V7.7c0-1-0.4-2-1.2-2.7C99.1,4.2,98.2,3.8,97.1,3.8z"/>
</svg>
