<?xml version="1.0" encoding="utf-8"?>
<!-- Generator: Adobe Illustrator 23.0.2, SVG Export Plug-In . SVG Version: 6.00 Build 0)  -->
<svg version="1.1" id="Layer_1" xmlns="http://www.w3.org/2000/svg" xmlns:xlink="http://www.w3.org/1999/xlink" x="0px" y="0px"
	 viewBox="0 0 450 280" style="enable-background:new 0 0 450 280;" xml:space="preserve">
<style type="text/css">
	.st0{fill:url(#O_1_);}
	.st1{fill:#8F6B32;}
	.st2{fill:url(#Q_1_);}
	.st3{fill:url(#S_1_);}
	.st4{fill:none;stroke:url(#T_1_);stroke-width:2.366;}
	.st5{fill:url(#U_1_);}
	.st6{fill:url(#V_1_);}
	.st7{fill:#6A0A0A;}
	.st8{fill:none;stroke:url(#X_1_);stroke-width:2.731;}
	.st9{fill:url(#Z_1_);}
	.st10{opacity:0.145;fill:url(#c_1_);enable-background:new    ;}
	.st11{opacity:0.145;fill:url(#d_1_);enable-background:new    ;}
</style>
<g>
	<path id="N" d="M37.1,24.7l376.4,0.2c20.4,0,36.4,9.7,36.4,21.8l-0.3,211.6c0,12.1-16.4,21.6-36.8,21.6l-376.4-0.2
		C16,279.8,0,270.1,0,257.9L0.3,46.3C0.7,34.4,16.9,24.7,37.1,24.7z"/>
	
		<linearGradient id="O_1_" gradientUnits="userSpaceOnUse" x1="-336.488" y1="388.5299" x2="-336.488" y2="391.0739" gradientTransform="matrix(2.391 0 0 -10.66 1029.2814 4187.1479)">
		<stop  offset="0" style="stop-color:#000000"/>
		<stop  offset="1" style="stop-color:#000000;stop-opacity:0"/>
	</linearGradient>
	<path id="O" class="st0" d="M29.3,18.4c-10.1,0-19.2,10-25.8,27.2H446c-6.6-16.3-15.7-27.2-25.5-27.2H29.3z"/>
	<path id="P" class="st1" d="M37.1,24.7l376.4,0.2c20.4,0,36.4,9.7,36.4,21.8l-0.3,211.6c0,12.1-16.4,21.6-36.8,21.6l-376.4-0.2
		C16,279.8,0,270.1,0,257.9L0.3,46.3C0.3,34.4,16.9,24.7,37.1,24.7z"/>
	
		<linearGradient id="Q_1_" gradientUnits="userSpaceOnUse" x1="141.9422" y1="-370.4883" x2="142.105" y2="-603.1306" gradientTransform="matrix(1.0975 7.910550e-04 7.910550e-04 -1.0975 69.5142 -387.8504)">
		<stop  offset="0" style="stop-color:#B3925D"/>
		<stop  offset="1" style="stop-color:#DEBC85"/>
	</linearGradient>
	<path id="Q" class="st2" d="M37.1,18.9l376.4,0.2c20.4,0,36.4,9.7,36.4,21.8l-0.3,211.6c0,12.1-16.4,21.6-36.8,21.6L36.4,274
		C16,274,0,264.3,0,252.1L0.3,40.5C0.3,28.6,16.9,18.9,37.1,18.9z"/>
	<path id="R" d="M58.8,28.8L389.7,29c17.6,0,32.1,8.6,32.1,19.1l-0.3,191.9c0,10.5-14.5,19.1-32.1,19.1l-330.9-0.2
		c-17.6,0-32.1-8.6-32.1-19.1l0.3-191.9C26.7,37.4,41.1,28.8,58.8,28.8z"/>
	
		<linearGradient id="S_1_" gradientUnits="userSpaceOnUse" x1="-320.9232" y1="-18.6109" x2="-320.9161" y2="-29.7138" gradientTransform="matrix(2.2974 1.700265e-03 1.615051e-03 -2.3005 961.5284 191.3701)">
		<stop  offset="0" style="stop-color:#EEEEEE"/>
		<stop  offset="1" style="stop-color:#ACACAC"/>
	</linearGradient>
	<path id="S" class="st3" d="M59.1,28.8L389.7,29c17.6,0,32.1,8.6,32.1,19.1l-0.3,191.9c0,10.5-14.5,19.1-32.1,19.1l-330.6-0.2
		c-17.6,0-32.1-8.6-32.1-19.1L27,47.9C27,37.4,41.5,28.8,59.1,28.8z"/>
	
		<radialGradient id="T_1_" cx="-216.2332" cy="-383.507" r="116.122" gradientTransform="matrix(3.366 8.190686e-04 7.494327e-04 -1.0861 953.4161 -427.7204)" gradientUnits="userSpaceOnUse">
		<stop  offset="0" style="stop-color:#EEEEEE"/>
		<stop  offset="1" style="stop-color:#EEEEEE;stop-opacity:0"/>
	</radialGradient>
	<path id="T" class="st4" d="M37.1,24.7c-15.3,0-27,6.9-27,16L9.8,252.4c0,9.1,11.7,16,27,16l376.4,0.2c15.3,0,27-6.9,27-16
		l0.3-211.6c0-9.1-11.7-16-27-16L37.1,24.7z"/>
	
		<linearGradient id="U_1_" gradientUnits="userSpaceOnUse" x1="141.5516" y1="-378.6973" x2="141.6212" y2="-479.5652" gradientTransform="matrix(1.0975 7.910550e-04 7.910550e-04 -1.0975 69.5142 -387.8504)">
		<stop  offset="0" style="stop-color:#AE1010"/>
		<stop  offset="1" style="stop-color:#E85752"/>
	</linearGradient>
	<path id="U" class="st5" d="M59.5,27.9L390,28.2c17.6,0,32.1,8.6,32.1,19.1l-0.3,183.1c0,10.5-14.5,19.1-32.1,19.1l-330.6-0.2
		c-17.6,0-32.1-8.6-32.1-19.1L27.4,47C27.4,36.5,41.5,27.9,59.5,27.9z"/>
	
		<radialGradient id="V_1_" cx="-227.4675" cy="640.6801" r="49.2659" gradientTransform="matrix(2.2939 2.214 2.073 -0.7575 -734.8708 1070.1648)" gradientUnits="userSpaceOnUse">
		<stop  offset="0" style="stop-color:#EEEEEE"/>
		<stop  offset="1" style="stop-color:#E4E4E4"/>
	</radialGradient>
	<path id="V" class="st6" d="M27,107v123.3c0,10.7,14.5,19.1,32.1,19.1h330.6c18,0,32.1-8.6,32.1-19.1V107H27L27,107z"/>
	<path id="W" class="st7" d="M115.9,42.6c0,7.2-9.8,13.3-22.3,13.3c-12.2,0-22.3-5.8-22.3-13.3c0-7.2,9.8-13.3,22.3-13.3
		C105.8,29.3,115.9,35.3,115.9,42.6z"/>
	
		<radialGradient id="X_1_" cx="-63.6594" cy="-403.5053" r="101.9027" gradientTransform="matrix(2.5528 6.944439e-03 8.268787e-03 -1.0721 390.5505 -429.6747)" gradientUnits="userSpaceOnUse">
		<stop  offset="0" style="stop-color:#EEEEEE"/>
		<stop  offset="1" style="stop-color:#EEEEEE;stop-opacity:0"/>
	</radialGradient>
	<path id="X" class="st8" d="M59.5,31.4C45,31.4,33.1,38.3,33.1,47v183.1c0,8.6,11.7,15.6,26.3,15.6l330.6,0.2
		c14.5,0,26.3-6.9,26.3-15.6l0.3-183.1c0-8.6-11.7-15.6-26.3-15.6L59.5,31.4z"/>
	<path id="Y" class="st7" d="M378,42.8c0,7.2-9.8,13.3-22.3,13.3c-12.2,0-22.3-5.8-22.3-13.3c0-7.2,9.8-13.3,22.3-13.3
		C367.7,29.5,378,35.3,378,42.8z"/>
	
		<linearGradient id="Z_1_" gradientUnits="userSpaceOnUse" x1="-321.6273" y1="82.6327" x2="-321.6273" y2="60.1526" gradientTransform="matrix(2.3005 0 0 -2.3005 964.4809 190.0965)">
		<stop  offset="0" style="stop-color:#A3A3A3"/>
		<stop  offset="1" style="stop-color:#BBBBBB"/>
	</linearGradient>
	<path id="Z" class="st9" d="M93.6,0c-8.2,0-14.8,4.1-14.8,9.3v33.4c0,3.2,2.8,6,7.5,7.7c4.7,1.7,10.6,1.9,15.3,0.2
		c4.7-1.7,7.5-4.7,7.5-7.9V9c0-2.3-1.2-4.9-4.4-6.5C101.5,1,97.5-0.2,93.6,0z M354.8,0C346.6,0,340,4.2,340,9.1v33.4
		c0,3.2,2.8,6.3,7.5,7.9c4.7,1.7,10.6,1.7,15.3,0c4.7-1.7,7.8-4.7,7.5-7.9V9c0-2.3-1.6-4.7-4.7-6.3C362.7,1,359.2,0,354.8,0z"/>
	
		<linearGradient id="c_1_" gradientUnits="userSpaceOnUse" x1="-385.0979" y1="71.3743" x2="-371.9892" y2="71.3743" gradientTransform="matrix(2.3005 0 0 -2.3005 964.4809 190.0965)">
		<stop  offset="0" style="stop-color:#000000"/>
		<stop  offset="0.5" style="stop-color:#FFFFFF"/>
		<stop  offset="1" style="stop-color:#000000"/>
	</linearGradient>
	<path id="c" class="st10" d="M93.6,0c-8.2,0-14.8,4.1-14.8,9.3v33.4c0,3.2,2.8,6,7.5,7.7c4.7,1.7,10.6,1.9,15.3,0.2
		c4.7-1.7,7.5-4.7,7.5-7.9V9c0-2.3-1.2-4.9-4.4-6.5C101.5,1,97.5-0.2,93.6,0z"/>
	
		<linearGradient id="d_1_" gradientUnits="userSpaceOnUse" x1="-271.3986" y1="71.3926" x2="-258.3177" y2="71.3926" gradientTransform="matrix(2.3005 0 0 -2.3005 964.4809 190.0965)">
		<stop  offset="0" style="stop-color:#000000"/>
		<stop  offset="0.5" style="stop-color:#FFFFFF"/>
		<stop  offset="1" style="stop-color:#000000"/>
	</linearGradient>
	<path id="d" class="st11" d="M354.8,0C346.6,0,340,4.2,340,9.1v33.4c0,3.2,2.8,6.3,7.5,7.9c4.7,1.7,10.6,1.7,15.3,0
		c4.7-1.7,7.8-4.7,7.5-7.9V9c0-2.3-1.6-4.7-4.7-6.3C362.7,1,359.2,0,354.8,0z"/>
</g>
</svg>
