<?xml version="1.0" encoding="utf-8"?>
<!-- Generator: Adobe Illustrator 23.0.2, SVG Export Plug-In . SVG Version: 6.00 Build 0)  -->
<svg version="1.1" id="Layer_1" xmlns="http://www.w3.org/2000/svg" xmlns:xlink="http://www.w3.org/1999/xlink" x="0px" y="0px"
	 viewBox="0 0 450 280" style="enable-background:new 0 0 450 280;" xml:space="preserve">
<style type="text/css">
	.st0{fill:url(#O_1_);}
	.st1{fill:#8F6B32;}
	.st2{fill:url(#Q_1_);}
	.st3{fill:url(#S_1_);}
	.st4{fill:none;stroke:url(#T_1_);stroke-width:2.366;}
	.st5{fill:url(#U_1_);}
	.st6{fill:url(#V_1_);}
	.st7{fill:#6A0A0A;}
	.st8{fill:none;stroke:url(#X_1_);stroke-width:2.731;}
	.st9{fill:url(#Z_1_);}
	.st10{opacity:0.145;fill:url(#c_1_);enable-background:new    ;}
	.st11{opacity:0.145;fill:url(#d_1_);enable-background:new    ;}
</style>
<path id="N" d="M117.2,28.6l215.9,0.2c11.7,0,20.9,9.4,20.9,21.1l-0.2,204.4c0,11.7-9.4,20.9-21.1,20.9L116.8,275
	c-11.7,0-20.9-9.4-20.9-21.1l0.2-204.4C96.3,38,105.6,28.6,117.2,28.6z"/>
<linearGradient id="O_1_" gradientUnits="userSpaceOnUse" x1="-222.4206" y1="147.4122" x2="-222.4206" y2="144.9552" gradientTransform="matrix(2.391 0 0 10.66 756.6454 -1522.772)">
	<stop  offset="0" style="stop-color:#000000"/>
	<stop  offset="1" style="stop-color:#000000;stop-opacity:0"/>
</linearGradient>
<path id="O" class="st0" d="M112.7,22.5c-5.8,0-11,9.7-14.8,26.3h253.8c-3.8-15.7-9-26.3-14.6-26.3H112.7z"/>
<path id="P" class="st1" d="M117.2,28.6l215.9,0.2c11.7,0,20.9,9.4,20.9,21.1l-0.2,204.4c0,11.7-9.4,20.9-21.1,20.9L116.8,275
	c-11.7,0-20.9-9.4-20.9-21.1l0.2-204.4C96.1,38,105.6,28.6,117.2,28.6z"/>
<linearGradient id="Q_1_" gradientUnits="userSpaceOnUse" x1="159.1271" y1="680.3211" x2="159.2844" y2="905.0493" gradientTransform="matrix(1.0975 7.910550e-04 -7.910550e-04 1.0975 50.8488 -723.8004)">
	<stop  offset="0" style="stop-color:#B3925D"/>
	<stop  offset="1" style="stop-color:#DEBC85"/>
</linearGradient>
<path id="Q" class="st2" d="M117.2,23l215.9,0.2c11.7,0,20.9,9.4,20.9,21.1l-0.2,204.4c0,11.7-9.4,20.9-21.1,20.9l-215.9-0.2
	c-11.7,0-20.9-9.4-20.9-21.1l0.2-204.4C96.1,32.4,105.6,23,117.2,23z"/>
<path id="R" d="M129.6,32.6l189.8,0.2c10.1,0,18.4,8.3,18.4,18.4l-0.2,185.3c0,10.1-8.3,18.4-18.4,18.4l-189.8-0.2
	c-10.1,0-18.4-8.3-18.4-18.4l0.2-185.3C111.2,40.9,119.5,32.6,129.6,32.6z"/>
<linearGradient id="S_1_" gradientUnits="userSpaceOnUse" x1="-210.1999" y1="457.1316" x2="-210.1931" y2="467.8554" gradientTransform="matrix(2.2974 1.700265e-03 -1.615051e-03 2.3005 708.1456 -820.8441)">
	<stop  offset="0" style="stop-color:#EEEEEE"/>
	<stop  offset="1" style="stop-color:#ACACAC"/>
</linearGradient>
<path id="S" class="st3" d="M129.8,32.6l189.6,0.2c10.1,0,18.4,8.3,18.4,18.4l-0.2,185.3c0,10.1-8.3,18.4-18.4,18.4l-189.6-0.2
	c-10.1,0-18.4-8.3-18.4-18.4l0.2-185.3C111.4,40.9,119.7,32.6,129.8,32.6z"/>
<radialGradient id="T_1_" cx="-121.8092" cy="677.7095" r="116.1128" gradientTransform="matrix(1.9306 7.910550e-04 -4.298413e-04 1.049 460.5811 -717.0082)" gradientUnits="userSpaceOnUse">
	<stop  offset="0" style="stop-color:#EEEEEE"/>
	<stop  offset="1" style="stop-color:#EEEEEE;stop-opacity:0"/>
</radialGradient>
<path id="T" class="st4" d="M117.2,28.6c-8.8,0-15.5,6.7-15.5,15.5l-0.2,204.4c0,8.8,6.7,15.5,15.5,15.5l215.9,0.2
	c8.8,0,15.5-6.7,15.5-15.5l0.2-204.4c0-8.8-6.7-15.5-15.5-15.5L117.2,28.6z"/>
<linearGradient id="U_1_" gradientUnits="userSpaceOnUse" x1="158.9287" y1="688.304" x2="158.996" y2="785.7238" gradientTransform="matrix(1.0975 7.910550e-04 -7.910550e-04 1.0975 50.8488 -723.8004)">
	<stop  offset="0" style="stop-color:#AE1010"/>
	<stop  offset="1" style="stop-color:#E85752"/>
</linearGradient>
<path id="U" class="st5" d="M130,31.7L319.6,32c10.1,0,18.4,8.3,18.4,18.4l-0.2,176.8c0,10.1-8.3,18.4-18.4,18.4l-189.6-0.2
	c-10.1,0-18.4-8.3-18.4-18.4l0.2-176.8C111.6,40,119.7,31.7,130,31.7z"/>
<radialGradient id="V_1_" cx="-167.702" cy="-64.5874" r="49.2659" gradientTransform="matrix(1.3157 2.1383 -1.189 0.7316 280.7515 489.0737)" gradientUnits="userSpaceOnUse">
	<stop  offset="0" style="stop-color:#EEEEEE"/>
	<stop  offset="1" style="stop-color:#E4E4E4"/>
</radialGradient>
<path id="V" class="st6" d="M111.4,108.1v119.1c0,10.3,8.3,18.4,18.4,18.4h189.6c10.3,0,18.4-8.3,18.4-18.4V108.1L111.4,108.1
	L111.4,108.1z"/>
<path id="W" class="st7" d="M162.4,45.9c0,7-5.6,12.8-12.8,12.8c-7,0-12.8-5.6-12.8-12.8c0-7,5.6-12.8,12.8-12.8
	C156.6,33.1,162.4,38.9,162.4,45.9z"/>
<radialGradient id="X_1_" cx="-2.3971" cy="694.9854" r="101.9027" gradientTransform="matrix(1.4642 6.706927e-03 -4.742609e-03 1.0354 231.5845 -712.4119)" gradientUnits="userSpaceOnUse">
	<stop  offset="0" style="stop-color:#EEEEEE"/>
	<stop  offset="1" style="stop-color:#EEEEEE;stop-opacity:0"/>
</radialGradient>
<path id="X" class="st8" d="M130,35.1c-8.3,0-15.1,6.7-15.1,15.1v176.8c0,8.3,6.7,15.1,15.1,15.1l189.6,0.2
	c8.3,0,15.1-6.7,15.1-15.1l0.2-176.8c0-8.3-6.7-15.1-15.1-15.1L130,35.1z"/>
<path id="Y" class="st7" d="M312.7,46.1c0,7-5.6,12.8-12.8,12.8c-7,0-12.8-5.6-12.8-12.8c0-7,5.6-12.8,12.8-12.8
	C306.8,33.3,312.7,38.9,312.7,46.1z"/>
<linearGradient id="Z_1_" gradientUnits="userSpaceOnUse" x1="-210.8065" y1="359.2855" x2="-210.8065" y2="380.9967" gradientTransform="matrix(2.3005 0 0 2.3005 709.5829 -821.7844)">
	<stop  offset="0" style="stop-color:#A3A3A3"/>
	<stop  offset="1" style="stop-color:#BBBBBB"/>
</linearGradient>
<path id="Z" class="st9" d="M149.6,4.8c-4.7,0-8.5,4-8.5,9v32.3c0,3.1,1.6,5.8,4.3,7.4c2.7,1.6,6.1,1.8,8.8,0.2
	c2.7-1.6,4.3-4.5,4.3-7.6V13.5c0-2.2-0.7-4.7-2.5-6.3C154.1,5.7,151.8,4.6,149.6,4.8z M299.4,4.8c-4.7,0-8.5,4-8.5,8.8v32.3
	c0,3.1,1.6,6.1,4.3,7.6c2.7,1.6,6.1,1.6,8.8,0c2.7-1.6,4.5-4.5,4.3-7.6V13.5c0-2.2-0.9-4.5-2.7-6.1C303.9,5.7,301.9,4.8,299.4,4.8z"
	/>
<linearGradient id="c_1_" gradientUnits="userSpaceOnUse" x1="-247.1735" y1="370.1682" x2="-239.6549" y2="370.1682" gradientTransform="matrix(2.3005 0 0 2.3005 709.5829 -821.7844)">
	<stop  offset="0" style="stop-color:#000000"/>
	<stop  offset="0.5" style="stop-color:#FFFFFF"/>
	<stop  offset="1" style="stop-color:#000000"/>
</linearGradient>
<path id="c" class="st10" d="M149.6,4.8c-4.7,0-8.5,4-8.5,9v32.3c0,3.1,1.6,5.8,4.3,7.4c2.7,1.6,6.1,1.8,8.8,0.2
	c2.7-1.6,4.3-4.5,4.3-7.6V13.5c0-2.2-0.7-4.7-2.5-6.3C154.1,5.7,151.8,4.6,149.6,4.8z"/>
<linearGradient id="d_1_" gradientUnits="userSpaceOnUse" x1="-181.9606" y1="370.1487" x2="-174.458" y2="370.1487" gradientTransform="matrix(2.3005 0 0 2.3005 709.5829 -821.7844)">
	<stop  offset="0" style="stop-color:#000000"/>
	<stop  offset="0.5" style="stop-color:#FFFFFF"/>
	<stop  offset="1" style="stop-color:#000000"/>
</linearGradient>
<path id="d" class="st11" d="M299.4,4.8c-4.7,0-8.5,4-8.5,8.8v32.3c0,3.1,1.6,6.1,4.3,7.6c2.7,1.6,6.1,1.6,8.8,0
	c2.7-1.6,4.5-4.5,4.3-7.6V13.5c0-2.2-0.9-4.5-2.7-6.1C303.9,5.7,301.9,4.8,299.4,4.8z"/>
</svg>
