<?xml version="1.0" encoding="utf-8"?>
<!-- Generator: Adobe Illustrator 23.0.2, SVG Export Plug-In . SVG Version: 6.00 Build 0)  -->
<svg version="1.1" id="Layer_1" xmlns="http://www.w3.org/2000/svg" xmlns:xlink="http://www.w3.org/1999/xlink" x="0px" y="0px"
	 viewBox="0 0 148.7 54.1" style="enable-background:new 0 0 148.7 54.1;" xml:space="preserve">
<style type="text/css">
	.st0{fill-rule:evenodd;clip-rule:evenodd;fill:#162B75;}
	.st1{fill:#FFFFFF;}
</style>
<path class="st0" d="M15.9,22.5c0-2.5,4.5-0.4,4.5-5v-0.1c0-1.6-1.4-3.1-3-3.1h-0.4c-1.3,0-2.9,1.5-2.9,2.5v1.5
	c0,1.2,1.2,1.9,1.4,2.5h-2.2c-2.6,0-4.7-1.9-5.5-1.9H7.5C7,18.9,7,19,6.5,19c-0.1,0.4-0.3,0.6-0.3,0.9c0,1.6,1.9,1.3,3.2,1.7
	c1.3,0.4,2,1.3,3,2c2.1,0,2.9,0.3,2.9,2.5v0.2c0,0.7-0.3,1-1,1h-1v2c0,1.1,3.3,1.5,4.6,1.5c1.3,0,3.8-0.8,3.8-1.9v-0.6
	c0-0.6-0.1-1.1-0.3-1.5l7.1,0.3c0.5,0,1-0.6,1-1.2V25c0-0.4-0.1-0.4-0.1-0.7l-3.9,0.3l-1.5,0c-1.3,0-1.9-0.5-3-0.1
	c-0.5,0.2-2.1,0.8-2.5,0.8h-0.1C16.9,25.3,15.9,24,15.9,22.5"/>
<path class="st1" d="M15.9,22.5h-0.5c0-0.4,0.1-0.7,0.3-1c0.2-0.3,0.4-0.4,0.6-0.6c0.4-0.2,0.8-0.3,1.2-0.5c0.6-0.2,1.2-0.4,1.6-0.7
	c0.2-0.2,0.4-0.4,0.5-0.8c0.1-0.4,0.2-0.8,0.2-1.4v-0.1c0-0.6-0.3-1.3-0.8-1.8c-0.5-0.5-1.1-0.8-1.8-0.8h-0.4
	c-0.2,0-0.5,0.1-0.8,0.2c-0.4,0.2-0.9,0.5-1.2,0.9c-0.1,0.2-0.3,0.4-0.4,0.5c-0.1,0.2-0.1,0.3-0.1,0.4v1.5c0,0.2,0.1,0.4,0.1,0.6
	c0.1,0.3,0.4,0.5,0.6,0.8c0.1,0.1,0.3,0.3,0.4,0.4s0.2,0.3,0.3,0.5l0.2,0.7h-2.9c-1.4,0-2.7-0.5-3.6-1c-0.5-0.3-0.9-0.5-1.2-0.6
	c-0.2-0.1-0.3-0.2-0.4-0.2c-0.1,0-0.2,0-0.2,0H7.5c-0.2,0-0.3,0-0.4,0c-0.1,0-0.3,0.1-0.6,0.1L6.5,19L7,19.1
	c-0.1,0.3-0.2,0.5-0.2,0.6c-0.1,0.1-0.1,0.2-0.1,0.2c0,0.1,0,0.3,0.1,0.4c0.1,0.1,0.1,0.2,0.3,0.3c0.2,0.1,0.6,0.2,1.1,0.3
	c0.5,0,1,0.1,1.5,0.3c0.7,0.2,1.3,0.6,1.8,1c0.5,0.4,0.9,0.8,1.4,1.1l-0.3,0.4V23c0.5,0,1,0,1.4,0.1c0.3,0,0.6,0.1,0.9,0.3
	c0.4,0.2,0.7,0.6,0.9,1c0.2,0.5,0.2,1,0.2,1.6v0.2c0,0.2,0,0.4-0.1,0.6c-0.1,0.3-0.3,0.5-0.6,0.7s-0.6,0.2-0.9,0.2h-0.5v1.5l0,0
	c0.1,0.1,0.3,0.2,0.6,0.4c0.5,0.2,1.1,0.3,1.8,0.4c0.6,0.1,1.3,0.1,1.7,0.1c0.6,0,1.5-0.2,2.2-0.5c0.4-0.2,0.7-0.4,0.9-0.5l0.2-0.2
	l0-0.2v-0.6c0-0.5-0.1-1-0.2-1.2l-0.4-0.8l7.9,0.3h0c0.1,0,0.2,0,0.3-0.2c0.1-0.1,0.2-0.3,0.2-0.5V25c0-0.2,0-0.2,0-0.3
	c0,0-0.1-0.2-0.1-0.4l0.5-0.1l0,0.5l-3.9,0.3l-1.5,0l0-0.5v0.5c-0.5,0-0.9-0.1-1.3-0.1c-0.4-0.1-0.6-0.1-0.9-0.1
	c-0.2,0-0.4,0-0.7,0.1c-0.3,0.1-0.8,0.3-1.3,0.5c-0.3,0.1-0.5,0.2-0.7,0.2l-0.3,0.1l-0.3,0h-0.1c-0.9,0-1.6-0.4-2.2-1
	s-0.8-1.4-0.8-2.3h1c0,0.6,0.2,1.2,0.6,1.6s0.8,0.7,1.4,0.7h0.1v0.1l0-0.1h0v0.1l0-0.1c0,0,0.2,0,0.4-0.1c0.3-0.1,0.7-0.2,1.1-0.4
	c0.4-0.1,0.7-0.3,0.9-0.3c0.4-0.1,0.7-0.2,1-0.2c0.4,0,0.7,0.1,1,0.1c0.3,0.1,0.7,0.1,1.1,0.1h0l1.4,0l4.3-0.4l0.1,0.4
	c0,0.1,0,0.2,0.1,0.3c0,0.1,0.1,0.3,0.1,0.5v0.9c0,0.4-0.1,0.8-0.4,1.1c-0.3,0.3-0.6,0.5-1.1,0.5h-0.1l0-0.5l0,0.5l-7.1-0.3l0-0.5
	l0.5-0.2c0.2,0.5,0.3,1,0.3,1.7v0.6c0,0.2-0.1,0.5-0.2,0.6c-0.2,0.3-0.5,0.6-0.8,0.8c-0.5,0.3-1.1,0.5-1.6,0.7
	c-0.6,0.2-1.2,0.3-1.7,0.3c-0.7,0-1.9-0.1-2.9-0.4c-0.5-0.1-1-0.3-1.4-0.5c-0.2-0.1-0.4-0.3-0.5-0.4s-0.3-0.4-0.3-0.7v-2.5h1.5
	c0.1,0,0.2,0,0.3,0l0.2-0.1c0,0,0.1-0.2,0.1-0.4V26c0-0.5-0.1-0.9-0.1-1.2c-0.1-0.2-0.1-0.3-0.2-0.4c-0.1-0.1-0.3-0.3-0.7-0.3
	s-0.8-0.1-1.4-0.1h-0.1L12.2,24c-0.5-0.4-1-0.8-1.4-1.1s-0.9-0.6-1.5-0.8c-0.3-0.1-0.6-0.1-1-0.2c-0.6-0.1-1.1-0.1-1.7-0.4
	c-0.3-0.1-0.5-0.3-0.7-0.6c-0.2-0.3-0.3-0.6-0.3-1c0-0.3,0.1-0.5,0.2-0.6C5.9,19.1,6,19,6,18.9l0.1-0.4l0.4,0c0.2,0,0.3,0,0.4-0.1
	c0.2,0,0.4-0.1,0.6-0.1h0.3c0.2,0,0.4,0,0.5,0.1c0.3,0.1,0.6,0.3,1,0.5c1.1,0.6,2.4,1.3,4,1.3h2.2v0.5L15,20.9c0,0-0.1-0.2-0.2-0.3
	c-0.2-0.2-0.5-0.5-0.8-0.9s-0.5-0.9-0.5-1.5v-1.5c0-0.4,0.1-0.7,0.4-1.1c0.3-0.5,0.8-0.9,1.3-1.3c0.5-0.4,1.1-0.6,1.8-0.6h0.4
	c1,0,1.8,0.4,2.5,1.1c0.6,0.6,1.1,1.5,1.1,2.5v0.1c0,0.6-0.1,1.1-0.2,1.6c-0.2,0.8-0.7,1.3-1.2,1.7c-0.8,0.5-1.6,0.6-2.2,0.8
	c-0.3,0.1-0.5,0.2-0.6,0.3l-0.1,0.2c0,0.1,0,0.2,0,0.4L15.9,22.5"/>
<path class="st0" d="M31.4,20.3c0-0.9,1.3-1.9,1.3-2.3v-0.4c0-1.3-1.6-2.9-2.9-2.9h-0.6c-1.6,0-3,1.5-3,3.1v0.6
	c0,1.8,1.3,2.1,1.3,2.6l-0.3,0.4c-2,0-3.7,0.4-5.4,0.4c-1.3,0-5.1-0.5-5.1,0.7c0,0.8,0.5,1.9,1.2,1.9h0.7c0.6,0,1.6-0.7,2.3-0.9
	c0.6-0.2,2,0,3,0c1.5,0,2.8-0.2,4.1-0.1c1.8,0,2.5,0,2.5,1.8v1.2c0,0.5-1.1,1.6-1.6,1.6h-0.9l-2.2-0.2c0.3,3.8,8,1.9,8-0.4v-1.2
	l-0.3-3.1c3.2,0,5.6-1.5,5.6-4.7c-0.6,0.2-1.3,1.4-1.5,2c-0.5,0-2.1,0.6-2.3,0.9c-0.3,0.4-0.9,1.5-1.8,1.5h-0.6
	c-0.5,0-1.5-1-1.5-1.8L31.4,20.3"/>
<path class="st1" d="M31.4,20.3h-0.5c0-0.4,0.1-0.7,0.3-0.9c0.2-0.4,0.5-0.8,0.7-1c0.1-0.1,0.2-0.3,0.3-0.4l0-0.1l0.2,0h-0.2l0,0
	l0.2,0h-0.2v-0.4c0-0.2-0.1-0.5-0.2-0.8c-0.2-0.4-0.6-0.9-1-1.2c-0.4-0.3-0.9-0.5-1.2-0.5h-0.6c-0.6,0-1.3,0.3-1.8,0.8
	c-0.5,0.5-0.8,1.1-0.8,1.8v0.6c0,0.4,0.1,0.7,0.2,0.9c0.1,0.4,0.4,0.6,0.6,0.8c0.1,0.1,0.2,0.2,0.3,0.4l0.1,0.3
	c0,0.1,0.1,0.2,0.1,0.3c0,0.1,0,0.2,0,0.2l-0.1,0.2l-0.1,0.2l-0.1,0.1l-0.1,0.2h-0.2c-1.9,0-3.5,0.4-5.3,0.4h0
	c-0.6,0-1.6-0.1-2.6-0.1c-0.6,0-1.2,0-1.6,0.1c-0.2,0-0.3,0.1-0.4,0.2l0,0h0h0h0h0c0,0.3,0.1,0.7,0.3,1c0.1,0.1,0.2,0.3,0.3,0.3
	l0.1,0.1h0.7c0.1,0,0.2,0,0.4-0.1c0.2-0.1,0.5-0.2,0.9-0.4s0.6-0.3,0.9-0.4c0.3-0.1,0.6-0.1,0.9-0.1c0.4,0,0.8,0,1.2,0.1
	c0.4,0,0.8,0.1,1.1,0.1c1.4,0,2.7-0.1,4-0.1h0.1c0.4,0,0.8,0,1.1,0c0.3,0,0.5,0,0.7,0.1c0.2,0,0.3,0.1,0.5,0.3
	c0.2,0.2,0.4,0.5,0.5,0.8c0.1,0.3,0.1,0.6,0.1,1v1.2c0,0.1,0,0.3-0.1,0.4c-0.1,0.2-0.2,0.4-0.3,0.6c-0.2,0.3-0.5,0.5-0.7,0.7
	c-0.1,0.1-0.3,0.2-0.4,0.3c-0.1,0.1-0.3,0.1-0.5,0.1h-0.9l-2.2-0.2l0-0.5l0.5,0c0,0.3,0.1,0.6,0.2,0.8c0.2,0.3,0.5,0.5,0.9,0.7
	c0.4,0.2,0.9,0.2,1.5,0.2c1,0,2.2-0.3,3.1-0.7c0.4-0.2,0.8-0.5,1-0.7s0.3-0.5,0.3-0.6v-1.1l-0.4-3.6h0.6c1.5,0,2.8-0.4,3.7-1
	c0.4-0.3,0.8-0.8,1-1.3c0.2-0.5,0.4-1.1,0.4-1.9h0.5l0.1,0.5l-0.3,0.2c-0.2,0.2-0.4,0.5-0.5,0.7c-0.2,0.3-0.3,0.6-0.3,0.8L37.9,21
	l-0.4,0c-0.1,0-0.3,0-0.5,0.1c-0.3,0.1-0.7,0.2-1,0.4c-0.2,0.1-0.3,0.1-0.4,0.2l-0.1,0.1l0,0l-0.1-0.1l0.1,0.1l0,0l-0.1-0.1l0.1,0.1
	v0v0c-0.2,0.2-0.4,0.6-0.7,0.9c-0.2,0.2-0.3,0.3-0.6,0.5c-0.2,0.1-0.5,0.2-0.8,0.2h-0.6c-0.3,0-0.5-0.1-0.7-0.3
	c-0.3-0.2-0.6-0.5-0.8-0.8c-0.2-0.3-0.4-0.7-0.4-1.2v-0.7h1v0.7c0,0.1,0,0.2,0.1,0.4c0.1,0.2,0.3,0.5,0.5,0.6l0.3,0.2l0.1,0h0v0v0
	l0,0v0v0h0.6c0.1,0,0.2,0,0.3-0.1c0.2-0.1,0.4-0.3,0.5-0.5c0.2-0.2,0.3-0.5,0.5-0.6v0v0l0.3-0.2c0.2-0.1,0.3-0.2,0.5-0.3
	c0.3-0.1,0.7-0.3,1-0.4c0.3-0.1,0.6-0.2,0.9-0.2l0,0.5L37,20.4c0.1-0.4,0.3-0.9,0.6-1.4c0.2-0.2,0.3-0.4,0.5-0.6
	c0.2-0.2,0.4-0.3,0.7-0.4l0.6-0.2v0.6c0,0.9-0.2,1.6-0.5,2.3c-0.5,1-1.3,1.7-2.2,2.2c-1,0.5-2.1,0.7-3.4,0.7v-0.5l0.5-0.1l0.3,3.1
	v1.2c0,0.5-0.3,1-0.6,1.3c-0.5,0.5-1.3,1-2.1,1.3c-0.9,0.3-1.8,0.5-2.7,0.5c-0.9,0-1.7-0.1-2.3-0.6c-0.3-0.2-0.6-0.5-0.8-0.8
	c-0.2-0.4-0.4-0.8-0.4-1.2l0-0.6l2.7,0.2h0.9v0.1l0-0.1h0v0.1l0-0.1v0v0v0v0c0,0,0.1,0,0.3-0.2c0.2-0.1,0.4-0.4,0.6-0.6l0.2-0.3
	l0-0.1v0l0.1,0h-0.1v0l0.1,0h-0.1v-1.2c0-0.4,0-0.7-0.1-0.9c0-0.1-0.1-0.2-0.1-0.2c-0.1,0-0.2-0.1-0.5-0.1c-0.3,0-0.7,0-1.2,0h-0.1
	c-1.2,0-2.5,0.1-4,0.1c-0.4,0-0.8,0-1.1-0.1c-0.4,0-0.8-0.1-1.1-0.1c-0.3,0-0.5,0-0.5,0.1c-0.3,0.1-0.7,0.3-1.1,0.5
	c-0.2,0.1-0.4,0.2-0.6,0.3c-0.2,0.1-0.4,0.1-0.7,0.1h-0.7c-0.3,0-0.6-0.1-0.8-0.3c-0.3-0.3-0.5-0.6-0.6-1c-0.1-0.4-0.2-0.8-0.2-1.1
	c0-0.2,0-0.3,0.1-0.5c0.1-0.2,0.3-0.4,0.5-0.5c0.3-0.2,0.7-0.2,1.1-0.3c0.4,0,0.8-0.1,1.3-0.1c1,0,2.1,0.1,2.6,0.1h0
	c1.6,0,3.3-0.4,5.3-0.4v0.5l-0.4-0.3l0.2-0.3l0.1-0.1l0.2,0.1L27,20.8l0,0l0.2,0.1L27,20.8l0.4,0.1H27l0-0.1l0.4,0.1H27h0.2L27,21
	v-0.1h0.2L27,21l0.1,0L27,21l0,0l0.1,0L27,21h0h0h0h0c0,0-0.1-0.1-0.2-0.3c-0.2-0.2-0.5-0.5-0.7-0.9c-0.2-0.4-0.4-0.9-0.4-1.6v-0.6
	c0-1,0.4-1.8,1.1-2.5c0.6-0.6,1.5-1.1,2.5-1.1h0.6c0.4,0,0.8,0.1,1.2,0.3c0.6,0.3,1.1,0.8,1.5,1.3c0.4,0.5,0.7,1.1,0.7,1.8V18
	c0,0.2-0.1,0.3-0.1,0.4c-0.1,0.2-0.2,0.3-0.3,0.5c-0.2,0.3-0.4,0.5-0.6,0.8c-0.2,0.3-0.3,0.5-0.3,0.6L31.4,20.3"/>
<path class="st0" d="M22,12.6h-0.4c-1.3,0-1.6-0.7-2.4-1.3l-2.1,2l0.1,0.1c2.1,0,4.1,1.9,4.1,3.9v0.7c0,0.6-0.2,0.8-0.3,1.3l1.7,0.2
	c0.7,0.1,2.5-0.2,2.5-0.9l0-0.1l0-3.6c0.7-1.1,2-2.7,3.6-2.8l-0.5-1.3L25,10.6C24.3,11.6,23.7,12.6,22,12.6"/>
<path class="st1" d="M22,12.6v0.5h-0.4c-0.7,0-1.3-0.2-1.7-0.5c-0.4-0.3-0.7-0.6-1-0.8l0.3-0.4l0.3,0.4l-2.1,2l-0.3-0.4l0.4-0.3
	l0.1,0.1l-0.4,0.3V13c1.2,0,2.3,0.5,3.2,1.3c0.8,0.8,1.4,1.9,1.4,3.1v0.7c0,0.4,0,0.6-0.1,0.8c-0.1,0.2-0.1,0.4-0.2,0.6L21,19.4
	l0-0.5l1.7,0.2H23c0.4,0,0.9-0.1,1.2-0.2c0.2-0.1,0.4-0.1,0.4-0.2l0,0v0l0,0l0,0l0,0l0,0l0.1,0h-0.1l0,0l0.1,0h-0.1h0.5l-0.5,0.1
	l0-0.1l0,0l0-3.9l0.1-0.1c0.4-0.6,0.9-1.3,1.6-1.8c0.7-0.6,1.5-1.1,2.5-1.2l0,0.5l-0.5,0.2l-0.4-1l-3-0.3l0-0.5l0.4,0.3
	c-0.3,0.5-0.7,1.1-1.2,1.5c-0.5,0.4-1.3,0.8-2.2,0.8v-1c0.8,0,1.2-0.2,1.6-0.5c0.4-0.3,0.7-0.8,1-1.3l0.2-0.2l3.9,0.4l0.8,2.2
	l-0.6,0.1c-0.7,0.1-1.3,0.4-1.9,0.9c-0.6,0.5-1,1.1-1.4,1.7l-0.4-0.3h0.5l0,3.6l0,0.1l0,0v0c0,0.2,0,0.3-0.1,0.5
	c-0.1,0.2-0.3,0.4-0.5,0.5c-0.3,0.2-0.6,0.3-1,0.3c-0.4,0.1-0.7,0.1-1,0.1l-0.3,0l0.1-0.5l0,0.5l-2.3-0.2l0.1-0.5
	c0.1-0.3,0.1-0.5,0.2-0.6c0-0.2,0.1-0.3,0.1-0.5v-0.7c0-0.9-0.4-1.8-1.1-2.4c-0.7-0.6-1.6-1.1-2.5-1.1H17l-0.3-0.3l-0.3-0.4l2.7-2.6
	l0.3,0.3c0.4,0.3,0.7,0.6,1,0.8c0.3,0.2,0.5,0.3,1.1,0.3H22L22,12.6"/>
<path class="st0" d="M20.5,37h1.3c0.4-0.3,1.2-0.5,1.2-1v-1c0-0.7-1.1-3.6-1.3-4.5c-1.3,0.3-1.4,1-3.8,1h-0.3L13.9,31
	c-0.3,0-0.7,3.2-0.7,3.6v0.6c0,0.6,1.3,0.9,2,0.9h0.4c0.7,0,1.3-0.7,1.6-1.2l0.2-2.3l0.5,0c0.7,0,1.1,1.7,1.1,2.3
	C19.4,37.5,19.4,36,20.5,37"/>
<path class="st1" d="M20.5,37v-0.5h1.3V37l-0.3-0.4c0.1-0.1,0.3-0.2,0.4-0.2c0.2-0.1,0.4-0.2,0.5-0.3l0.1-0.1v0v-1c0,0,0-0.1,0-0.3
	c-0.1-0.5-0.4-1.3-0.6-2.1c-0.1-0.4-0.3-0.8-0.4-1.2s-0.2-0.6-0.3-0.9l0.5-0.1l0.1,0.5c-0.3,0.1-0.5,0.2-0.7,0.3
	c-0.3,0.1-0.6,0.4-1.1,0.5c-0.5,0.2-1.1,0.3-2,0.3h-0.3l-3.8-0.4l0,0l0.1-0.5v0.5l-0.1,0l0.1-0.5v0.5v-0.5l0.2,0.4l-0.2,0.1v-0.5
	l0.2,0.4l-0.2-0.3l0.3,0.2l-0.1,0.1l-0.2-0.3l0.3,0.2v0l-0.1,0.2c-0.1,0.4-0.2,1.1-0.3,1.7c-0.1,0.3-0.1,0.6-0.1,0.9
	c0,0.2,0,0.4,0,0.5v0.6h-0.1l0.1,0l0,0h-0.1l0.1,0l0,0c0.1,0.1,0.4,0.2,0.6,0.3c0.3,0.1,0.6,0.1,0.9,0.1h0.4l0.3-0.1
	c0.2-0.1,0.3-0.2,0.5-0.4c0.1-0.2,0.3-0.3,0.4-0.5l0.4,0.3l-0.5,0l0.3-2.8l1,0l0,0.5v-0.5c0.2,0,0.4,0.1,0.5,0.1
	c0.3,0.2,0.4,0.4,0.5,0.6c0.2,0.3,0.3,0.7,0.4,1.1c0.1,0.4,0.1,0.7,0.2,1c0.1,0.6,0.1,1,0.2,1.2l0,0.1l-0.1,0l0.1,0l0,0l-0.1,0
	l0.1,0l-0.2,0.1l0.1-0.2l0.1,0.1l-0.2,0.1l0.1-0.2l-0.1,0.2l0-0.2l0.1,0l-0.1,0.2l0-0.2l0,0.1l0-0.1l0,0l0,0.1l0-0.1l0.1,0
	c0.1,0,0.3,0,0.5,0.1c0.2,0.1,0.4,0.2,0.6,0.4L20.5,37v-0.5V37l-0.3,0.4c-0.2-0.2-0.4-0.2-0.4-0.3c-0.1,0-0.1,0-0.3,0l-0.2,0
	c-0.1,0-0.3-0.2-0.4-0.3c-0.1-0.2-0.2-0.4-0.2-0.6c0-0.3-0.1-0.6-0.1-1.1c0-0.3-0.1-0.9-0.3-1.3c-0.1-0.2-0.2-0.4-0.3-0.5l-0.1-0.1
	l0,0v0v0l0,0v0v0h-0.1l-0.2,2l-0.1,0.1c-0.2,0.3-0.4,0.6-0.7,0.9c-0.2,0.1-0.4,0.3-0.6,0.4c-0.2,0.1-0.5,0.2-0.7,0.2h-0.4
	c-0.4,0-0.9-0.1-1.4-0.2c-0.2-0.1-0.5-0.2-0.7-0.3c-0.1-0.1-0.2-0.2-0.3-0.3c-0.1-0.1-0.1-0.3-0.1-0.5v-0.6c0-0.1,0-0.2,0-0.3
	c0.1-0.5,0.2-1.3,0.3-2.1c0.1-0.4,0.1-0.7,0.2-1c0-0.1,0.1-0.3,0.1-0.4l0.1-0.2l0.1-0.1l0.3-0.1h0.1L13.9,31l0.1-0.5l3.7,0.4h0.3
	c0.6,0,1,0,1.3-0.1c0.5-0.1,0.8-0.3,1.1-0.4c0.3-0.2,0.7-0.4,1.2-0.5l0.5-0.1l0.1,0.5c0,0.2,0.1,0.5,0.3,1c0.2,0.6,0.5,1.4,0.6,2.1
	c0.1,0.3,0.2,0.7,0.3,0.9c0,0.1,0.1,0.3,0.1,0.4l0,0.3v1c0,0.3-0.1,0.5-0.2,0.7c-0.2,0.3-0.4,0.4-0.6,0.5c-0.2,0.1-0.4,0.2-0.5,0.3
	L22,37.5h-1.6l-0.1-0.1L20.5,37"/>
<path class="st0" d="M29.2,35.5c0-1.4,0-3.5,0.7-4.1l0.9,2.2c0.4,0,0.5,0.2,1,0.2H33c0.4,0,1.2-0.3,1.2-0.7c0-0.9-0.7-1.8-0.7-2.9
	v-0.7c-0.8,0.2-2.3,1.3-3.6,1.3h-2c-0.9,0-1.5-0.8-2.2-0.9v1c0,1.4-0.7,3.2-0.7,4.5c0.7,0.4,1.2,0.7,2.3,0.7h0.4
	C28.4,36.1,28.8,35.8,29.2,35.5"/>
<path class="st1" d="M29.2,35.5h-0.5c0-0.2,0-0.4,0-0.6c0-0.7,0-1.5,0.1-2.2c0-0.3,0.1-0.7,0.3-1c0.1-0.3,0.3-0.6,0.6-0.8l0.5-0.4
	l1.1,2.8l-0.5,0.2l0-0.5c0.3,0,0.4,0.1,0.5,0.1c0.1,0,0.2,0,0.4,0H33c0.1,0,0.4,0,0.5-0.1l0.2-0.1l0,0l0,0h-0.1l0,0l0,0h-0.1
	c0-0.3-0.1-0.7-0.3-1.2c-0.2-0.5-0.4-1-0.4-1.7v-0.7h0.5l0.1,0.5c-0.1,0-0.4,0.1-0.6,0.3c-0.4,0.2-0.9,0.5-1.4,0.7
	c-0.5,0.2-1.1,0.4-1.7,0.4h-2c-0.6,0-1.1-0.3-1.4-0.5c-0.2-0.1-0.3-0.2-0.5-0.3c-0.1-0.1-0.2-0.1-0.3-0.1l0-0.5h0.5v1
	c0,0.8-0.2,1.6-0.4,2.4c-0.2,0.8-0.4,1.6-0.4,2.1h-0.5l0.2-0.4c0.4,0.2,0.7,0.4,1,0.5s0.6,0.2,1.1,0.2h0.4c0.3,0,0.5-0.1,0.7-0.1
	c0.2-0.1,0.4-0.2,0.6-0.4L29.2,35.5h-0.5H29.2l0.3,0.4c-0.2,0.1-0.5,0.3-0.8,0.5c-0.3,0.1-0.7,0.2-1.1,0.2h-0.4
	c-0.6,0-1.1-0.1-1.5-0.3c-0.4-0.1-0.7-0.3-1.1-0.5l-0.3-0.1v-0.3c0-0.8,0.2-1.6,0.4-2.4c0.2-0.8,0.4-1.6,0.4-2.2v-1.6l0.5,0
	c0.3,0,0.5,0.1,0.7,0.2c0.3,0.2,0.5,0.3,0.8,0.5c0.2,0.1,0.5,0.2,0.7,0.2h2c0.5,0,1.2-0.2,1.8-0.5c0.3-0.1,0.6-0.3,0.9-0.4
	c0.3-0.1,0.5-0.3,0.8-0.3l0.6-0.2v1.4c0,0.4,0.2,0.9,0.3,1.4c0.2,0.5,0.4,1,0.4,1.6c0,0.3-0.1,0.5-0.2,0.6c-0.2,0.2-0.4,0.4-0.7,0.5
	s-0.5,0.1-0.7,0.1h-1.2c-0.3,0-0.5,0-0.6-0.1c-0.1,0-0.2-0.1-0.4-0.1l-0.3,0l-1-2.5l0.5-0.2l0.3,0.4c-0.1,0-0.1,0.1-0.2,0.4
	c-0.1,0.3-0.2,0.7-0.2,1.2c0,0.5,0,1,0,1.5v0.8l-0.2,0.1L29.2,35.5"/>
<path class="st0" d="M5.9,14.4V16l1.4,2c0.9,0,1.4,0.4,1.9,0.4c1.5,0,2.9-1.6,2.9-3.1v-0.9c0-1.4-1.5-2.8-3-2.8H8.8
	C6.8,11.7,6.6,13.4,5.9,14.4"/>
<path class="st1" d="M5.9,14.4h0.5v1.4l1.3,1.9L7.4,18v-0.5c0.5,0,1,0.1,1.3,0.3c0.2,0,0.3,0.1,0.4,0.1l0.2,0c0.6,0,1.2-0.3,1.6-0.8
	c0.5-0.5,0.8-1.2,0.8-1.8v-0.9c0-0.5-0.3-1.1-0.8-1.5c-0.5-0.5-1.1-0.8-1.8-0.8H8.8c-0.4,0-0.7,0.1-1,0.2c-0.3,0.2-0.6,0.5-0.8,0.9
	c-0.2,0.4-0.4,0.9-0.7,1.3L5.9,14.4h0.5H5.9l-0.4-0.3C5.8,13.7,6,13,6.5,12.4c0.2-0.3,0.5-0.6,0.9-0.8c0.4-0.2,0.9-0.3,1.5-0.3h0.3
	c0.9,0,1.8,0.4,2.4,1c0.6,0.6,1.1,1.4,1.1,2.3v0.9c0,0.9-0.4,1.8-1,2.4C11,18.5,10.2,19,9.3,19c-0.2,0-0.4,0-0.5-0.1
	c-0.5-0.2-0.8-0.3-1.4-0.3H7.1l-1.7-2.4v-1.9l0.1-0.1L5.9,14.4"/>
<path class="st0" d="M33.1,13.2v0.6c0,1.5,1.3,2.9,2.8,2.9h0.3c0.9,0,1.7-1.3,2.2-1.6c0-0.9,0.3-0.9,0.3-1.3c0-1.7-1-3.7-2.6-3.7
	C34.3,10.1,33.1,11.4,33.1,13.2"/>
<path class="st1" d="M33.1,13.2h0.5v0.6c0,0.6,0.3,1.2,0.7,1.7c0.4,0.4,1,0.7,1.6,0.7h0.3c0.1,0,0.2,0,0.4-0.1
	c0.2-0.2,0.5-0.4,0.8-0.7c0.1-0.1,0.3-0.3,0.4-0.4c0.1-0.1,0.2-0.2,0.4-0.3l0.3,0.4h-0.5c0-0.3,0-0.4,0.1-0.6c0-0.3,0.2-0.4,0.2-0.5
	l0-0.1c0-0.8-0.2-1.6-0.6-2.2c-0.2-0.3-0.4-0.5-0.7-0.7c-0.3-0.2-0.5-0.3-0.8-0.3c-0.8,0-1.3,0.3-1.8,0.7c-0.4,0.4-0.7,1.1-0.7,1.9
	h-1c0-1,0.3-1.9,0.9-2.6s1.5-1,2.5-1c0.5,0,1,0.2,1.3,0.4c0.6,0.4,1,1,1.3,1.6c0.3,0.7,0.5,1.4,0.5,2.1c0,0.2,0,0.3-0.1,0.4
	c-0.1,0.2-0.1,0.2-0.2,0.3c0,0.1-0.1,0.3-0.1,0.6v0.3l-0.2,0.2c0,0-0.2,0.1-0.3,0.3c-0.2,0.2-0.5,0.6-0.9,0.8
	c-0.2,0.1-0.4,0.3-0.6,0.4s-0.4,0.2-0.7,0.2h-0.3c-0.9,0-1.7-0.4-2.3-1.1c-0.6-0.6-1-1.5-1-2.4v-0.6L33.1,13.2"/>
<path class="st0" d="M12.4,27C11.7,26,9,25,8.8,22.8c1.2,0.1,2.7,3.7,5.1,3.7h0.6v-0.6c0-1.1-0.3-1.6-1.4-1.6
	c-1.4,0-1.4-0.3-2.1-0.9c-1.7-1.3-2.1-1.1-4.4-1.6v0.6l0.3,4.2c1.3,0.4,1.7,0.9,3.6,0.9h0.3C11.5,27.5,11.9,27.3,12.4,27"/>
<path class="st1" d="M12.4,27L12,27.3c-0.1-0.2-0.4-0.4-0.8-0.7c-0.5-0.4-1.2-0.9-1.8-1.5c-0.6-0.6-1.1-1.4-1.2-2.3l-0.1-0.6l0.6,0
	c0.3,0,0.5,0.1,0.7,0.3c0.4,0.2,0.6,0.6,1,0.9c0.5,0.5,1,1.2,1.6,1.7c0.3,0.3,0.6,0.4,0.9,0.6c0.3,0.1,0.6,0.2,0.9,0.2H14v-0.1
	c0-0.2,0-0.4-0.1-0.6c-0.1-0.2-0.1-0.3-0.2-0.4c-0.1-0.1-0.3-0.1-0.7-0.1h0l0-0.5v0.5h0c-0.4,0-0.6,0-0.9-0.1
	c-0.4,0-0.7-0.2-0.9-0.4c-0.2-0.2-0.4-0.4-0.7-0.6c-0.8-0.6-1.3-0.8-1.8-1c-0.6-0.2-1.2-0.2-2.4-0.5l0.1-0.5H7v0.6l0.3,4.2l-0.5,0
	l0.1-0.5c0.7,0.2,1.1,0.4,1.6,0.6s1,0.3,1.9,0.3h0.3c0.7,0,1.1-0.1,1.5-0.4L12.4,27L12,27.3L12.4,27l0.2,0.4c-0.5,0.3-1.1,0.5-2,0.5
	h-0.3c-1,0-1.6-0.1-2.2-0.3c-0.6-0.2-1-0.4-1.5-0.6L6.3,27L6,22.4v-1.2l0.6,0.1c1.1,0.3,1.8,0.3,2.4,0.5c0.7,0.2,1.3,0.5,2.1,1.1
	c0.2,0.2,0.4,0.3,0.5,0.4c0.2,0.2,0.3,0.2,0.4,0.3c0.2,0,0.4,0.1,0.9,0.1h0v0.1v-0.1v0.1v-0.1c0.3,0,0.6,0,0.9,0.1
	c0.2,0.1,0.4,0.2,0.5,0.3c0.2,0.2,0.4,0.5,0.4,0.8c0.1,0.3,0.1,0.6,0.1,0.9V27h-1.1c-0.7,0-1.4-0.3-1.9-0.6c-0.8-0.6-1.5-1.4-2.1-2
	c-0.3-0.3-0.5-0.6-0.7-0.8l-0.3-0.2l-0.1,0l0-0.5l0.5,0c0,0.4,0.2,0.8,0.4,1.2c0.4,0.5,1,1,1.6,1.5c0.3,0.2,0.6,0.4,0.8,0.6
	c0.3,0.2,0.5,0.4,0.7,0.7l0.3,0.5l-0.5,0.3L12.4,27"/>
<path class="st0" d="M12.5,29.8l0-1.8c-0.8,0-0.8,0.3-1.6,0.3H10c-0.4,0-1.7-0.3-2.2-0.4c-0.2,2.3-1.2,5.8,1.7,5.8h1.2
	c0.6,0,0.9-0.4,1.6-0.6L12.5,29.8"/>
<path class="st1" d="M12.5,29.8l-0.5,0l0-1.8h0.5l0,0.5c-0.4,0-0.4,0.1-0.6,0.1c-0.2,0.1-0.5,0.2-0.9,0.2H10c-0.2,0-0.3,0-0.5-0.1
	c-0.6-0.1-1.4-0.3-1.8-0.4l0.1-0.5l0.5,0C8.2,29,8,30.3,8,31.3c0,0.6,0.1,1.2,0.3,1.5c0.1,0.2,0.2,0.3,0.4,0.4
	c0.2,0.1,0.5,0.1,0.8,0.1h1.2c0.2,0,0.3,0,0.6-0.2s0.5-0.3,0.9-0.4l0.1,0.5l-0.5,0l0.2-3.4L12.5,29.8l-0.5,0L12.5,29.8l0.5,0
	l-0.2,3.7l-0.4,0.1c-0.2,0-0.4,0.2-0.7,0.3c-0.3,0.1-0.6,0.3-1,0.3H9.5c-0.5,0-0.9-0.1-1.2-0.2c-0.5-0.3-0.9-0.7-1.1-1.2
	C7,32.4,7,31.8,7,31.3c0-1.1,0.3-2.4,0.3-3.4l0.1-0.6l0.6,0.1c0.2,0,0.7,0.2,1.1,0.3c0.2,0,0.4,0.1,0.6,0.1c0.2,0,0.3,0,0.4,0h0.9
	c0.3,0,0.4,0,0.6-0.1c0.2-0.1,0.5-0.2,1-0.2l0.5,0l0.1,2.3v0L12.5,29.8"/>
<path class="st0" d="M22.6,5.9h-1.3c-1,0.7-2,1-2,2.8v0.7c0,1.3,1.3,2.5,2.6,2.5c1.2,0,2.6-1.2,2.6-2.3V8.2
	C24.5,6.9,23.2,6.4,22.6,5.9"/>
<path class="st1" d="M22.6,5.9v0.5h-1.3V5.9l0.3,0.4c-0.5,0.4-1,0.6-1.3,0.9c-0.1,0.1-0.3,0.3-0.4,0.5c-0.1,0.2-0.1,0.5-0.1,0.9v0.7
	c0,0.5,0.3,1,0.7,1.4c0.4,0.4,1,0.6,1.4,0.6c0.4,0,1-0.3,1.4-0.6c0.2-0.2,0.4-0.4,0.5-0.6C23.9,9.9,24,9.7,24,9.5V8.2
	c0-0.3-0.1-0.4-0.1-0.6c-0.1-0.3-0.4-0.5-0.7-0.7c-0.3-0.2-0.6-0.4-0.9-0.7L22.6,5.9v0.5V5.9l0.3-0.4c0.2,0.2,0.7,0.5,1.2,0.9
	c0.2,0.2,0.4,0.4,0.6,0.8c0.2,0.3,0.3,0.7,0.3,1.1v1.3c0,0.4-0.1,0.8-0.3,1.1c-0.3,0.5-0.7,0.9-1.2,1.2c-0.5,0.3-1,0.5-1.6,0.5
	c-0.8,0-1.5-0.4-2.1-0.9c-0.6-0.5-1-1.3-1-2.1V8.7c0-0.5,0.1-0.9,0.2-1.3c0.2-0.5,0.6-0.9,1-1.2c0.4-0.3,0.8-0.5,1.1-0.7l0.1-0.1
	h1.6l0.1,0.1L22.6,5.9"/>
<path class="st0" d="M29.1,9.4v1c0,1.1,1.4,2.5,2.5,2.5H32c0.7,0,0.6-2.6,2.5-3.1c0-1.6-1.1-3.2-2.5-3.2C30.4,6.6,29.1,7.9,29.1,9.4
	"/>
<path class="st1" d="M29.1,9.4h0.5v1c0,0.2,0,0.4,0.2,0.6c0.2,0.4,0.5,0.7,0.8,1c0.3,0.3,0.7,0.4,1,0.4H32v0.3l-0.1-0.2l0.1,0v0.3
	l-0.1-0.2l0.1,0.1l-0.1-0.1l0,0l0.1,0.1l-0.1-0.1l0,0l0,0l0,0l0,0l0,0c0,0,0.1-0.2,0.2-0.4c0.2-0.4,0.3-0.9,0.7-1.4
	c0.2-0.3,0.4-0.5,0.6-0.7c0.3-0.2,0.6-0.4,1-0.5l0.1,0.5h-0.5c0-0.7-0.2-1.4-0.6-1.9c-0.2-0.3-0.4-0.5-0.6-0.6
	c-0.2-0.1-0.5-0.2-0.7-0.2c-0.6,0-1.3,0.3-1.7,0.7c-0.4,0.4-0.7,1-0.7,1.6h-1c0-0.9,0.4-1.7,1-2.3c0.6-0.6,1.5-0.9,2.4-0.9
	c0.4,0,0.9,0.1,1.2,0.3c0.5,0.3,1,0.8,1.3,1.4s0.5,1.3,0.5,2v0.4l-0.4,0.1c-0.3,0.1-0.6,0.3-0.8,0.5c-0.3,0.4-0.5,0.9-0.7,1.4
	c-0.1,0.3-0.2,0.5-0.3,0.7c-0.1,0.1-0.1,0.2-0.3,0.3c-0.1,0.1-0.3,0.2-0.5,0.2h-0.4c-0.4,0-0.7-0.1-1.1-0.3c-0.5-0.3-1-0.7-1.3-1.1
	c-0.3-0.5-0.6-1-0.6-1.6v-1H29.1"/>
<path class="st0" d="M9.5,11c1.5,0.1,3.2,1.6,3.3,3.1c1,0,2.2-1.3,2.2-2.3v-0.9c0-1.5-1.2-2.8-2.8-2.8C10.7,8.1,9.7,9.5,9.5,11"/>
<path class="st1" d="M9.5,11l0-0.5c0.9,0.1,1.8,0.5,2.5,1.1c0.7,0.6,1.2,1.4,1.3,2.4l-0.5,0l0-0.5c0.1,0,0.4-0.1,0.6-0.2
	c0.3-0.2,0.6-0.4,0.8-0.8c0.2-0.3,0.3-0.7,0.3-0.9v-0.9c0-0.6-0.3-1.2-0.7-1.6c-0.4-0.4-1-0.7-1.6-0.7c-0.7,0-1.2,0.3-1.6,0.7
	c-0.4,0.4-0.6,1.1-0.7,1.7L9.5,11l0-0.5L9.5,11l-0.5,0c0.1-0.9,0.4-1.7,0.9-2.3c0.6-0.6,1.4-1.1,2.3-1.1c1.8,0,3.2,1.5,3.3,3.3v0.9
	c0,0.7-0.4,1.4-0.8,1.9c-0.2,0.3-0.5,0.5-0.8,0.7c-0.3,0.2-0.6,0.3-1,0.3h-0.5l0-0.5c0-0.6-0.4-1.2-1-1.7c-0.6-0.5-1.3-0.8-1.9-0.9
	l-0.5,0l0-0.5L9.5,11"/>
<path class="st0" d="M38.2,25.4c-0.8,0.2-1.4,0.7-2.3,0.7h-1l-0.3,3.2l0,0.9l0.2,1.3h1.1c1.1,0,1.4-0.3,2-0.7L38.2,25.4"/>
<path class="st1" d="M38.2,25.4l0.1,0.5c-0.3,0.1-0.7,0.2-1,0.4s-0.8,0.3-1.4,0.3h-0.6L35,29.4l0.1,0.8l0.1,0.9h0.7l0,0
	c0.5,0,0.8-0.1,1-0.1c0.2-0.1,0.4-0.3,0.7-0.5l0.3,0.4l-0.5,0l0.3-5.4L38.2,25.4l0.1,0.5L38.2,25.4l0.5,0l-0.4,5.6l-0.2,0.1
	c-0.3,0.2-0.5,0.4-0.9,0.6c-0.4,0.1-0.8,0.2-1.4,0.2h-1.6l-0.2-1.8L34,29.4l0.4-3.7h1.5c0.3,0,0.7-0.1,1-0.3
	c0.3-0.2,0.7-0.4,1.2-0.5l0.7-0.1l0,0.7L38.2,25.4"/>
<path class="st0" d="M35.6,17.4v0.4c-1,0.1-3.2,1.4-3.2,2.6v0.7c0,0.4,0.4,0.6,0.9,0.6h0.1c0.6,0,1.1-0.9,1.2-1.5
	c2.9-0.1,2.6-2.5,3.8-2.8v-1.3C37.5,16.9,37.2,17.4,35.6,17.4"/>
<path class="st1" d="M35.6,17.4h0.5v0.9l-0.5,0c-0.2,0-0.4,0.1-0.8,0.2c-0.5,0.2-1,0.6-1.4,0.9c-0.2,0.2-0.3,0.4-0.5,0.5
	c-0.1,0.2-0.1,0.3-0.1,0.4v0.7l0,0l0,0l0,0h0l0,0l0,0h0c0,0,0.2,0.1,0.4,0.1h0.1l0.1,0c0.1-0.1,0.3-0.3,0.3-0.4
	c0.1-0.2,0.2-0.4,0.2-0.5l0-0.5h0.4c0.7,0,1.1-0.2,1.4-0.4c0.5-0.3,0.7-0.7,1-1.2c0.1-0.2,0.3-0.5,0.5-0.7c0.2-0.2,0.5-0.4,0.8-0.5
	l0.1,0.5h-0.5v-1.3h0.5l0.3,0.4c-0.4,0.3-0.7,0.6-1.2,0.8c-0.5,0.3-1,0.4-1.9,0.4L35.6,17.4h0.5H35.6v-0.5c0.7,0,1.1-0.1,1.4-0.3
	c0.3-0.2,0.6-0.5,1.1-0.8l0.8-0.5V18l-0.4,0.1l-0.2,0.1c-0.1,0.1-0.2,0.3-0.4,0.6c-0.2,0.4-0.5,0.9-1,1.4c-0.5,0.5-1.3,0.8-2.3,0.8
	l0-0.5l0.5,0c0,0.4-0.2,0.8-0.5,1.2c-0.1,0.2-0.3,0.4-0.5,0.5s-0.4,0.2-0.7,0.2h-0.1c-0.3,0-0.6,0-0.8-0.2c-0.1-0.1-0.3-0.2-0.4-0.4
	c-0.1-0.2-0.1-0.4-0.1-0.5v-0.7c0-0.5,0.2-0.9,0.5-1.2c0.4-0.5,1-1,1.5-1.3c0.3-0.2,0.6-0.3,0.9-0.4C35,17.5,35.3,17.4,35.6,17.4
	l0,0.4h-0.5v-0.9h0.5V17.4"/>
<path class="st0" d="M16,11c-0.1,1.8-1.4,3.8-3,3.9v0.6c0,0.8-0.7,2.2-0.7,2.2c0,0.6,0.9,2.1,1.4,2.2c-0.3-0.5-0.6-1-0.6-1.8v-0.7
	c0-3,5.5-5.8,5.5-6.9v-0.1c0-0.3-0.1-0.4-0.3-0.4C18,10,16.7,10.8,16,11"/>
<path class="st1" d="M16,11l0.5,0c-0.1,1-0.5,2-1.1,2.8c-0.3,0.4-0.6,0.8-1.1,1.1c-0.4,0.3-0.9,0.5-1.4,0.5l0-0.5h0.5v0.6
	c0,0.3-0.1,0.5-0.1,0.8c-0.2,0.8-0.6,1.6-0.6,1.6l-0.4-0.2h0.5c0,0,0,0.2,0.1,0.4c0.1,0.3,0.3,0.6,0.5,0.9c0.1,0.1,0.2,0.2,0.3,0.3
	l0.1,0.1h0l0,0.1l0-0.1h0l0,0.1l0-0.1l0,0.5l-0.4,0.3c-0.2-0.5-0.6-1.1-0.6-2v-0.7c0-0.9,0.4-1.7,1-2.5c0.8-1.1,2-2.1,3-2.9
	c0.5-0.4,0.9-0.8,1.2-1.1c0.1-0.1,0.3-0.3,0.3-0.4l0-0.1h0l0.1,0h-0.1l0,0l0.1,0h-0.1v-0.1v-0.1v0l0.1,0l-0.1,0.1l0,0l0.1,0
	l-0.1,0.1l0.2-0.1l-0.1,0.2l-0.1-0.1l0.2-0.1l-0.1,0.2l0.1-0.2v0.3l-0.1,0l0.1-0.2v0.3v-0.3l0,0.3h0v-0.3l0,0.3l0-0.1l0,0.1l0,0
	l0-0.1l0,0.1c0,0-0.2,0.1-0.3,0.1c-0.3,0.1-0.6,0.3-0.9,0.5c-0.3,0.1-0.7,0.3-1,0.4L16,11l0.5,0L16,11l-0.1-0.5
	c0.1,0,0.3-0.1,0.5-0.2c0.3-0.1,0.7-0.3,1-0.5c0.2-0.1,0.3-0.2,0.5-0.2l0.2-0.1l0.3-0.1c0.1,0,0.3,0,0.4,0.1
	c0.2,0.1,0.3,0.3,0.3,0.4c0,0.2,0.1,0.3,0.1,0.4v0.1c0,0.2,0,0.3-0.1,0.4c-0.1,0.2-0.3,0.4-0.5,0.6c-0.4,0.4-0.9,0.8-1.4,1.2
	c-0.8,0.7-1.7,1.4-2.4,2.2c-0.3,0.4-0.6,0.8-0.8,1.2c-0.2,0.4-0.3,0.8-0.3,1.1v0.7c0,0.6,0.3,1,0.5,1.5l0.4,0.8l-0.9-0.1
	c-0.2,0-0.3-0.1-0.4-0.2c-0.2-0.1-0.4-0.3-0.6-0.5c-0.2-0.3-0.5-0.6-0.6-1c-0.1-0.2-0.1-0.4-0.2-0.5s-0.1-0.3-0.1-0.5v-0.1l0-0.1
	l0,0v0c0,0,0.2-0.4,0.4-0.8c0.1-0.2,0.2-0.4,0.2-0.6c0.1-0.2,0.1-0.4,0.1-0.5v-1l0.4,0c0.3,0,0.6-0.1,0.9-0.3
	c0.4-0.3,0.8-0.8,1.1-1.4c0.3-0.6,0.5-1.2,0.5-1.8l0-0.4l0.4-0.1L16,11"/>
<path class="st0" d="M35.8,25.3c0.9,0,3.2-1.1,3.2-1.9v-0.7c0-0.4-0.1-0.4-0.2-0.7c-2.3,1.5-0.9,1.1-4.2,1.9v1.5H35.8"/>
<path class="st1" d="M35.8,25.3v-0.5c0.1,0,0.4,0,0.7-0.2c0.5-0.2,1-0.4,1.4-0.7c0.2-0.1,0.4-0.3,0.5-0.4l0.1-0.1l0,0l0.1,0h-0.1v0
	l0.1,0h-0.1v-0.7c0-0.2,0-0.2,0-0.3c0,0-0.1-0.2-0.1-0.4l0.5-0.1l0.3,0.4c-0.6,0.4-0.9,0.6-1.1,0.8c-0.2,0.1-0.3,0.3-0.5,0.4
	c-0.1,0.1-0.3,0.1-0.4,0.2c-0.4,0.2-1,0.3-2.4,0.6l-0.1-0.5h0.5v1h0.7v1h-1.7v-2.4l0.4-0.1c0.8-0.2,1.3-0.3,1.7-0.4
	c0.3,0,0.4-0.1,0.5-0.2l0.2-0.1c0.2-0.1,0.6-0.5,1.5-1.1l0.6-0.4l0.2,0.7c0,0.1,0,0.2,0.1,0.3c0,0.1,0.1,0.3,0.1,0.5v0.7
	c0,0.2-0.1,0.4-0.2,0.5c-0.2,0.3-0.4,0.5-0.7,0.7c-0.4,0.3-0.9,0.6-1.4,0.8c-0.3,0.1-0.5,0.2-0.7,0.3c-0.2,0.1-0.5,0.1-0.7,0.1
	L35.8,25.3"/>
<path class="st0" d="M26.2,15.2c1-0.7,1.6-1.4,3.3-1.4h0.1c1.6,0,2.2,1,3.1,1.6l-0.5-1.7h-1c-0.6,0-1.4-0.6-1.9-0.9
	C28.4,13.4,26.3,13.8,26.2,15.2"/>
<path class="st1" d="M26.2,15.2l-0.3-0.4c0.5-0.3,0.9-0.7,1.4-1c0.5-0.3,1.2-0.5,2.2-0.5h0.1c0.9,0,1.6,0.3,2.1,0.7
	c0.5,0.4,0.9,0.8,1.3,1l-0.3,0.4l-0.5,0.1l-0.4-1.4h-0.6c-0.2,0-0.5-0.1-0.7-0.1c-0.3-0.1-0.6-0.3-0.8-0.4c-0.3-0.1-0.5-0.3-0.6-0.4
	l0.2-0.4l0.3,0.4c-0.3,0.2-0.6,0.4-1,0.5c-0.5,0.2-1,0.4-1.4,0.7c-0.2,0.1-0.3,0.3-0.4,0.4c-0.1,0.1-0.1,0.3-0.2,0.5L26.2,15.2
	l-0.3-0.4L26.2,15.2l-0.5,0c0-0.5,0.3-0.9,0.5-1.2c0.4-0.5,1-0.8,1.5-1s1-0.4,1.3-0.7l0.3-0.2l0.3,0.1c0.3,0.1,0.6,0.4,0.9,0.5
	c0.2,0.1,0.3,0.2,0.4,0.2c0.1,0,0.3,0.1,0.3,0.1h1.4l0.9,3.4l-1.1-0.7c-0.5-0.3-0.9-0.7-1.3-1c-0.4-0.3-0.8-0.5-1.5-0.5h-0.1
	c-0.8,0-1.3,0.2-1.7,0.4c-0.4,0.2-0.8,0.6-1.4,1l-0.9,0.6l0.1-1L26.2,15.2"/>
<polyline class="st0" points="25.2,20.8 25.2,19.9 25.2,20.1 20.5,20.4 20,21 25.2,20.8 "/>
<polyline class="st1" points="25.2,20.8 24.7,20.8 24.7,19.9 25.7,19.9 25.7,20 25.7,20.5 20.8,20.9 20.3,21.3 20,21 19.9,20.5 
	25.1,20.3 25.2,20.8 24.7,20.8 25.2,20.8 25.2,21.3 18.6,21.5 20.4,20 25.1,19.6 25.2,20.1 24.7,20.1 24.7,19.9 25.2,19.9 
	25.7,19.9 25.7,21.2 25.2,21.3 25.2,20.8 "/>
<polyline class="st0" points="40.1,16.8 40.1,15.7 39.3,14.6 39.2,14.6 39.2,16.1 39.4,17.4 39.8,17.4 40.1,16.8 "/>
<polyline class="st1" points="40.1,16.8 39.6,16.8 39.6,15.8 38.9,14.8 39.3,14.6 39.6,15 39.5,15.1 39.2,14.6 39.7,14.7 39.7,16.1 
	39.8,17.4 39.4,17.4 39.3,16.9 39.5,16.9 39.7,16.6 40.1,16.8 39.6,16.8 40.1,16.8 40.5,17.1 40,17.9 38.9,17.9 38.7,16.1 
	38.7,14.4 39.5,13.9 40.6,15.5 40.6,17 40.5,17.1 40.1,16.8 "/>
<polyline class="st0" points="10.4,19.1 10.4,19.3 12.3,20 12.4,19.9 11.7,18.4 10.4,19.1 "/>
<polyline class="st1" points="10.4,19.1 10.9,19.1 10.9,19.4 10.4,19.3 10.6,18.8 12.4,19.5 12.3,20 11.9,19.6 12,19.5 12.4,19.9 
	11.9,20.1 11.5,19.1 10.7,19.5 10.4,19.1 10.9,19.1 10.4,19.1 10.2,18.6 11.9,17.7 13,20 12.4,20.5 9.9,19.6 9.9,19 10,18.8 
	10.2,18.6 10.4,19.1 "/>
<path class="st0" d="M15.9,22.5c0-2.5,4.5-0.4,4.5-5v-0.1c0-1.6-1.4-3.1-3-3.1h-0.4c-1.3,0-2.9,1.5-2.9,2.5v1.5
	c0,1.2,1.2,1.9,1.4,2.5h-2.2c-2.6,0-4.7-1.9-5.5-1.9H7.5C7,18.9,7,19,6.5,19c-0.1,0.4-0.3,0.6-0.3,0.9c0,1.6,1.9,1.3,3.2,1.7
	c1.3,0.4,2,1.3,3,2c2.1,0,2.9,0.3,2.9,2.5v0.2c0,0.7-0.3,1-1,1h-1v2c0,1.1,3.3,1.5,4.6,1.5c1.3,0,3.8-0.8,3.8-1.9v-0.6
	c0-0.6-0.1-1.1-0.3-1.5l7.1,0.3c0.5,0,1-0.6,1-1.2V25c0-0.4-0.1-0.4-0.1-0.7l-3.9,0.3l-1.5,0c-1.3,0-1.9-0.5-3-0.1
	c-0.5,0.2-2.1,0.8-2.5,0.8h-0.1C16.9,25.3,15.9,24,15.9,22.5"/>
<path class="st0" d="M31.4,20.3c0-0.9,1.3-1.9,1.3-2.3v-0.4c0-1.3-1.6-2.9-2.9-2.9h-0.6c-1.6,0-3,1.5-3,3.1v0.6
	c0,1.8,1.3,2.1,1.3,2.6l-0.3,0.4c-2,0-3.7,0.4-5.4,0.4c-1.3,0-5.1-0.5-5.1,0.7c0,0.8,0.5,1.9,1.2,1.9h0.7c0.6,0,1.6-0.7,2.3-0.9
	c0.6-0.2,2,0,3,0c1.5,0,2.8-0.2,4.1-0.1c1.8,0,2.5,0,2.5,1.8v1.2c0,0.5-1.1,1.6-1.6,1.6h-0.9l-2.2-0.2c0.3,3.8,8,1.9,8-0.4v-1.2
	l-0.3-3.1c3.2,0,5.6-1.5,5.6-4.7c-0.6,0.2-1.3,1.4-1.5,2c-0.5,0-2.1,0.6-2.3,0.9c-0.3,0.4-0.9,1.5-1.8,1.5h-0.6
	c-0.5,0-1.5-1-1.5-1.8L31.4,20.3"/>
<path class="st0" d="M22,12.6h-0.4c-1.3,0-1.6-0.7-2.4-1.3l-2.1,2l0.1,0.1c2.1,0,4.1,1.9,4.1,3.9v0.7c0,0.6-0.2,0.8-0.3,1.3l1.7,0.2
	c0.7,0.1,2.5-0.2,2.5-0.9l0-0.1l0-3.6c0.7-1.1,2-2.7,3.6-2.8l-0.5-1.3L25,10.6C24.3,11.6,23.7,12.6,22,12.6"/>
<path class="st0" d="M20.5,37h1.3c0.4-0.3,1.2-0.5,1.2-1v-1c0-0.7-1.1-3.6-1.3-4.5c-1.3,0.3-1.4,1-3.8,1h-0.3L13.9,31
	c-0.3,0-0.7,3.2-0.7,3.6v0.6c0,0.6,1.3,0.9,2,0.9h0.4c0.7,0,1.3-0.7,1.6-1.2l0.2-2.3l0.5,0c0.7,0,1.1,1.7,1.1,2.3
	C19.4,37.5,19.4,36,20.5,37"/>
<path class="st0" d="M29.2,35.5c0-1.4,0-3.5,0.7-4.1l0.9,2.2c0.4,0,0.5,0.2,1,0.2H33c0.4,0,1.2-0.3,1.2-0.7c0-0.9-0.7-1.8-0.7-2.9
	v-0.7c-0.8,0.2-2.3,1.3-3.6,1.3h-2c-0.9,0-1.5-0.8-2.2-0.9v1c0,1.4-0.7,3.2-0.7,4.5c0.7,0.4,1.2,0.7,2.3,0.7h0.4
	C28.4,36.1,28.8,35.8,29.2,35.5"/>
<path class="st0" d="M5.9,14.4V16l1.4,2c0.9,0,1.4,0.4,1.9,0.4c1.5,0,2.9-1.6,2.9-3.1v-0.9c0-1.4-1.5-2.8-3-2.8H8.8
	C6.8,11.7,6.6,13.4,5.9,14.4"/>
<path class="st0" d="M33.1,13.2v0.6c0,1.5,1.3,2.9,2.8,2.9h0.3c0.9,0,1.7-1.3,2.2-1.6c0-0.9,0.3-0.9,0.3-1.3c0-1.7-1-3.7-2.6-3.7
	C34.3,10.1,33.1,11.4,33.1,13.2"/>
<path class="st0" d="M12.4,27C11.7,26,9,25,8.8,22.8c1.2,0.1,2.7,3.7,5.1,3.7h0.6v-0.6c0-1.1-0.3-1.6-1.4-1.6
	c-1.4,0-1.4-0.3-2.1-0.9c-1.7-1.3-2.1-1.1-4.4-1.6v0.6l0.3,4.2c1.3,0.4,1.7,0.9,3.6,0.9h0.3C11.5,27.5,11.9,27.3,12.4,27"/>
<path class="st0" d="M12.5,29.8l0-1.8c-0.8,0-0.8,0.3-1.6,0.3H10c-0.4,0-1.7-0.3-2.2-0.4c-0.2,2.3-1.2,5.8,1.7,5.8h1.2
	c0.6,0,0.9-0.4,1.6-0.6L12.5,29.8"/>
<path class="st0" d="M22.6,5.9h-1.3c-1,0.7-2,1-2,2.8v0.7c0,1.3,1.3,2.5,2.6,2.5c1.2,0,2.6-1.2,2.6-2.3V8.2
	C24.5,6.9,23.2,6.4,22.6,5.9"/>
<path class="st0" d="M29.1,9.4v1c0,1.1,1.4,2.5,2.5,2.5H32c0.7,0,0.6-2.6,2.5-3.1c0-1.6-1.1-3.2-2.5-3.2C30.4,6.6,29.1,7.9,29.1,9.4
	"/>
<path class="st0" d="M9.5,11c1.5,0.1,3.2,1.6,3.3,3.1c1,0,2.2-1.3,2.2-2.3v-0.9c0-1.5-1.2-2.8-2.8-2.8C10.7,8.1,9.7,9.5,9.5,11"/>
<path class="st0" d="M38.2,25.4c-0.8,0.2-1.4,0.7-2.3,0.7h-1l-0.3,3.2l0,0.9l0.2,1.3h1.1c1.1,0,1.4-0.3,2-0.7L38.2,25.4"/>
<path class="st0" d="M35.6,17.4v0.4c-1,0.1-3.2,1.4-3.2,2.6v0.7c0,0.4,0.4,0.6,0.9,0.6h0.1c0.6,0,1.1-0.9,1.2-1.5
	c2.9-0.1,2.6-2.5,3.8-2.8v-1.3C37.5,16.9,37.2,17.4,35.6,17.4"/>
<path class="st0" d="M16,11c-0.1,1.8-1.4,3.8-3,3.9v0.6c0,0.8-0.7,2.2-0.7,2.2c0,0.6,0.9,2.1,1.4,2.2c-0.3-0.5-0.6-1-0.6-1.8v-0.7
	c0-3,5.5-5.8,5.5-6.9v-0.1c0-0.3-0.1-0.4-0.3-0.4C18,10,16.7,10.8,16,11"/>
<path class="st0" d="M35.8,25.3c0.9,0,3.2-1.1,3.2-1.9v-0.7c0-0.4-0.1-0.4-0.2-0.7c-2.3,1.5-0.9,1.1-4.2,1.9v1.5H35.8"/>
<path class="st0" d="M26.2,15.2c1-0.7,1.6-1.4,3.3-1.4h0.1c1.6,0,2.2,1,3.1,1.6l-0.5-1.7h-1c-0.6,0-1.4-0.6-1.9-0.9
	C28.4,13.4,26.3,13.8,26.2,15.2"/>
<polyline class="st0" points="25.2,20.8 25.2,19.9 25.2,20.1 20.5,20.4 20,21 25.2,20.8 "/>
<polyline class="st0" points="40.1,16.8 40.1,15.7 39.3,14.6 39.2,14.6 39.2,16.1 39.4,17.4 39.8,17.4 40.1,16.8 "/>
<polyline class="st0" points="10.4,19.1 10.4,19.3 12.3,20 12.4,19.9 11.7,18.4 10.4,19.1 "/>
<rect x="45" y="5.6" class="st1" width="9.5" height="32"/>
<path class="st1" d="M76.8,15.1c-0.4-0.7-0.8-1.2-1.2-1.6c-0.5-0.5-1-0.8-1.5-0.9c-0.5-0.1-0.9-0.2-1.2-0.2l-0.3,0
	c-1.6,0-2.8,0.9-3.7,2.8c-0.9,1.8-1.3,3.8-1.4,6v0.5c0,2.1,0.5,4.1,1.4,5.9c0.9,1.8,2.2,2.7,4,2.7c0.3,0,0.5,0,0.8-0.1
	s0.5-0.1,0.8-0.2c0.7-0.3,1.4-0.8,2-1.5c0.6-0.8,1.1-1.9,1.3-3.5l9.1,0c-0.2,3.6-1.5,6.7-4.1,9.3c-2.6,2.6-5.8,3.9-9.6,3.9h-0.6
	c-4.6-0.2-8.1-1.7-10.6-4.5c-2.5-2.8-3.7-6.8-3.7-11.9c0-6.1,1.4-10.5,4.1-13.3c2.7-2.7,6-4.1,9.9-4.1c3.9,0,6.8,0.8,8.8,2.4
	c2,1.6,3.4,3.4,4.2,5.3c0.4,1,0.7,2,0.9,3c0.2,1,0.3,1.8,0.4,2.5l-8.7,0C77.5,16.7,77.2,15.8,76.8,15.1"/>
<path class="st1" d="M104.2,13c-0.7-0.4-1.3-0.8-2.1-0.9c-0.2,0-0.3-0.1-0.5-0.1c-0.1,0-0.3,0-0.4,0c-0.5,0-1,0.1-1.4,0.3
	s-0.7,0.5-0.8,0.9v0.1l-0.1,0.1v0.1l-0.1,0.3c0,0.8,0.5,1.5,1.6,2c1.1,0.5,2.3,0.9,3.6,1.2l0.2,0.1l0.2,0c3.2,0.7,5.7,1.8,7.6,3.3
	c1.9,1.5,2.9,3.8,3,6.8v0.4c0,3.5-1.3,6.2-3.9,8.1c-2.6,1.9-5.4,2.8-8.6,2.8c-3.3,0-6.4-0.8-9-2.5s-4-4.5-4-8.5l8.8,0
	c0.3,1.2,0.7,2,1.4,2.5c0.7,0.5,1.4,0.8,2.2,0.9c0.1,0,0.3,0,0.4,0c0.2,0,0.3,0,0.4,0c0.8,0,1.5-0.2,2.1-0.7c0.5-0.5,0.8-1,0.9-1.6
	v-0.1l0-0.3l-0.1-0.3c-0.1-0.3-0.3-0.6-0.5-1c-0.3-0.3-0.6-0.5-1.1-0.7c-0.2-0.1-0.5-0.1-0.7-0.2c-0.2-0.1-0.5-0.1-0.7-0.2
	c-0.2-0.1-0.4-0.1-0.6-0.2c-0.2,0-0.4-0.1-0.7-0.2c-2.9-0.8-5.5-1.9-7.9-3.3c-2.4-1.4-3.6-3.8-3.6-7.3c0-0.2,0-0.3,0-0.5
	c0-0.2,0-0.4,0.1-0.5c0-0.2,0-0.3,0-0.5c0-0.1,0-0.3,0.1-0.4c0.3-2.3,1.3-4.3,3.1-6c1.8-1.7,4.4-2.6,7.7-2.6l1.1-0.1
	c0.2,0,0.4,0.1,0.5,0.1c0.2,0,0.4,0,0.5,0.1c2.6,0.1,4.9,0.9,7.1,2.3c2.2,1.4,3.5,4.1,3.9,8l-8.8-0.1
	C105.2,14.1,104.8,13.5,104.2,13"/>
<path class="st1" d="M126.8,29.9h5.1c0.9,0,1.6-0.2,2-0.7c0.4-0.5,0.7-1,0.7-1.6v-0.1l0-0.3c0-0.1,0-0.2-0.1-0.4
	c-0.1-0.6-0.4-1.1-0.8-1.5c-0.4-0.5-1-0.7-1.8-0.7h-5.2L126.8,29.9 M126.8,18.4h3.6c0.9,0,1.6-0.2,2.2-0.6c0.5-0.5,0.8-1,0.9-1.5
	l0-0.2v-0.3l0-0.2c-0.1-0.5-0.4-1-0.8-1.4c-0.5-0.4-1.1-0.6-2-0.6l-3.9-0.1V18.4z M131.3,5.6c3.4,0,5.9,0.9,7.6,2.6
	c1.7,1.7,2.7,3.5,3,5.5c0,0.2,0.1,0.4,0.1,0.6s0,0.4,0,0.6V15c0,1.2-0.3,2.3-0.9,3.4s-1.4,1.9-2.4,2.4c1.6,0.6,2.9,1.6,3.7,3.1
	c0.9,1.5,1.3,3,1.3,4.7V29c-0.1,2.1-1,4.1-2.6,5.9s-4.2,2.7-7.6,2.7l-16.1-0.1v-32H131.3z"/>
<path class="st1" d="M21.7,46.1c0,0.4,0.1,0.7,0.3,0.9c0.2,0.2,0.4,0.3,0.6,0.3c0.2,0,0.4-0.1,0.5-0.2c0.2-0.2,0.4-0.5,0.5-0.9
	c0.1-0.4,0.2-0.8,0.2-1.2c0-0.4-0.1-0.7-0.3-0.9c-0.2-0.2-0.4-0.3-0.6-0.3c-0.2,0-0.4,0.1-0.6,0.2c-0.2,0.2-0.4,0.4-0.5,0.8
	C21.8,45.2,21.7,45.7,21.7,46.1 M20.4,49.5l1.2-6.2h0.6l-0.1,0.6c0.2-0.3,0.5-0.5,0.6-0.6c0.2-0.1,0.4-0.2,0.6-0.2
	c0.4,0,0.7,0.2,0.9,0.5c0.3,0.3,0.4,0.8,0.4,1.3c0,0.6-0.1,1.1-0.3,1.5c-0.2,0.5-0.5,0.8-0.8,1c-0.3,0.2-0.5,0.3-0.8,0.3
	c-0.5,0-0.9-0.3-1.1-0.8l-0.5,2.4L20.4,49.5L20.4,49.5z"/>
<path class="st1" d="M25,47.7l0.8-4.5h0.6l-0.2,0.9c0.4-0.7,0.8-1,1.2-1c0.1,0,0.3,0,0.5,0.2l-0.3,0.7c-0.1-0.1-0.2-0.1-0.4-0.1
	c-0.3,0-0.5,0.1-0.8,0.5c-0.3,0.3-0.4,0.8-0.6,1.6l-0.3,1.8L25,47.7"/>
<path class="st1" d="M28.4,46c0,0.4,0.1,0.7,0.3,1c0.2,0.2,0.4,0.3,0.7,0.3c0.2,0,0.4-0.1,0.6-0.3s0.4-0.4,0.6-0.8
	c0.2-0.4,0.2-0.8,0.2-1.1c0-0.4-0.1-0.7-0.3-1c-0.2-0.2-0.4-0.3-0.7-0.3c-0.2,0-0.5,0.1-0.7,0.2c-0.2,0.2-0.4,0.4-0.6,0.8
	C28.5,45.2,28.4,45.6,28.4,46 M27.7,46c0-0.8,0.2-1.5,0.6-2c0.4-0.5,0.9-0.8,1.6-0.8c0.5,0,0.9,0.2,1.2,0.5c0.3,0.3,0.5,0.8,0.5,1.4
	c0,0.5-0.1,1-0.3,1.5c-0.2,0.4-0.5,0.8-0.8,1c-0.3,0.2-0.7,0.3-1,0.3c-0.5,0-0.9-0.2-1.2-0.5C27.8,47,27.7,46.6,27.7,46"/>
<path class="st1" d="M31.8,47.7l0.8-4.5h0.7L33.2,44c0.3-0.3,0.5-0.5,0.7-0.7s0.4-0.2,0.6-0.2c0.3,0,0.5,0.1,0.6,0.2
	c0.2,0.1,0.3,0.3,0.3,0.6c0.2-0.3,0.4-0.5,0.6-0.6s0.5-0.2,0.7-0.2c0.3,0,0.6,0.1,0.7,0.3s0.3,0.4,0.3,0.7c0,0.1,0,0.4-0.1,0.7
	l-0.5,2.8h-0.7l0.6-2.9c0-0.2,0.1-0.4,0.1-0.5c0-0.2,0-0.3-0.1-0.3c-0.1-0.1-0.2-0.1-0.3-0.1c-0.2,0-0.4,0.1-0.6,0.2
	c-0.2,0.1-0.4,0.3-0.5,0.5c-0.1,0.2-0.2,0.6-0.3,1.1l-0.4,2.2h-0.7l0.6-3c0-0.2,0.1-0.3,0.1-0.4c0-0.1,0-0.3-0.1-0.3
	c-0.1-0.1-0.2-0.1-0.3-0.1c-0.3,0-0.6,0.1-0.9,0.4c-0.3,0.3-0.5,0.7-0.6,1.4l-0.4,2.1L31.8,47.7"/>
<path class="st1" d="M39.1,46c0,0.4,0.1,0.7,0.3,1c0.2,0.2,0.4,0.3,0.7,0.3c0.2,0,0.4-0.1,0.7-0.3c0.2-0.2,0.4-0.4,0.6-0.8
	c0.2-0.4,0.2-0.8,0.2-1.1c0-0.4-0.1-0.7-0.3-1c-0.2-0.2-0.4-0.3-0.7-0.3c-0.2,0-0.5,0.1-0.7,0.2c-0.2,0.2-0.4,0.4-0.6,0.8
	C39.2,45.2,39.1,45.6,39.1,46 M38.4,46c0-0.8,0.2-1.5,0.6-2c0.4-0.5,0.9-0.8,1.6-0.8c0.5,0,0.8,0.2,1.2,0.5c0.3,0.3,0.5,0.8,0.5,1.4
	c0,0.5-0.1,1-0.3,1.5c-0.2,0.4-0.5,0.8-0.8,1c-0.3,0.2-0.7,0.3-1,0.3c-0.5,0-0.9-0.2-1.2-0.5C38.5,47,38.4,46.6,38.4,46"/>
<path class="st1" d="M44.1,47.1L44,47.7c-0.2,0-0.3,0.1-0.5,0.1c-0.3,0-0.4-0.1-0.6-0.2c-0.1-0.1-0.2-0.3-0.2-0.5
	c0-0.1,0-0.3,0.1-0.7l0.5-2.6h-0.5l0.1-0.6h0.5l0.2-1.1l0.8-0.5l-0.3,1.6h0.7l-0.1,0.6H44l-0.5,2.5c-0.1,0.3-0.1,0.5-0.1,0.6
	l0.1,0.2l0.2,0.1C43.8,47.2,44,47.2,44.1,47.1"/>
<path class="st1" d="M45.7,42.5l0.2-0.9h0.7l-0.2,0.9H45.7 M44.7,47.7l0.8-4.5h0.7l-0.8,4.5H44.7z"/>
<path class="st1" d="M46.4,47.7l0.8-4.5h0.6l-0.1,0.8c0.3-0.3,0.5-0.6,0.8-0.7c0.2-0.1,0.5-0.2,0.7-0.2c0.3,0,0.6,0.1,0.8,0.3
	s0.3,0.5,0.3,0.8c0,0.2,0,0.4-0.1,0.8l-0.5,2.7h-0.7l0.6-2.8c0.1-0.3,0.1-0.5,0.1-0.6c0-0.2,0-0.3-0.2-0.4c-0.1-0.1-0.2-0.1-0.4-0.1
	c-0.3,0-0.7,0.1-0.9,0.4c-0.3,0.3-0.5,0.8-0.6,1.4l-0.4,2.1L46.4,47.7"/>
<path class="st1" d="M51.5,45.8c0,0.3,0,0.6,0.1,0.8c0.1,0.2,0.2,0.3,0.3,0.4c0.1,0.1,0.3,0.1,0.4,0.1c0.2,0,0.4-0.1,0.6-0.2
	c0.2-0.2,0.4-0.4,0.5-0.8c0.2-0.3,0.2-0.7,0.2-1.1c0-0.4-0.1-0.7-0.3-0.9c-0.2-0.2-0.4-0.3-0.7-0.3c-0.2,0-0.4,0.1-0.6,0.3
	c-0.2,0.2-0.4,0.4-0.5,0.8C51.6,45.2,51.5,45.5,51.5,45.8 M50.7,48.1l0.7,0.1v0.1c0,0.2,0.1,0.3,0.2,0.4s0.3,0.1,0.6,0.1
	c0.4,0,0.7-0.1,0.9-0.3c0.1-0.2,0.2-0.5,0.3-1.1l0.1-0.3c-0.3,0.4-0.7,0.6-1.1,0.6c-0.4,0-0.7-0.2-1-0.5c-0.3-0.3-0.4-0.8-0.4-1.4
	c0-0.5,0.1-0.9,0.3-1.4c0.2-0.4,0.5-0.8,0.8-1c0.3-0.2,0.6-0.3,0.9-0.3c0.5,0,0.9,0.3,1.2,0.8l0.1-0.7h0.6L54,47.6
	c-0.1,0.7-0.3,1.1-0.5,1.4c-0.3,0.4-0.7,0.5-1.3,0.5c-0.5,0-0.9-0.1-1.1-0.3c-0.3-0.2-0.4-0.5-0.4-0.8L50.7,48.1"/>
<path class="st1" d="M57.9,45.8c0,0.3,0,0.6,0.1,0.8c0.1,0.2,0.2,0.3,0.3,0.4c0.1,0.1,0.3,0.1,0.4,0.1c0.2,0,0.4-0.1,0.6-0.2
	c0.2-0.2,0.4-0.4,0.5-0.8c0.2-0.3,0.2-0.7,0.2-1.1c0-0.4-0.1-0.7-0.3-0.9c-0.2-0.2-0.4-0.3-0.7-0.3c-0.2,0-0.4,0.1-0.6,0.3
	c-0.2,0.2-0.4,0.4-0.5,0.8C58,45.2,57.9,45.5,57.9,45.8 M57.1,48.1l0.7,0.1v0.1c0,0.2,0.1,0.3,0.2,0.4s0.3,0.1,0.6,0.1
	c0.4,0,0.7-0.1,0.9-0.3c0.1-0.2,0.2-0.5,0.3-1.1l0.1-0.3c-0.3,0.4-0.7,0.6-1.1,0.6c-0.4,0-0.7-0.2-1-0.5c-0.3-0.3-0.4-0.8-0.4-1.4
	c0-0.5,0.1-0.9,0.3-1.4c0.2-0.4,0.5-0.8,0.8-1c0.3-0.2,0.6-0.3,0.9-0.3c0.5,0,0.9,0.3,1.2,0.8l0.1-0.7h0.6l-0.7,4.3
	c-0.1,0.7-0.3,1.1-0.5,1.4c-0.3,0.4-0.7,0.5-1.3,0.5c-0.5,0-0.9-0.1-1.1-0.3c-0.3-0.2-0.4-0.5-0.4-0.8V48.1"/>
<path class="st1" d="M62.2,46c0,0.4,0.1,0.7,0.3,1c0.2,0.2,0.4,0.3,0.7,0.3c0.2,0,0.4-0.1,0.7-0.3c0.2-0.2,0.4-0.4,0.6-0.8
	c0.2-0.4,0.2-0.8,0.2-1.1c0-0.4-0.1-0.7-0.3-1c-0.2-0.2-0.4-0.3-0.7-0.3c-0.2,0-0.5,0.1-0.7,0.2c-0.2,0.2-0.4,0.4-0.6,0.8
	C62.3,45.2,62.2,45.6,62.2,46 M61.5,46c0-0.8,0.2-1.5,0.6-2c0.4-0.5,0.9-0.8,1.6-0.8c0.5,0,0.8,0.2,1.2,0.5c0.3,0.3,0.5,0.8,0.5,1.4
	c0,0.5-0.1,1-0.3,1.5c-0.2,0.4-0.5,0.8-0.8,1c-0.3,0.2-0.7,0.3-1,0.3c-0.5,0-0.9-0.2-1.2-0.5C61.7,47,61.5,46.6,61.5,46"/>
<path class="st1" d="M66.7,47.7L66,43.3h0.7l0.3,2.5c0,0.3,0.1,0.7,0.1,1.3c0.1-0.3,0.3-0.7,0.5-1.1l1.3-2.7h0.7l-2.3,4.5H66.7"/>
<path class="st1" d="M70.5,45.1h2.3V45c0-0.4-0.1-0.7-0.3-0.9c-0.2-0.2-0.4-0.3-0.7-0.3c-0.3,0-0.6,0.1-0.8,0.3
	C70.8,44.3,70.6,44.7,70.5,45.1 M72.5,46.2l0.7,0.1c-0.1,0.4-0.4,0.8-0.8,1.1c-0.3,0.3-0.7,0.4-1.1,0.4c-0.3,0-0.6-0.1-0.8-0.2
	S70,47.3,69.9,47c-0.1-0.3-0.2-0.6-0.2-1c0-0.5,0.1-1,0.3-1.5c0.2-0.5,0.5-0.8,0.8-1s0.7-0.3,1-0.3c0.5,0,0.8,0.2,1.1,0.5
	c0.3,0.3,0.4,0.8,0.4,1.4c0,0.2,0,0.4-0.1,0.7h-2.9l0,0.2c0,0.4,0.1,0.7,0.3,1c0.2,0.2,0.4,0.3,0.6,0.3c0.2,0,0.5-0.1,0.7-0.3
	C72.2,46.8,72.4,46.5,72.5,46.2"/>
<path class="st1" d="M73.8,47.7l0.8-4.5h0.6l-0.2,0.9c0.4-0.7,0.8-1,1.2-1c0.1,0,0.3,0,0.5,0.2l-0.3,0.7c-0.1-0.1-0.2-0.1-0.4-0.1
	c-0.3,0-0.5,0.1-0.8,0.5c-0.3,0.3-0.4,0.8-0.6,1.6l-0.3,1.8L73.8,47.7"/>
<path class="st1" d="M76.4,47.7l0.8-4.5h0.6l-0.1,0.8c0.3-0.3,0.6-0.6,0.8-0.7c0.2-0.1,0.5-0.2,0.7-0.2c0.3,0,0.6,0.1,0.8,0.3
	c0.2,0.2,0.3,0.5,0.3,0.8c0,0.2,0,0.4-0.1,0.8l-0.5,2.7h-0.7l0.6-2.8c0.1-0.3,0.1-0.5,0.1-0.6c0-0.2-0.1-0.3-0.2-0.4
	c-0.1-0.1-0.2-0.1-0.4-0.1c-0.3,0-0.7,0.1-0.9,0.4c-0.3,0.3-0.5,0.8-0.6,1.4l-0.4,2.1L76.4,47.7"/>
<path class="st1" d="M81.7,42.5l0.2-0.9h0.7l-0.2,0.9H81.7 M80.7,47.7l0.8-4.5h0.7l-0.8,4.5H80.7z"/>
<path class="st1" d="M82.4,47.7l0.8-4.5h0.6l-0.2,0.8c0.3-0.3,0.6-0.6,0.8-0.7c0.2-0.1,0.5-0.2,0.7-0.2c0.3,0,0.6,0.1,0.8,0.3
	c0.2,0.2,0.3,0.5,0.3,0.8c0,0.2,0,0.4-0.1,0.8l-0.5,2.7h-0.7l0.6-2.8c0.1-0.3,0.1-0.5,0.1-0.6c0-0.2-0.1-0.3-0.2-0.4
	c-0.1-0.1-0.2-0.1-0.4-0.1c-0.3,0-0.7,0.1-0.9,0.4c-0.3,0.3-0.5,0.8-0.6,1.4l-0.4,2.1L82.4,47.7"/>
<path class="st1" d="M87.5,45.8c0,0.3,0,0.6,0.1,0.8c0.1,0.2,0.2,0.3,0.3,0.4c0.1,0.1,0.3,0.1,0.4,0.1c0.2,0,0.4-0.1,0.6-0.2
	c0.2-0.2,0.4-0.4,0.5-0.8c0.2-0.3,0.2-0.7,0.2-1.1c0-0.4-0.1-0.7-0.3-0.9c-0.2-0.2-0.4-0.3-0.7-0.3c-0.2,0-0.4,0.1-0.6,0.3
	c-0.2,0.2-0.4,0.4-0.5,0.8C87.6,45.2,87.5,45.5,87.5,45.8 M86.7,48.1l0.7,0.1v0.1c0,0.2,0.1,0.3,0.2,0.4s0.3,0.1,0.6,0.1
	c0.4,0,0.7-0.1,0.9-0.3c0.1-0.2,0.2-0.5,0.3-1.1l0.1-0.3c-0.3,0.4-0.7,0.6-1.1,0.6s-0.7-0.2-1-0.5c-0.3-0.3-0.4-0.8-0.4-1.4
	c0-0.5,0.1-0.9,0.3-1.4c0.2-0.4,0.5-0.8,0.8-1c0.3-0.2,0.6-0.3,0.9-0.3c0.5,0,0.9,0.3,1.2,0.8l0.1-0.7h0.6L90,47.6
	c-0.1,0.7-0.3,1.1-0.6,1.4c-0.3,0.4-0.7,0.5-1.3,0.5c-0.5,0-0.9-0.1-1.1-0.3c-0.3-0.2-0.4-0.5-0.4-0.8L86.7,48.1"/>
<path class="st1" d="M94.1,45.1h2.2V45c0-0.4-0.1-0.7-0.3-0.9c-0.2-0.2-0.4-0.3-0.7-0.3c-0.3,0-0.6,0.1-0.8,0.3
	C94.4,44.3,94.2,44.7,94.1,45.1 M96.1,46.2l0.7,0.1c-0.1,0.4-0.4,0.8-0.8,1.1c-0.3,0.3-0.7,0.4-1.1,0.4c-0.3,0-0.6-0.1-0.8-0.2
	c-0.2-0.1-0.4-0.3-0.6-0.7c-0.1-0.3-0.2-0.6-0.2-1c0-0.5,0.1-1,0.3-1.5c0.2-0.5,0.5-0.8,0.8-1s0.7-0.3,1-0.3c0.5,0,0.8,0.2,1.1,0.5
	c0.3,0.3,0.4,0.8,0.4,1.4c0,0.2,0,0.4-0.1,0.7h-2.9l0,0.2c0,0.4,0.1,0.7,0.3,1c0.2,0.2,0.4,0.3,0.6,0.3c0.2,0,0.5-0.1,0.7-0.3
	C95.8,46.8,95.9,46.5,96.1,46.2"/>
<path class="st1" d="M97.1,47.7l1.7-2.3l-1-2.2h0.8l0.3,0.8c0.1,0.3,0.2,0.6,0.3,0.8l1.2-1.6h0.8l-1.7,2.3l1,2.2h-0.8l-0.4-0.9
	c-0.1-0.2-0.2-0.4-0.3-0.7L98,47.7H97.1"/>
<path class="st1" d="M104,46.1l0.7,0.1c-0.2,0.6-0.4,1-0.7,1.3c-0.3,0.3-0.7,0.4-1.1,0.4c-0.4,0-0.8-0.2-1.1-0.5
	c-0.3-0.3-0.4-0.8-0.4-1.3c0-0.6,0.1-1.1,0.3-1.5c0.2-0.5,0.5-0.8,0.8-1s0.7-0.3,1-0.3c0.4,0,0.7,0.1,1,0.4c0.3,0.3,0.4,0.6,0.4,1.1
	l-0.7,0c0-0.3-0.1-0.5-0.2-0.7c-0.1-0.2-0.3-0.2-0.6-0.2c-0.2,0-0.5,0.1-0.7,0.2s-0.4,0.4-0.5,0.8s-0.2,0.8-0.2,1.3
	c0,0.4,0.1,0.6,0.2,0.8c0.2,0.2,0.3,0.3,0.6,0.3s0.4-0.1,0.6-0.3C103.7,46.8,103.9,46.5,104,46.1"/>
<path class="st1" d="M106.1,45.1h2.3V45c0-0.4-0.1-0.7-0.3-0.9c-0.2-0.2-0.4-0.3-0.7-0.3c-0.3,0-0.6,0.1-0.8,0.3
	C106.3,44.3,106.2,44.7,106.1,45.1 M108,46.2l0.7,0.1c-0.1,0.4-0.4,0.8-0.8,1.1c-0.3,0.3-0.7,0.4-1.1,0.4c-0.3,0-0.6-0.1-0.8-0.2
	c-0.2-0.1-0.4-0.3-0.6-0.7c-0.1-0.3-0.2-0.6-0.2-1c0-0.5,0.1-1,0.3-1.5c0.2-0.5,0.5-0.8,0.8-1s0.7-0.3,1-0.3c0.5,0,0.8,0.2,1.1,0.5
	c0.3,0.3,0.4,0.8,0.4,1.4c0,0.2,0,0.4-0.1,0.7h-2.9l0,0.2c0,0.4,0.1,0.7,0.3,1c0.2,0.2,0.4,0.3,0.6,0.3c0.2,0,0.5-0.1,0.7-0.3
	C107.7,46.8,107.9,46.5,108,46.2"/>
<polyline class="st1" points="109.3,47.7 110.5,41.6 111.2,41.6 110,47.7 109.3,47.7 "/>
<polyline class="st1" points="111.1,47.7 112.2,41.6 112.9,41.6 111.7,47.7 111.1,47.7 "/>
<path class="st1" d="M113.8,45.1h2.3V45c0-0.4-0.1-0.7-0.3-0.9c-0.2-0.2-0.4-0.3-0.7-0.3c-0.3,0-0.6,0.1-0.8,0.3
	C114.1,44.3,113.9,44.7,113.8,45.1 M115.8,46.2l0.7,0.1c-0.1,0.4-0.4,0.8-0.8,1.1c-0.3,0.3-0.7,0.4-1.1,0.4c-0.3,0-0.6-0.1-0.8-0.2
	c-0.2-0.1-0.4-0.3-0.6-0.7c-0.1-0.3-0.2-0.6-0.2-1c0-0.5,0.1-1,0.3-1.5c0.2-0.5,0.5-0.8,0.8-1s0.7-0.3,1-0.3c0.5,0,0.8,0.2,1.1,0.5
	c0.3,0.3,0.4,0.8,0.4,1.4c0,0.2,0,0.4-0.1,0.7h-2.9l0,0.2c0,0.4,0.1,0.7,0.3,1c0.2,0.2,0.4,0.3,0.6,0.3c0.2,0,0.5-0.1,0.7-0.3
	C115.4,46.8,115.6,46.5,115.8,46.2"/>
<path class="st1" d="M117.1,47.7l0.8-4.5h0.6l-0.2,0.8c0.3-0.3,0.6-0.6,0.8-0.7c0.2-0.1,0.5-0.2,0.7-0.2c0.3,0,0.6,0.1,0.8,0.3
	s0.3,0.5,0.3,0.8c0,0.2,0,0.4-0.1,0.8l-0.5,2.7h-0.7l0.6-2.8c0.1-0.3,0.1-0.5,0.1-0.6c0-0.2-0.1-0.3-0.2-0.4
	c-0.1-0.1-0.2-0.1-0.4-0.1c-0.3,0-0.7,0.1-0.9,0.4c-0.3,0.3-0.5,0.8-0.6,1.4l-0.4,2.1L117.1,47.7"/>
<path class="st1" d="M124.2,46.1l0.7,0.1c-0.2,0.6-0.4,1-0.7,1.3c-0.3,0.3-0.7,0.4-1.1,0.4c-0.4,0-0.8-0.2-1.1-0.5
	c-0.3-0.3-0.4-0.8-0.4-1.3c0-0.6,0.1-1.1,0.3-1.5c0.2-0.5,0.5-0.8,0.8-1s0.7-0.3,1-0.3c0.4,0,0.7,0.1,1,0.4c0.3,0.3,0.4,0.6,0.4,1.1
	l-0.7,0c0-0.3-0.1-0.5-0.2-0.7c-0.2-0.2-0.3-0.2-0.6-0.2c-0.2,0-0.5,0.1-0.7,0.2c-0.2,0.1-0.4,0.4-0.5,0.8c-0.1,0.4-0.2,0.8-0.2,1.3
	c0,0.4,0.1,0.6,0.2,0.8c0.2,0.2,0.3,0.3,0.6,0.3s0.4-0.1,0.6-0.3C123.9,46.8,124,46.5,124.2,46.1"/>
<path class="st1" d="M126.2,45.1h2.3V45c0-0.4-0.1-0.7-0.3-0.9c-0.2-0.2-0.4-0.3-0.7-0.3c-0.3,0-0.6,0.1-0.8,0.3
	C126.5,44.3,126.3,44.7,126.2,45.1 M128.2,46.2l0.7,0.1c-0.1,0.4-0.4,0.8-0.8,1.1c-0.3,0.3-0.7,0.4-1.1,0.4c-0.3,0-0.6-0.1-0.8-0.2
	c-0.2-0.1-0.4-0.3-0.6-0.7c-0.1-0.3-0.2-0.6-0.2-1c0-0.5,0.1-1,0.3-1.5c0.2-0.5,0.5-0.8,0.8-1s0.7-0.3,1-0.3c0.5,0,0.8,0.2,1.1,0.5
	c0.3,0.3,0.4,0.8,0.4,1.4c0,0.2,0,0.4-0.1,0.7h-2.9l0,0.2c0,0.4,0.1,0.7,0.3,1c0.2,0.2,0.4,0.3,0.6,0.3c0.2,0,0.5-0.1,0.7-0.3
	C127.9,46.8,128.1,46.5,128.2,46.2"/>
<path class="st1" d="M147.7,1v52.1H1V1H147.7 M148.7,0H0v54.1h148.7V0L148.7,0z"/>
</svg>
