<svg id="Apps-Tools" xmlns="http://www.w3.org/2000/svg" width="42.939" height="42.939" viewBox="0 0 42.939 42.939">
  <path id="Path_157" data-name="Path 157" d="M31.923,41.429a16.576,16.576,0,0,1-5.637,7.72A16.417,16.417,0,0,1,0,36.03a16.278,16.278,0,0,1,3.3-9.87,16.566,16.566,0,0,1,7.721-5.637q-.111.314-.207.633a16.4,16.4,0,0,0,1.165,12.38,16.45,16.45,0,0,0,2.939,4,16.636,16.636,0,0,0,1.708,1.491,16.232,16.232,0,0,0,7.546,3.151h0a16.617,16.617,0,0,0,2.16.165h.192a16.469,16.469,0,0,0,4.769-.7C31.5,41.571,31.714,41.5,31.923,41.429Z" transform="translate(0 -9.508)" fill="#122f98"/>
  <path id="Path_158" data-name="Path 158" d="M20.982,20.139a1.258,1.258,0,0,0-.839.839q.1-.318.207-.633C20.559,20.272,20.77,20.2,20.982,20.139Z" transform="translate(-9.331 -9.33)" fill="#122f98"/>
  <path id="Path_159" data-name="Path 159" d="M59.137,58.294q-.1.318-.206.633c-.21.074-.421.142-.633.206A1.257,1.257,0,0,0,59.137,58.294Z" transform="translate(-27.007 -27.005)" fill="#122f98"/>
  <path id="Path_160" data-name="Path 160" d="M35.743,0,25.434,10.109a16.446,16.446,0,0,0-4.452.7,1.258,1.258,0,0,0-.839.839q.1-.318.207-.633A16.421,16.421,0,0,1,35.743,0Z" transform="translate(-9.331 -0.001)" fill="#122f98"/>
  <path id="Path_161" data-name="Path 161" d="M51.7,2.366,41.488,12.426A16.291,16.291,0,0,0,37.434,10.9L47.57.965A1.534,1.534,0,0,0,47.692.83,16.241,16.241,0,0,1,51.7,2.366Z" transform="translate(-17.342 -0.384)" fill="#122f98"/>
  <path id="Path_162" data-name="Path 162" d="M62.456,9.477a1.3,1.3,0,0,0-.351.252l-9.8,9.811a16.513,16.513,0,0,0-2.871-2.89l9.956-9.806a1.382,1.382,0,0,0,.21-.264,16.651,16.651,0,0,1,2.856,2.9Z" transform="translate(-22.901 -3.048)" fill="#122f98"/>
  <path id="Path_163" data-name="Path 163" d="M69.293,20.7a1.357,1.357,0,0,0-.943.4l-9.26,9.26a16.3,16.3,0,0,0-1.53-4.086L67.669,16.15A16.2,16.2,0,0,1,69.293,20.7Z" transform="translate(-26.665 -7.482)" fill="#122f98"/>
  <path id="Path_164" data-name="Path 164" d="M69.946,30.419A16.422,16.422,0,0,1,58.931,45.924c-.21.074-.421.142-.633.206a1.257,1.257,0,0,0,.839-.84,16.42,16.42,0,0,0,.7-4.766c0-.065,0-.128,0-.193L69.945,30.225C69.946,30.29,69.946,30.354,69.946,30.419Z" transform="translate(-27.007 -14.002)" fill="#122f98"/>
  <path id="Path_165" data-name="Path 165" d="M24.828,18.833l-2.958,2.9-.107.027c-.008.034-.017.07-.026.1l-2.9,2.846a16.474,16.474,0,0,1,.7-4.337,1.259,1.259,0,0,1,.84-.84A16.446,16.446,0,0,1,24.828,18.833Z" transform="translate(-8.725 -8.725)" fill="#122f98"/>
  <path id="Path_166" data-name="Path 166" d="M24.375,24.237l-.133.131c.009-.034.018-.07.026-.1Z" transform="translate(-11.23 -11.228)" fill="#122f98"/>
  <path id="Path_167" data-name="Path 167" d="M33.2,21.122,31.3,22.987l-8.388,8.262-1.889,1.86a16.336,16.336,0,0,1-1.49-4.088l2.2-2.159,5.185-5.085,2.22-2.177A16.292,16.292,0,0,1,33.2,21.122Z" transform="translate(-9.05 -9.08)" fill="#122f98"/>
  <path id="Path_168" data-name="Path 168" d="M41.066,28.232l-1.794,1.8L29.951,39.36,28.62,40.694a1.336,1.336,0,0,0-.335.562,16.641,16.641,0,0,1-1.708-1.491,16.416,16.416,0,0,1-1.4-1.6l1.807-1.78,9.4-9.265L38.2,25.342A16.511,16.511,0,0,1,41.066,28.232Z" transform="translate(-11.662 -11.74)" fill="#122f98"/>
  <path id="Path_169" data-name="Path 169" d="M48.641,39.092l-2.184,2.184-5.182,5.182-.712.712a1.369,1.369,0,0,0-.178,1.713A16.242,16.242,0,0,1,35,47.123c.021-.018.042-.038.062-.058l1.815-1.817,8.357-8.366,1.873-1.875A16.3,16.3,0,0,1,48.641,39.092Z" transform="translate(-16.216 -16.217)" fill="#122f98"/>
  <path id="Path_170" data-name="Path 170" d="M55.56,49.248a16.419,16.419,0,0,1-.7,4.766,1.257,1.257,0,0,1-.84.84,16.471,16.471,0,0,1-4.769.7h-.192L52.809,51.8l2.749-2.749C55.56,49.119,55.56,49.183,55.56,49.248Z" transform="translate(-22.726 -22.725)" fill="#122f98"/>
  <path id="Path_171" data-name="Path 171" d="M49.318,0h0Z" transform="translate(-22.796)" fill="#122f98"/>
</svg>
