<svg xmlns="http://www.w3.org/2000/svg" width="56.774" height="48.347" viewBox="0 0 56.774 48.347">
  <g id="Digital-Learning" transform="translate(0 -0.938)">
    <path id="Path_143" data-name="Path 143" d="M52.217,47.307H7.689a2.3,2.3,0,0,1-2.3-2.3V14.992a2.3,2.3,0,0,1,2.3-2.3H52.216a2.3,2.3,0,0,1,2.3,2.3V45.011A2.3,2.3,0,0,1,52.217,47.307Z" transform="translate(-1.565 -3.413)" fill="#122f98"/>
    <path id="Path_144" data-name="Path 144" d="M72.271,45a2.3,2.3,0,0,1-2.285,2.308H66.56A2.3,2.3,0,0,0,68.844,45V15a2.3,2.3,0,0,0-2.279-2.308h3.421A2.3,2.3,0,0,1,72.27,15Z" transform="translate(-19.324 -3.413)" fill="#c2bcbc"/>
    <path id="Path_145" data-name="Path 145" d="M53.04,45.082a.465.465,0,0,1-.463.466H9.371a.465.465,0,0,1-.463-.466v-27.9a.465.465,0,0,1,.463-.466H52.575a.465.465,0,0,1,.463.466Z" transform="translate(-2.586 -4.582)" fill="#fff"/>
    <path id="Path_146" data-name="Path 146" d="M55.175,66.725H1.6a1.6,1.6,0,0,1-1.6-1.6V62.61a1.6,1.6,0,0,1,1.6-1.6H55.175a1.6,1.6,0,0,1,1.6,1.6v2.515A1.6,1.6,0,0,1,55.175,66.725Z" transform="translate(0 -17.44)" fill="#152360"/>
    <path id="Path_147" data-name="Path 147" d="M76.344,61.01H72.918a1.6,1.6,0,0,1,1.6,1.6v2.514a1.6,1.6,0,0,1-1.6,1.6h3.427a1.6,1.6,0,0,0,1.6-1.6V62.61A1.6,1.6,0,0,0,76.344,61.01Z" transform="translate(-21.169 -17.44)" fill="#152360"/>
    <path id="Path_148" data-name="Path 148" d="M33.13,30.284H16.978a.64.64,0,0,1-.64-.64V9.749a.64.64,0,0,1,.64-.64H33.13Z" transform="translate(-4.743 -2.372)" fill="#152360"/>
    <path id="Path_149" data-name="Path 149" d="M56.152,30.284H40V9.109H56.152a.64.64,0,0,1,.64.64V29.643A.64.64,0,0,1,56.152,30.284Z" transform="translate(-11.613 -2.372)" fill="#152360"/>
    <path id="Path_150" data-name="Path 150" d="M34.323,27.911,20.876,23.259a.64.64,0,0,1-.431-.605V1.578a.64.64,0,0,1,.849-.605L34.323,5.481Z" transform="translate(-5.936 0)" fill="#122f98"/>
    <path id="Path_151" data-name="Path 151" d="M34.323,27.911V5.481L21.294.973a.64.64,0,0,0-.849.605V22.654a.64.64,0,0,0,.431.605Zm-.665-.934V5.955L21.11,1.613V22.636Z" transform="translate(-5.936 0)" fill="#fff" fill-rule="evenodd"/>
    <path id="Path_152" data-name="Path 152" d="M40,27.911l13.447-4.653a.64.64,0,0,0,.431-.605V1.578a.64.64,0,0,0-.849-.605L40,5.481Z" transform="translate(-11.613 0)" fill="#122f98"/>
    <path id="Path_153" data-name="Path 153" d="M41.62,63.753H34.362a1.283,1.283,0,0,1-1.283-1.283V61.01H42.9v1.46A1.283,1.283,0,0,1,41.62,63.753Z" transform="translate(-9.603 -17.44)" fill="#fff"/>
    <path id="Path_154" data-name="Path 154" d="M46.309,43.634H23.8a.832.832,0,0,0,0,1.664H46.31a.832.832,0,0,0,0-1.664Z" transform="translate(-6.669 -12.396)" fill="#152360"/>
    <path id="Path_155" data-name="Path 155" d="M38.4,48.758H23.8a.832.832,0,0,0,0,1.664H38.4a.832.832,0,0,0,0-1.664Z" transform="translate(-6.669 -13.883)" fill="#152360"/>
    <path id="Path_156" data-name="Path 156" d="M40,27.911V5.481L53.029.973a.64.64,0,0,1,.849.605V22.654a.64.64,0,0,1-.431.605Zm.665-.934V5.955L53.213,1.614V22.636Z" transform="translate(-11.613 0)" fill="#fff" fill-rule="evenodd"/>
  </g>
</svg>
