<svg xmlns="http://www.w3.org/2000/svg" xmlns:xlink="http://www.w3.org/1999/xlink" width="54.966" height="43.537" viewBox="0 0 54.966 43.537">
  <defs>
    <clipPath id="clip-path">
      <rect id="Rectangle_57" data-name="Rectangle 57" width="54.966" height="43.537" fill="#122f98"/>
    </clipPath>
  </defs>
  <g id="Make-A-Payment" clip-path="url(#clip-path)">
    <path id="Path_172" data-name="Path 172" d="M59.2,5.674,57.111,31.405a2.094,2.094,0,0,1-2.247,1.932l-3.929-.327V13.889a2.1,2.1,0,0,0-2.083-2.111h-35.3l.8-9.84A2.093,2.093,0,0,1,16.594.007L57.291,3.4A2.1,2.1,0,0,1,59.2,5.674Z" transform="translate(-4.24 0)" fill="#122f98"/>
    <path id="Path_173" data-name="Path 173" d="M45,21.753v3.5H0v-3.5a2.1,2.1,0,0,1,2.083-2.111H42.919A2.1,2.1,0,0,1,45,21.753Z" transform="translate(0 -6.146)" fill="#122f98"/>
    <path id="Path_174" data-name="Path 174" d="M0,40.287V54.137a2.049,2.049,0,0,0,2.083,2.008H42.919a2.147,2.147,0,0,0,.955-.223A2,2,0,0,0,45,54.137V40.287Zm39.706,10.4a.842.842,0,0,1-.835.847H30.824a.842.842,0,0,1-.835-.847V45.365a.841.841,0,0,1,.835-.847H38.87a.841.841,0,0,1,.835.847Z" transform="translate(0 -12.607)" fill="#122f98"/>
    <path id="Path_175" data-name="Path 175" d="M53.364,47.292v5.321a.842.842,0,0,1-.835.846H44.483a.842.842,0,0,1-.835-.846V47.292a.841.841,0,0,1,.835-.847h8.046A.841.841,0,0,1,53.364,47.292Z" transform="translate(-13.658 -14.534)" fill="#122f98"/>
    <path id="Path_176" data-name="Path 176" d="M45,30.257H0V35.6H45Z" transform="translate(0 -9.468)" fill="#122f98"/>
    <path id="Path_177" data-name="Path 177" d="M53.364,47.292v5.321a.842.842,0,0,1-.835.846H44.483a.842.842,0,0,1-.835-.846V47.292a.841.841,0,0,1,.835-.847h8.046A.841.841,0,0,1,53.364,47.292Z" transform="translate(-13.658 -14.534)" fill="#152360"/>
    <rect id="Rectangle_56" data-name="Rectangle 56" width="1.855" height="3.916" rx="0.35" transform="translate(33.77 33.77)" fill="none" stroke="#c2bcbc" stroke-width="0.3"/>
    <line id="Line_9" data-name="Line 9" x2="4.122" transform="translate(35.728 34.938)" fill="none" stroke="#c2bcbc" stroke-width="0.3"/>
    <line id="Line_10" data-name="Line 10" x2="4.122" transform="translate(35.728 36.312)" fill="none" stroke="#c2bcbc" stroke-width="0.3"/>
    <line id="Line_11" data-name="Line 11" x2="4.122" transform="translate(29.544 34.938)" fill="none" stroke="#c2bcbc" stroke-width="0.3"/>
    <line id="Line_12" data-name="Line 12" x2="4.122" transform="translate(29.544 36.312)" fill="none" stroke="#c2bcbc" stroke-width="0.3"/>
    <line id="Line_13" data-name="Line 13" y2="1.374" transform="translate(34.8 37.789)" fill="none" stroke="#c2bcbc" stroke-width="0.3"/>
    <line id="Line_14" data-name="Line 14" y2="2.061" transform="translate(34.8 31.605)" fill="none" stroke="#c2bcbc" stroke-width="0.3"/>
  </g>
</svg>
