<svg id="Members_Admission" data-name="Members Admission" xmlns="http://www.w3.org/2000/svg" xmlns:xlink="http://www.w3.org/1999/xlink" width="47.407" height="43.662" viewBox="0 0 47.407 43.662">
  <defs>
    <clipPath id="clip-path">
      <rect id="Rectangle_55" data-name="Rectangle 55" width="26.039" height="15.045" fill="#122f98"/>
    </clipPath>
  </defs>
  <path id="Path_130" data-name="Path 130" d="M34.214,16.855h0a2.461,2.461,0,0,0,.637-.116h0A2.08,2.08,0,0,0,34.214,16.855Zm.637-10.011V3.951A2.964,2.964,0,0,0,31.9,1H3.951A2.964,2.964,0,0,0,1,3.951v35.76a2.964,2.964,0,0,0,2.951,2.951H31.842a2.964,2.964,0,0,0,2.951-2.951V21.831h-.637v17.88a2.334,2.334,0,0,1-2.372,2.315H3.951a2.372,2.372,0,0,1-2.372-2.315V3.951A2.334,2.334,0,0,1,3.951,1.637H31.842a2.372,2.372,0,0,1,2.372,2.315V6.786A2.6,2.6,0,0,1,34.851,6.844Z" fill="#122f98" stroke="#122f98" stroke-width="2"/>
  <path id="Path_131" data-name="Path 131" d="M30.444,5.882H24.831a.623.623,0,0,1-.579-.463L23.5,1.6h8.275l-.752,3.819A.526.526,0,0,1,30.444,5.882Z" transform="translate(-9.48 -0.253)" fill="#122f98"/>
  <g id="Group_157" data-name="Group 157" transform="translate(20.674 6.786)">
    <g id="Group_156" data-name="Group 156" clip-path="url(#clip-path)">
      <path id="Path_132" data-name="Path 132" d="M61.039,23.509H55.31l-.058.058a8.7,8.7,0,0,1-5.5,2.372H48.54c-1.157,0-2.43.058-3.53.058-.579,0-2.315,0-3.819.058h0V25.65h0v-.116l.116-2.662v-.058h0a2.6,2.6,0,0,0,.637-.058h.174c.81-.058,1.678-.116,2.488-.231h.231c.694-.116,1.389-.174,2.083-.347h0a2.9,2.9,0,0,1,.694-.116c.174-.058.347-.058.579-.116.116,0,.174-.058.289-.058a2.08,2.08,0,0,1,.637-.116h.058c.289-.058.579-.116.81-.174a3.317,3.317,0,0,0,.81-.231l.694-.174c.231-.058.463-.116.752-.174.174-.058.289-.058.347-.116a.4.4,0,0,0,.289-.174c0-.058.058-.058.058-.116a.213.213,0,0,0-.058-.174.258.258,0,0,0-.347-.116.348.348,0,0,0-.231.058,2.506,2.506,0,0,1-.289.058H51.9c-.058,0-.174.058-.231.058-.521.116-1.273.289-1.967.463a1.712,1.712,0,0,1-.579.116c-.231.058-.463.116-.637.174-.347.116-.694.174-.926.231-.174.058-.405.058-.579.116a4.467,4.467,0,0,1-.868.116L43.332,22c-.116,0-.289.058-.405.058l-1.042.116-.521.058h-.058c-3.414.058-4.629-.868-5.092-1.62a.8.8,0,0,1-.058-.637.057.057,0,0,1,.058-.058.629.629,0,0,1,.579-.405,16.642,16.642,0,0,0,4.8-1.562c.637-.347,1.042-.637,1.215-.694,3.472-.463,4.745-2.2,4.8-2.257l-.463-.347s-1.215,1.62-4.456,2.025H41.654L35,16.45h0c6.654-5.324,12.152-5.381,12.267-5.381h0a3.874,3.874,0,0,1,1.157,0c.231,0,.405.058.637.058A24.251,24.251,0,0,1,55.6,13.267l.058.058h4.8a9.629,9.629,0,0,0-.81,7.465A9.678,9.678,0,0,0,61.039,23.509Z" transform="translate(-35 -11.011)" fill="#122f98"/>
    </g>
  </g>
  <path id="Path_133" data-name="Path 133" d="M35.173,20.689l-.694.463a12.557,12.557,0,0,1-1.215.694,15.153,15.153,0,0,1-4.513,1.5.736.736,0,0,0-.521.405.057.057,0,0,1-.058.058.685.685,0,0,0,.058.579c.405.694,1.62,1.562,4.8,1.562v.579l-.116,2.488v.058h0v.347h0v.521L32.28,42.736c-.116,1.62-.694,2.835-1.331,2.835H16.83c-.637,0-1.215-1.215-1.331-2.835L14.4,20.4H27.13l6.249.116Z" transform="translate(-5.646 -8.174)" fill="#152360"/>
  <path id="Path_134" data-name="Path 134" d="M46.281,36.5v.174C46.223,36.674,46.281,36.558,46.281,36.5Z" transform="translate(-19.069 -14.958)" fill="#121212"/>
  <path id="Path_135" data-name="Path 135" d="M61.733,23.883H55.368a8.673,8.673,0,0,1-5.5,2.315H48.656c-1.1,0-2.257,0-3.356.058-1.042,0-1.736.058-2.2.058a10.756,10.756,0,0,1-1.447,0v-.521h0c1.447,0,3.125-.058,3.645-.058,1.1,0,2.257-.058,3.356-.058h1.215a8.156,8.156,0,0,0,5.208-2.2l.058-.058h5.439a9,9,0,0,1-1.273-2.6,8.7,8.7,0,0,1,.752-7H55.484a24.906,24.906,0,0,0-6.191-1.967c-.231,0-.405-.058-.637-.058h-1.1c-.058,0-5.324.058-11.631,5.034H35c6.6-5.439,12.094-5.555,12.5-5.555a3.874,3.874,0,0,1,1.157,0c.174,0,.405.058.637.058a23.677,23.677,0,0,1,6.365,2.025h5.324l-.231.405a8.075,8.075,0,0,0-.926,6.944,10.584,10.584,0,0,0,1.562,2.893Z" transform="translate(-14.326 -4.308)" fill="#c1bebe"/>
  <path id="Path_136" data-name="Path 136" d="M57.5,27.089c0,.058,0,.058-.058.116-.058.116-.231.116-.347.174a6.053,6.053,0,0,1-.984.231l-.694.174c-.289.058-.521.116-.81.174s-.521.116-.81.174h-.058a2.056,2.056,0,0,1-.579.116c-.116,0-.174.058-.231.058-.174.058-.347.058-.521.116-.868.174-1.736.289-2.662.405h-.174c-.81.116-1.562.174-2.372.231h-.174a2.374,2.374,0,0,0-.637.058c0-.116-.058-.521.058-.521l.463-.058.984-.116a.734.734,0,0,0,.347-.058c.868-.116,1.736-.174,2.6-.289.289-.058.521-.058.81-.116.174-.058.347-.058.579-.116.289-.058.579-.116.926-.174a2.461,2.461,0,0,1,.637-.116c.868-.231,1.736-.405,2.6-.637h.116c.058,0,.174-.058.231-.058s.174-.058.231-.058h.116c.058,0,.116.058.174.116C57.5,26.974,57.5,27.031,57.5,27.089Z" transform="translate(-19.119 -10.871)" fill="#fff"/>
  <path id="Path_137" data-name="Path 137" d="M48.858,20.03,48.8,19.51a6.716,6.716,0,0,0,4.282-1.91l.463.347A7.254,7.254,0,0,1,48.858,20.03Z" transform="translate(-20.141 -6.994)" fill="#fff"/>
  <path id="Path_138" data-name="Path 138" d="M25.5,43.249l-3.067-3.24a.327.327,0,1,1,.463-.463l2.6,2.72a.432.432,0,0,0,.521,0l5.555-5.729a.327.327,0,1,1,.463.463l-6.018,6.249A.432.432,0,0,1,25.5,43.249Z" transform="translate(-8.996 -14.937)" fill="#fff"/>
</svg>
