<svg xmlns="http://www.w3.org/2000/svg" width="11.314" height="11.135" viewBox="0 0 11.314 11.135">
  <g id="Email-Icon" transform="translate(-5.9 -5.572)">
    <path id="Path_14" data-name="Path 14" d="M11.545,16.706H6.237c-.271,0-.334-.063-.334-.331q0-3.016,0-6.03a.413.413,0,0,1,.168-.37c.147-.108.28-.24.424-.355a.234.234,0,0,0,.093-.2c0-.878,0-1.758,0-2.636,0-.042,0-.084,0-.123a.237.237,0,0,1,.268-.249h3.291a.3.3,0,0,0,.213-.081c.207-.183.418-.367.631-.544a.871.871,0,0,1,1.154.015c.2.177.412.352.613.532a.294.294,0,0,0,.213.078c1.079,0,2.155,0,3.234,0,.246,0,.313.066.313.316q0,1.335,0,2.672a.255.255,0,0,0,.1.222c.159.129.313.271.472.4a.338.338,0,0,1,.123.277v6.12c0,.207-.084.289-.3.289C15.122,16.709,13.333,16.706,11.545,16.706Zm.021-9.832H7.2c-.093,0-.144.015-.144.126q0,1.808,0,3.619a.191.191,0,0,0,.069.156q1.33,1.132,2.657,2.266a.255.255,0,0,0,.192.069c1.043,0,2.089,0,3.132,0a.3.3,0,0,0,.2-.075q1.312-1.127,2.63-2.248a.263.263,0,0,0,.1-.222c0-1.178,0-2.359,0-3.538,0-.153,0-.153-.156-.153Zm4.755,9.363-.514-.442q-1.235-1.06-2.468-2.125a.321.321,0,0,0-.222-.084c-1.049,0-2.095,0-3.144,0a.288.288,0,0,0-.2.075C8.9,14.41,8.031,15.152,7.159,15.9c-.123.105-.246.213-.391.337C9.964,16.237,13.126,16.237,16.321,16.237ZM6.372,13.331V15.8c0,.039-.015.09.03.111s.051-.021.075-.042q1.42-1.217,2.84-2.432c.108-.093.105-.093,0-.186-.944-.8-1.885-1.608-2.831-2.411-.03-.024-.054-.081-.1-.057s-.015.069-.015.105Zm10.355.018V10.881c0-.036.021-.084-.021-.1s-.057.03-.081.051q-1.42,1.213-2.834,2.423c-.105.09-.105.09,0,.18l2.828,2.432c.03.024.054.081.1.057s.015-.069.015-.105Q16.725,14.584,16.727,13.349ZM12.1,6.405c-.487-.5-.682-.424-1.091,0Z" transform="translate(0 0)" fill="#fff"/>
    <path id="Path_15" data-name="Path 15" d="M133.661,83.5a1.324,1.324,0,0,0-.15-.685,1.12,1.12,0,0,0-.995-.6,1.585,1.585,0,0,0-1.668,1.482,1.5,1.5,0,0,0,.283,1.085,1.335,1.335,0,0,0,1.217.5,2.087,2.087,0,0,0,.736-.192.227.227,0,0,1,.316.105.223.223,0,0,1-.105.307,1.993,1.993,0,0,1-2.654-.613,1.8,1.8,0,0,1-.2-1.59,2.031,2.031,0,0,1,1.524-1.509,1.781,1.781,0,0,1,1.593.349,1.624,1.624,0,0,1,.553,1,1.732,1.732,0,0,1-.219,1.277.89.89,0,0,1-.589.436.558.558,0,0,1-.544-.168.107.107,0,0,0-.165-.024.917.917,0,0,1-1.416-.64,1.189,1.189,0,0,1,1.043-1.38.711.711,0,0,1,.409.1c.06.036.1.042.15-.021a.228.228,0,0,1,.4.165c-.03.295-.069.589-.1.884a2.254,2.254,0,0,0-.036.427c.006.072.012.153.087.183a.207.207,0,0,0,.228-.054.955.955,0,0,0,.3-.634A1.313,1.313,0,0,0,133.661,83.5Zm-1.59.842a.505.505,0,0,0,.514-.442c.021-.132.039-.268.057-.4a.212.212,0,0,0-.042-.168.43.43,0,0,0-.661-.111.781.781,0,0,0-.313.667A.46.46,0,0,0,132.071,84.343Z" transform="translate(-120.701 -73.874)" fill="#fff"/>
  </g>
</svg>
