<svg id="Students-Admission" xmlns="http://www.w3.org/2000/svg" width="46.526" height="46.526" viewBox="0 0 46.526 46.526">
  <path id="Path_139" data-name="Path 139" d="M4.089,0A4.094,4.094,0,0,0,0,4.089V20.719H20.719V0ZM13.54,11.722H11.722V13.54A1.363,1.363,0,1,1,9,13.54V11.722H7.179A1.363,1.363,0,1,1,7.179,9H9V7.179a1.363,1.363,0,1,1,2.726,0V9H13.54a1.363,1.363,0,1,1,0,2.726Z" fill="#122f98"/>
  <path id="Path_140" data-name="Path 140" d="M60.289,20.719h.742V4.089A4.094,4.094,0,0,0,56.942,0H40.313V20.227a16.1,16.1,0,0,1,19.977.492ZM46.128,10.359A1.363,1.363,0,0,1,47.491,9h6.361a1.363,1.363,0,1,1,0,2.726H47.491A1.363,1.363,0,0,1,46.128,10.359Z" transform="translate(-16.868)" fill="#122f98"/>
  <path id="Path_141" data-name="Path 141" d="M20.227,40.313H0V56.942a4.094,4.094,0,0,0,4.089,4.089H20.719v-.742a16.1,16.1,0,0,1-.492-19.977ZM13.595,51.98a1.363,1.363,0,1,1-1.928,1.928L10.359,52.6,9.051,53.907A1.363,1.363,0,0,1,7.124,51.98l1.308-1.308L7.124,49.364a1.363,1.363,0,1,1,1.928-1.928l1.308,1.308,1.308-1.308a1.363,1.363,0,1,1,1.928,1.928l-1.308,1.308Z" transform="translate(0 -16.868)" fill="#122f98"/>
  <path id="Path_142" data-name="Path 142" d="M47.31,33.906a13.4,13.4,0,1,0,13.4,13.4A13.419,13.419,0,0,0,47.31,33.906ZM50.49,50.944H44.129a1.363,1.363,0,1,1,0-2.726H50.49a1.363,1.363,0,0,1,0,2.726Zm0-4.544H44.129a1.363,1.363,0,1,1,0-2.726H50.49a1.363,1.363,0,0,1,0,2.726Z" transform="translate(-14.187 -14.187)" fill="#122f98"/>
</svg>
