<svg id="location" xmlns="http://www.w3.org/2000/svg" width="11.463" height="16.28" viewBox="0 0 11.463 16.28">
  <path id="Path_2" data-name="Path 2" d="M32.513,34.491a.765.765,0,0,1-.275-.233c-.944-1.406-1.974-2.753-2.9-4.172A18.622,18.622,0,0,1,27.5,26.635a7.277,7.277,0,0,1-.555-2.829,5.757,5.757,0,0,1,6.184-5.578,5.745,5.745,0,0,1,5.214,4.85,6.7,6.7,0,0,1-.373,3.227,16.892,16.892,0,0,1-1.741,3.435c-.839,1.326-1.775,2.579-2.673,3.863-.136.191-.267.381-.394.576a.84.84,0,0,1-.33.313Zm.14-15.3c-.076.008-.178.017-.275.021a4.592,4.592,0,0,0-3.558,1.974,4.719,4.719,0,0,0-.728,4.049,11.9,11.9,0,0,0,1.4,3.219c.932,1.593,2.05,3.062,3.1,4.574.072.106.11.072.169-.013.928-1.334,1.906-2.634,2.761-4.015a14.664,14.664,0,0,0,1.6-3.287,5.434,5.434,0,0,0,.233-2.537A4.763,4.763,0,0,0,32.653,19.193Z" transform="translate(-26.941 -18.211)" fill="#152360"/>
  <path id="Path_3" data-name="Path 3" d="M99.755,88.871A2.7,2.7,0,1,1,97.089,85.8,2.87,2.87,0,0,1,99.755,88.871ZM97.1,86.845a2.037,2.037,0,0,0-.047,4.034,1.853,1.853,0,0,0,1.785-1.986A1.9,1.9,0,0,0,97.1,86.845Z" transform="translate(-91.349 -83.043)" fill="#152360"/>
</svg>
